<?xml version="1.0" encoding="utf-8"?>
<!-- Generator: Adobe Illustrator 24.0.0, SVG Export Plug-In . SVG Version: 6.00 Build 0)  -->
<svg version="1.1" id="Layer_1" xmlns="http://www.w3.org/2000/svg" xmlns:xlink="http://www.w3.org/1999/xlink" x="0px" y="0px"
	 viewBox="0 0 939.1 588.7" style="enable-background:new 0 0 939.1 588.7;" xml:space="preserve">
<style type="text/css">
	.st0{clip-path:url(#SVGID_2_);}
	.st1{fill:none;stroke:#FFFFFF;stroke-width:10.785;stroke-linecap:round;stroke-linejoin:round;stroke-miterlimit:10;}
	.st2{opacity:0.6;fill:#FFFFFF;stroke:#010101;stroke-width:10.785;stroke-miterlimit:10;}
	.st3{fill:none;stroke:#010101;stroke-width:2.7602;stroke-miterlimit:10;}
	.st4{fill:none;stroke:#010101;stroke-width:2.2629;stroke-miterlimit:10;}
	.st5{fill:#DDB126;}
	.st6{fill:#010101;}
	.st7{fill:#010101;stroke:#010101;stroke-width:3.825;stroke-miterlimit:10;}
	.st8{fill:#010101;stroke:#FFFFFF;stroke-width:3.825;stroke-miterlimit:10;}
	.st9{fill:#DDB126;stroke:#010101;stroke-width:3.825;stroke-miterlimit:10;}
	.st10{fill:#DDB126;stroke:#010101;stroke-width:4.6297;stroke-miterlimit:10;}
	.st11{fill:#DDB126;stroke:#010101;stroke-width:5.3571;stroke-miterlimit:10;}
	.st12{opacity:0.1;fill:#FFFFFF;}
	.st13{fill:#DDB126;stroke:#010101;stroke-width:7.19;stroke-miterlimit:10;}
	.st14{opacity:0.7;fill:#010101;stroke:#010101;stroke-width:7.19;stroke-miterlimit:10;}
	.st15{fill:none;stroke:#010101;stroke-width:3.5754;stroke-miterlimit:10;}
	.st16{fill:url(#SVGID_3_);}
	.st17{fill:url(#SVGID_4_);}
	.st18{fill:#010101;stroke:#010101;stroke-width:3.5754;stroke-miterlimit:10;}
	.st19{opacity:0.5;fill:#FFFFFF;}
	.st20{opacity:0.3;fill:#FFFFFF;}
	.st21{opacity:0.3;fill:#010101;stroke:#010101;stroke-width:7.19;stroke-miterlimit:10;}
	.st22{opacity:0.5;fill:#010101;stroke:#010101;stroke-width:7.19;stroke-miterlimit:10;}
	.st23{fill:#FFFFFF;stroke:#FBB03B;stroke-width:2.7602;stroke-miterlimit:10;}
</style>
<g>
	<defs>
		<path id="SVGID_1_" d="M929.9,605.2H10.2c-16.6,0-30.3-13.6-30.3-30.3V20.6c0-16.6,13.6-30.3,30.3-30.3h919.7
			c16.6,0,30.3,13.6,30.3,30.3v554.3C960.1,591.5,946.5,605.2,929.9,605.2z"/>
	</defs>
	<use xlink:href="#SVGID_1_"  style="overflow:visible;"/>
	<clipPath id="SVGID_2_">
		<use xlink:href="#SVGID_1_"  style="overflow:visible;"/>
	</clipPath>
	<g class="st0">
		<g>
			<g>
				<g>
					<line class="st1" x1="235.3" y1="843.3" x2="364.7" y2="546.7"/>
					<line class="st1" x1="276.4" y1="811.9" x2="363.1" y2="580.7"/>
					<line class="st1" x1="349.2" y1="777.4" x2="405.4" y2="569.3"/>
					<line class="st1" x1="397.7" y1="534.5" x2="405.4" y2="511.3"/>
					<line class="st1" x1="298.6" y1="831.8" x2="369.8" y2="618.1"/>
					<line class="st1" x1="395.5" y1="832.7" x2="420.7" y2="676.9"/>
					<line class="st1" x1="489.3" y1="478" x2="488.9" y2="438.7"/>
					<line class="st1" x1="493.9" y1="965.4" x2="490.4" y2="596"/>
				</g>
				<g>
					<line class="st1" x1="1072.7" y1="31.8" x2="679" y2="192.4"/>
					<line class="st1" x1="805.9" y1="172.4" x2="697.5" y2="206"/>
					<line class="st1" x1="812.3" y1="279.2" x2="668.8" y2="276.3"/>
					<line class="st1" x1="655.2" y1="245.6" x2="639.4" y2="248.1"/>
					<line class="st1" x1="1069.5" y1="180.8" x2="713.4" y2="236.5"/>
					<line class="st1" x1="816.8" y1="395.1" x2="716.7" y2="358.4"/>
					<line class="st1" x1="579.9" y1="377.9" x2="561.3" y2="357.8"/>
					<line class="st1" x1="990.9" y1="821.7" x2="637.5" y2="440"/>
				</g>
			</g>
			<g>
				<g>
					<line class="st1" x1="671.8" y1="-23.3" x2="602" y2="136.8"/>
					<line class="st1" x1="749.8" y1="-253.6" x2="603.5" y2="102.8"/>
					<line class="st1" x1="660.9" y1="-254.8" x2="561.3" y2="114.2"/>
					<line class="st1" x1="569" y1="149" x2="561.2" y2="172.2"/>
					<line class="st1" x1="640.1" y1="-64.5" x2="596.8" y2="65.4"/>
					<line class="st1" x1="571.2" y1="-149.2" x2="545.9" y2="6.6"/>
					<line class="st1" x1="477.4" y1="205.5" x2="477.7" y2="244.8"/>
					<line class="st1" x1="472.7" y1="-281.9" x2="476.2" y2="87.4"/>
				</g>
				<g>
					<line class="st1" x1="-21.3" y1="617.2" x2="287.7" y2="491.1"/>
					<line class="st1" x1="160.8" y1="511.1" x2="269.2" y2="477.5"/>
					<line class="st1" x1="154.3" y1="404.3" x2="297.8" y2="407.2"/>
					<line class="st1" x1="311.5" y1="437.9" x2="327.3" y2="435.4"/>
					<line class="st1" x1="-19.4" y1="489.6" x2="253.2" y2="447"/>
					<line class="st1" x1="2.4" y1="234.4" x2="249.9" y2="325.1"/>
					<line class="st1" x1="386.7" y1="305.6" x2="405.3" y2="325.7"/>
					<line class="st1" x1="-7.5" y1="-120.1" x2="329.2" y2="243.5"/>
				</g>
			</g>
		</g>
		<g>
			<path class="st2" d="M443.2,277.5c0,0-8.5-3.5-32.1-20.6C369.8,227,216,144.8,165,129.9c-69.4-20.3,35.7,74.6,68.1,90.9
				c27.6,13.9,115.7,58.9,130.7,61.9c13.2,2.6,63.1,0.6,71.4-1.3C442.5,279.7,448.9,279.5,443.2,277.5z"/>
			<path class="st3" d="M146.4,130.1c-0.7,0.9,143.8,74,154.3,77.5c9.7,3.2,28.7,10.3,41.8,7.5"/>
			<path class="st3" d="M370.9,231.2c0,0,1.4,7.1,4.6,9.8c3.1,2.6,26.9,20.4,35.6,25.5c7.9,4.7,34.6,12.2,34.6,12.2"/>
			<path class="st3" d="M441.9,280.1c-0.3,0.1-35.4-11.6-36.8-11.8C403.7,268,350.9,257,348,257c-3,0-14.1,2.7-14.1,2.7l-27.1-1.9"
				/>
			<path class="st3" d="M409.5,265.6c-0.6,0.3-3.9,0.8-5.9,2.3c-1.2-3.3-41-22.3-44.6-23.7c-3.7-1.5-40.8-18.3-51-24.6"/>
			<path class="st3" d="M373.9,239.2c0,0-46.4-19.6-50.7-21.6c-4.4-2-4.4-2-4.4-2l-0.2-2.5"/>
			<path class="st3" d="M167.6,167.5c0.7,0.7,99.5,39.8,118.3,45.8c16.6,5.3,20.9,6.6,27.9,5.5c6.6-1,5.1-3.2,5.1-3.2"/>
			<path class="st3" d="M229.2,218.7c1.3,0.7,38.6,11.4,64.9,15.2c21.9,3.2,59.5,16.2,59.5,16.2"/>
			<path class="st3" d="M348,257c0,0,8.9-8.3,7.1-14.5"/>
			<path class="st3" d="M328,267.9c-0.4-0.2,51.7,5,60.3,6.9c7.9,1.8,32.9,5.3,36.3,5.6c3.3,0.3,16.2-0.2,16.2-0.2
				s-36.1-5.3-40.7-7.1c-4.9-1.9-63.5-14.1-66.1-13.5"/>
		</g>
		<g>
			<path class="st2" d="M454.8,278.8c0,0,0.8-6.2-0.5-23.9c-2.6-33.4,4.3-178.2,14.5-228.6c14.6-71.9,26.8,61.4,24,90.8
				c-2.3,24-8.7,94.7-11.8,105.4c-2.7,9.4-18.4,44.6-21.9,50.6C456.1,278.3,454,282.9,454.8,278.8z"/>
			<path class="st4" d="M475.9,10.7c0.8,0-10,145.3-11.7,154.2c-1.5,8.2-4.1,24.2-9.9,33.9"/>
			<path class="st4" d="M453.6,222.8c0,0,3.3,1.8,3.7,4.4c0.4,2.5,1.9,21.4,1.8,28c-0.1,5.9-4.5,25.3-4.5,25.3"/>
			<path class="st4" d="M456.4,277.9c0.1-0.2,5-25.9,5.4-26.9c0.3-1.1,11.2-40.3,12.1-42.4c0.9-2.1,5.5-9.8,5.5-9.8l7.3-19.7"/>
			<path class="st4" d="M459.2,254c0.4-0.4,1.6-2.8,3-4.2c-1.3-1,1.7-31.9,2.1-34.7c0.4-3,3.8-33.2,3.9-42.2"/>
			<path class="st4" d="M456.9,225.8c0,0,4.8-37.9,5.1-41.5c0.4-3.7,0.4-3.7,0.4-3.7l-1.3-0.6"/>
			<path class="st4" d="M488.5,47.2c0.1,0.9-13.3,91.7-16.4,107.5c-2.7,13.8-3.4,17.3-6.3,22.5c-2.7,4.9-3.4,3.3-3.4,3.3"/>
			<path class="st4" d="M493,113.6c-0.1,1.2-6.9,31.6-13.4,51.8c-5.4,16.8-10.8,46.5-10.8,46.5"/>
			<path class="st4" d="M473.9,208.6c0,0-6.8,5.5-9.3,3.5"/>
			<path class="st4" d="M484.9,195.7c0-0.3-13.2,37.2-14.8,43.5c-1.5,5.7-7.4,23.8-8.3,26.2c-0.8,2.3-5,11.6-5,11.6
				s8.3-26.1,8.9-29.5c0.6-3.6,12.6-46.9,13.7-48.8"/>
		</g>
		<g>
			<g>
				<path class="st5" d="M479.9,340.8c-4.8,0-5.7-0.6-6.2-0.9l-4.5-2.8l4.2-3.2c0.5-0.4,11.6-8.6,20-12.4c3.4-1.5,9.6-4.2,16.2-6.9
					c8.1-3.4,19.1-8.1,20.6-9c0.9-0.5,1.7-0.8,2.7-0.8c1.4,0,2.8,0.7,3.6,1.9c2.4,3.3,0.8,10.5,0.4,11.7c-1.1,3.3-3.5,3.6-4.5,3.6
					c-1.1,0-2-0.4-2.7-0.7c-0.2-0.1-0.4-0.2-0.5-0.2c-3,1-15.7,7.7-27.1,14.4C494,340.3,483.9,340.8,479.9,340.8
					C479.9,340.8,479.9,340.8,479.9,340.8z"/>
				<path class="st6" d="M532.9,308.4c2,0,1.4,6.6,0.7,8.8c-0.3,0.9-0.7,1.2-1.1,1.2c-0.8,0-1.9-1-3.3-1c0,0,0,0,0,0
					c-2.2,0-18.7,9-28.8,14.9c-6.8,4-15.3,4.8-20.4,4.8c-2.5,0-4.1-0.2-4.3-0.3c0,0,11.2-8.3,19.3-12c8.1-3.7,34.4-14.4,37.2-16.2
					C532.4,308.5,532.7,308.4,532.9,308.4 M532.9,301.3c-1.5,0-3.1,0.5-4.5,1.3c-1.8,1-12.4,5.5-20.2,8.8c-6.6,2.8-12.9,5.4-16.3,7
					c-8.7,4-20.1,12.5-20.6,12.8l-8.5,6.4l9,5.5c1,0.6,2.3,1.4,8.1,1.4c5.3,0,15.4-0.8,24-5.8c9.8-5.7,21-11.8,25.3-13.6
					c0.8,0.3,1.9,0.6,3.2,0.6c2.9,0,6.4-1.6,7.9-6.1c0-0.1,2.9-9.6-0.9-14.9C537.9,302.5,535.5,301.3,532.9,301.3L532.9,301.3z"/>
			</g>
			<g>
				<path class="st5" d="M558.6,355.1c-0.5-2.5-1.9-9.5-3.2-12.3c-0.9-1.8-7.8-9.7-12-14.4c-4.4-5-6.9-7.9-7.8-9.2
					c-0.3-0.5-0.8-1.2-1.2-1.8c-2.5-3.5-4.6-6.6-3.1-9.5c0.4-0.7,1.5-2.4,4.1-2.4c3.4,0,6,2.9,9.4,6.6c2.1,2.3,4.4,4.8,6.8,6.5
					c7,5,15.8,11.7,17.9,15.5c2.5,4.6-2.5,17.5-4.1,21.7l-4.6,11.9L558.6,355.1z"/>
				<path class="st6" d="M535.5,309c3.1,0,8,8.1,14.1,12.4c6,4.3,15.1,11.2,16.8,14.3s-4.3,18.7-4.3,18.7s-1.7-9.4-3.5-13.2
					s-18.2-21.2-19.9-24S532.4,309.1,535.5,309C535.5,309,535.5,309,535.5,309 M535.5,301.8L535.5,301.8L535.5,301.8
					c-3.3,0-6,1.7-7.4,4.3c-2.5,4.9,0.6,9.3,3.3,13.2c0.4,0.6,0.9,1.2,1.1,1.7c0.9,1.5,3,3.9,8.1,9.7c3.6,4.1,10.3,11.7,11.5,13.7
					c0.9,2.1,2.3,8,2.9,11.3l4.6,25l9.2-23.7c7.3-18.7,5-22.8,3.9-24.8c-0.7-1.3-2.9-5.2-18.9-16.7c-2.1-1.5-4.3-3.9-6.3-6
					C543.7,305.4,540.4,301.8,535.5,301.8L535.5,301.8z"/>
			</g>
			<g>
				<path class="st5" d="M576.7,415.3c-2.1-2-3.3-4.9-3.9-7.7l-3.6,8.8l-1.8-13.4c-0.1-0.9-0.1-1.8,0.1-3l-2.1-6.3
					c-0.3-1.1-0.4-2.1-0.3-3.2c-0.7-0.5-1.2-1.2-1.4-2.1c-0.4-1.5,0.1-3.1,1.4-6.3c0-0.1,0.1-0.2,0.1-0.3c-0.4-0.8-1.3-2.2-2.1-3.4
					c-2-3-4.5-6.8-5.3-10.9c-0.7-3.3-1.2-10-1.4-16.3c-0.3-12.2,1-13.9,2.8-15c0.1-0.1,0.4-0.4,0.6-0.7c0.9-1.1,2.3-3,5.4-3.6
					l0.3-0.1l0.4,0c1.1,0,2.2,0.5,3,1.3c1.9,2,1.9,5.2,1.1,17c-0.3,5.1-0.9,13.7-0.2,15.5c0.5,1,1.5,3,2.7,5.2
					c6.5,11.9,11.7,22.3,9.9,28c-1.7,5.4,0,12.9,0.1,13l2.8,11.8L576.7,415.3z"/>
				<path class="st6" d="M566.2,335.5c2.8,0-1.6,26.7,0.6,31.7c2.2,5,14.4,24.5,12.5,30.7c-2,6.5,0,14.9,0,14.9
					c-4.7-4.4-3.1-15.9-4-15.9c0,0,0,0-0.1,0c-3.9,2.7-2.4,1.6-4.1,5.7c-0.4-2.8,2.5-11.3,1.6-14.3c0-0.1-0.1-0.2-0.2-0.2
					c-0.5,0-1.7,1.6-3.5,4.6c-0.8-2.5,2-7.1,1.7-8c0-0.1-0.1-0.1-0.1-0.1c-0.6,0-2.6,3.1-3.1,3.1c0,0-0.1,0-0.1-0.1
					c-0.2-0.9,1.6-4.9,1.7-5.4c0.4-2.7-6.2-8.9-7.5-15.3s-2.1-26.4-0.2-27.5S563.2,336,566.2,335.5
					C566.1,335.5,566.2,335.5,566.2,335.5 M566.2,328.3c-0.5,0-0.9,0-1.4,0.1c-4.5,0.8-6.6,3.6-7.7,5c0,0-0.1,0.1-0.1,0.1
					c-3.4,2.4-3.7,6.8-3.9,9.2c-0.2,2.8-0.2,6.3-0.1,8.6c0.1,5.5,0.6,12.9,1.4,17c1,4.8,3.6,8.8,5.8,12.1c0.3,0.5,0.7,1.1,1.1,1.7
					c-0.9,2.5-1.6,4.8-1,7.1c0.2,1,0.7,1.9,1.3,2.7c0,1,0.2,2,0.5,3l1.8,5.5c-0.1,1.1-0.1,2.1,0,3.1l3.5,26.7l5.6-13.6
					c0.4,0.5,0.8,0.9,1.3,1.4l17.7,16.8l-5.8-23.7c-0.4-1.7-1.3-7.4-0.1-11c2-6.5-1.8-15.5-10.1-30.8c-1-1.9-2-3.7-2.5-4.7
					c-0.4-2.2,0.1-9.6,0.4-14.1c0.8-11.6,1.1-16.4-2.1-19.7C570.3,329.2,568.3,328.3,566.2,328.3L566.2,328.3z"/>
			</g>
		</g>
		<g>
			<path class="st7" d="M466.5,337.5c-12,3.7-32.1,14-18,40.9c11.4,21.9,28.9,25.2,44.1,28.7s5.4-39.3,1.3-51.2
				C489.3,343,481.5,332.9,466.5,337.5z"/>
			<path class="st8" d="M534.3,457.3c0,0-44.7-49.1-44.9-54.3s8.5-13.8,11.4-4.7C503.5,407.4,534.3,457.3,534.3,457.3z"/>
			<path class="st9" d="M480.2,400.1c4.6,0.6,6.7-5.7,3.5-8.5c1.3-1.5,1.8-1.4,3.9-2.6c0.8-0.4,3.1-1.6,3.8-2
				c0.9,3.7,6.2,2.4,6.3-0.6c1.4,0.7,1.2,2.9,1.6,3.9c1.2,3,0.1,7.5-1.6,8c-1.7,0.5-3.5-5.6-5.6-4.5c-2,1-3.7-2.2-2.9,0
				c0.8,2.2-0.6,3.6-1.7,4.5c-1.1,1,2.7,3,3.8,4C492.5,403.3,481.8,406,480.2,400.1z"/>
			<path class="st9" d="M471.5,392c4.6,0.6,9.3-4.3,6-7.1c1.3-1.5,2.6-1.9,4.7-3.1c0.8-0.4,2.3-1.2,3-1.5c0.9,3.7,6.2,2.4,6.3-0.6
				c1.4,0.7,2.7,1.5,3.1,2.5c1.2,3-2.6,1.8-8.7,4.8c-4.5,2.2-8,7.9-9.1,8.9S473.1,397.8,471.5,392z"/>
			<path class="st10" d="M463.3,383.8c5.4,1.5,11.8-3.7,8.4-7.5c1.9-1.6,3.4-1.8,6.2-2.9c1-0.4,3-1.1,3.8-1.3c0.5,4.6,7,3.9,7.7,0.3
				c1.5,1.1,3,2.2,3.3,3.5c1,3.8-3.4,1.8-11.2,4.4c-5.7,1.9-10.9,8.2-12.4,9.1C467.7,390.4,464.2,391.2,463.3,383.8z"/>
			<path class="st11" d="M454.5,373.9c6.1,2.3,14-3.1,10.4-7.8c2.3-1.6,4.1-1.8,7.4-2.8c1.2-0.4,3.5-0.9,4.6-1.1
				c0.1,5.3,7.7,5.2,8.8,1.1c1.7,1.4,3.2,2.8,3.5,4.4c0.8,4.5-4.1,1.7-13.4,3.9c-6.8,1.6-13.4,8.3-15.1,9.3S454.9,382.5,454.5,373.9
				z"/>
			<path class="st11" d="M446,359.1c0.1,4.8-0.1,10.3,2.4,13c2.5,2.7,7.1-4.8,12.1-8.8c5-4,18.9-7.8,25.2-5.3s9.6-1,3.7-8.6
				c-6-7.6-11.4-10.3-24-6.5C452.7,346.7,445.9,353.4,446,359.1z"/>
		</g>
		<g>
			<g>
				<path class="st5" d="M479.1,348.4c-1-0.1-4.2-0.7-5.4-3.5c-0.4-1-0.9-3.2,1.1-5.6c2.8-3.6,15.7-12.9,20.1-15.6
					c4-2.4,9.8-4.7,13.3-6c0.8-0.3,1.5-0.6,2-0.8c0.7-0.3,1.4-0.4,2.1-0.4c2.2,0,4.1,1.4,4.9,3.7c1,2.9,0.1,6.3-2.3,8.3
					c-2.5,2.1-29,18.4-34.4,19.9l-0.7,0.2L479.1,348.4z"/>
				<path class="st6" d="M512.3,320c2,0,2.5,3.8,0.4,5.6c-2.4,2-28.4,17.9-33.1,19.3c0,0-4.2-0.5-1.9-3.4
					c2.3-2.9,14.5-11.9,19.1-14.7s12.3-5.5,14.8-6.6C511.8,320,512,320,512.3,320 M512.3,312.8c-1.2,0-2.3,0.2-3.5,0.7
					c-0.5,0.2-1.2,0.5-2,0.8c-3.6,1.4-9.6,3.7-13.9,6.3c-3.8,2.3-17.7,12.1-21,16.4c-3.2,4.1-2.1,7.8-1.5,9.2
					c1.9,4.6,6.9,5.6,8.3,5.7l1.4,0.2l1.4-0.4c6.3-1.8,33.3-18.6,35.7-20.6c3.5-2.9,4.9-7.9,3.4-12.2
					C519.3,315.2,516,312.8,512.3,312.8L512.3,312.8z"/>
			</g>
			<g>
				<path class="st5" d="M549,412.8c-1.9-0.4-3.2-2-3.3-4c0-0.1,0-0.1,0-0.2l-1.7,1.1l-1.5-8.9c-1.7-3.3-6-11.5-7-13.7
					c-1.1-1.3-6.2-5.8-8.8-8c-1.8-1.6-3.3-2.9-3.9-3.5c-3.3-3.2-4.2-5.1-3.4-7.2c0.6-1.4,1.9-2.3,3.4-2.3c0.9,0,1.7,0.4,2.2,0.6
					c2.4,1.3,17.2,14.2,17.3,14.3c3.5,3.1,11.9,18.1,14.5,23c1.8,2.5,3,6,3.6,7.6c0.1,0.2,0.1,0.4,0.2,0.6c0.6,1.5,0.7,3.5-3.9,9
					l-4.6,5.5L549,412.8z"/>
				<path class="st6" d="M522.9,369.5c0.1,0,0.3,0.1,0.5,0.2c1.5,0.8,13.2,10.9,16.6,13.9c3.4,3,13.9,22.2,13.9,22.2
					c1.8,2.5,3.1,6.5,3.4,7.6c0.4,1-3.3,5.4-3.3,5.4l-2.3-10c0,0-1.1,0.6-1.8,0.6c-0.4,0-0.6-0.1-0.6-0.6c0-1.3-0.2-6.5-0.2-6.5
					l-2.4,1.5l-0.7-4.2c0,0-6.8-13.1-7.3-14.3s-11.4-10.5-13.3-12.3C523.7,371.3,522.3,369.5,522.9,369.5 M522.9,362.4L522.9,362.4
					L522.9,362.4c-3,0-5.7,1.8-6.8,4.6c-2,5.1,2,9,4.2,11.1c0.7,0.7,1.9,1.8,4.1,3.6c2.2,2,6.7,5.9,8.1,7.4c1.2,2.4,4,7.9,6.5,12.8
					l0.5,3l1.7,10.7l2.7-1.7c0.5,0.6,1.2,1.1,1.9,1.5l1.1,5l3.2,14l9.3-11c3.8-4.5,6.1-8.4,4.5-12.6c0-0.1-0.1-0.3-0.2-0.5
					c-0.6-1.8-1.9-5.4-3.9-8.3c-4.2-7.6-11.5-20.5-15.2-23.8c-0.1-0.1-15-13.2-18-14.8C525.5,362.7,524.2,362.4,522.9,362.4
					L522.9,362.4z"/>
			</g>
			<g>
				<path class="st5" d="M521.4,377.8c-0.8,0-1.6-0.2-2.4-0.5c-5.6-2.2-5.6-10.4-5.1-15.4c-0.1-0.9-0.1-2.1-0.2-3.5
					c-0.5-7.9-1-15.2-1-18c0-3.3-1.4-11-2.2-12.5c-1.1-2.2-1-4.9,0.3-7c1.1-1.9,3-3,5.1-3c1.9,0,5.4,1,7,7.4
					c0.9,3.5,6.8,29.9,6.3,36.6l-0.1,1C528.7,369.5,528.1,377.8,521.4,377.8z"/>
				<path class="st6" d="M515.8,322.4c0.8,0,1.9,1,2.6,3.9c1.7,6.9,6.6,29.9,6.2,35.2c-0.3,4.9-0.6,11.7-3.2,11.7
					c-0.2,0-0.4,0-0.7-0.1c-3.3-1.3-2.2-11-2.2-11c-0.3-4.3-1.3-17.9-1.2-21.7c0-3.7-1.5-12.2-2.8-14.7
					C513.8,324.3,514.6,322.4,515.8,322.4 M515.8,313.2L515.8,313.2L515.8,313.2c-3.7,0-7,1.9-9,5.2c-2.1,3.4-2.3,7.8-0.5,11.4
					c0.7,1.7,1.8,8.1,1.8,10.6c0,3,0.5,10.4,1,18.4c0.1,1.2,0.2,2.3,0.2,3.1c-0.6,6.4-0.2,16.6,8.1,19.8c1.3,0.5,2.7,0.8,4,0.8
					c2.1,0,9.2-0.8,11.4-10.8c0.6-2.7,0.8-5.8,0.9-8.4l0.1-1c0.5-8.2-6.4-37.7-6.5-38c-0.6-2.6-1.5-4.6-2.7-6.3
					C522.4,314.9,519.2,313.2,515.8,313.2L515.8,313.2z"/>
			</g>
		</g>
		<g>
			<g>
				<path class="st5" d="M396.8,361.8c-0.4,0-0.7,0-0.9,0c-3.9-0.4-6.5-3.9-6.6-6.8c-0.1-2.7,1.6-4.9,4.3-5.4
					c2.5-0.5,32.3-5.7,38.2-5.9c0.6,0,1.2,0,2,0c5,0,19.2,0.6,23.4,2c3,1,3.8,3,4,4.1c0.6,3-1.8,5.3-2.6,5.9l-0.6,0.5l-0.7,0.2
					C452,358,402.7,361.8,396.8,361.8z"/>
				<path class="st6" d="M433.6,347.2c6.4,0,19.1,0.8,22.2,1.8c3.5,1.2,0.3,3.9,0.3,3.9c-4.5,1.4-52.9,5.3-59.3,5.3
					c-0.3,0-0.4,0-0.6,0c-3.1-0.3-4.8-4.6-2-5.1c2.7-0.5,32.1-5.6,37.6-5.8C432.3,347.2,433,347.2,433.6,347.2 M433.6,340
					c-0.8,0-1.5,0-2.1,0c-6.4,0.2-37.2,5.6-38.7,5.9c-4.4,0.9-7.4,4.6-7.2,9.1c0.2,5.2,4.5,9.7,9.8,10.3c0.4,0,0.8,0.1,1.3,0.1
					c5.6,0,55.4-3.7,61.4-5.6l1.4-0.4l1.1-0.9c1.1-0.9,4.7-4.4,3.8-9.3c-0.3-1.5-1.5-5.2-6.4-6.9C453.3,340.6,438.3,340,433.6,340
					L433.6,340z"/>
			</g>
			<g>
				<path class="st5" d="M452.5,444.3c-1.5,0-3.3-0.2-4.5-1.7c-0.1-0.1-0.2-0.3-0.4-0.5c-1.1-1.4-3.5-4.1-4.8-6.9
					c-2.8-4.8-11.6-19.6-12.5-24.2c0-0.2-3.7-19.5-3.6-22.2c0.1-3.2,2.5-4,3.8-4c3.2,0,4.2,3.3,5,6.6c0.2,0.9,0.6,2.8,1,5.2
					c0.6,3.3,1.9,10,2.5,11.6c1.4,2,6.3,9.8,8.2,13l7,5.8l-1.8,0.9c0.1,0,0.1,0.1,0.2,0.1c1.2,0.8,2,2.1,2,3.5
					c0,0.5-0.1,0.9-0.2,1.4l10.3,9.7l-7.1,1.2C457.3,443.8,454.6,444.3,452.5,444.3C452.5,444.3,452.5,444.3,452.5,444.3z"/>
				<path class="st6" d="M430.5,388.4c0.3,0,1,1.9,1.5,3.9c0.6,2.6,3.1,16.7,3.9,17.8c0.8,1.1,8.6,13.6,8.6,13.6l3.3,2.7l-2.5,1.3
					c0,0,4.4,2.8,5.5,3.5c1.1,0.7-1.2,2.1-1.2,2.1l7.5,7.1c0,0-2.7,0.5-4.6,0.5c-0.8,0-1.5-0.1-1.7-0.4c-0.7-0.9-3.6-4-4.8-6.8
					c0,0-11.3-18.8-12.1-23.2c-0.9-4.4-3.6-19.6-3.5-21.4C430.3,388.6,430.4,388.4,430.5,388.4 M430.5,381.2c-4.6,0-7.2,3.9-7.4,7.5
					c-0.1,3.4,3.6,22.8,3.7,23c1,4.8,8.3,17.7,12.8,25.2c1.5,3.2,4,6.1,5.2,7.6c0.1,0.2,0.3,0.3,0.3,0.4c2.4,3,6.1,3,7.3,3
					c2.4,0,5.2-0.5,5.8-0.6l14.2-2.4L462,435l-3.7-3.5c0,0,0,0,0,0c0-0.8-0.1-1.6-0.4-2.3l2.8-1.5l-8.3-6.9l-2.4-2
					c-2.9-4.6-6.2-9.8-7.7-12.1c-0.6-2-1.7-7.8-2.2-10.8c-0.5-2.8-0.9-4.4-1.1-5.3C438.3,387.8,436.7,381.2,430.5,381.2L430.5,381.2
					z"/>
			</g>
			<g>
				<path class="st5" d="M432.6,394.4c-3.1,0-6.6-1.7-11.2-4l-0.9-0.4c-6-3-25.7-21.5-28.3-24c-4.1-3.9-4-7.1-3.2-9
					c0.9-2.2,3.1-3.6,5.6-3.6c2.5,0,4.8,1.3,6.1,3.3c1,1.5,6.8,6.6,9.7,8.3c2.5,1.4,8.5,5.5,15,10c1.2,0.8,2.2,1.5,2.9,2
					c4.6,2.1,11.6,6.3,10.7,12.2C438.5,392.3,436,394.4,432.6,394.4C432.6,394.4,432.6,394.4,432.6,394.4z"/>
				<path class="st6" d="M394.6,357.8c0.8,0,1.7,0.4,2.2,1.2c1.5,2.3,8,7.9,11.2,9.8s14.5,9.7,18,12.1c0,0,9,4,8.4,7.5
					c-0.2,1-0.9,1.4-1.9,1.4c-2.4,0-6.7-2.3-10-3.9c-4.7-2.4-22.1-18.3-27.2-23.2C392.1,359.4,393.1,357.8,394.6,357.8 M394.6,348.6
					c-4.4,0-8.3,2.5-9.9,6.5c-1.1,2.7-2,8,4.2,14.1c0.2,0.2,22.1,21.2,29.5,24.8l0.9,0.4c5.2,2.6,9.2,4.5,13.3,4.5
					c5.6,0,10.1-3.8,11-9.1c1.1-6.7-3.7-11.4-8-14.2c-1.9-1.3-3.8-2.2-4.9-2.8c-0.7-0.5-1.6-1.1-2.6-1.8
					c-6.6-4.5-12.7-8.7-15.3-10.2c-2.2-1.3-7-5.5-8.2-6.9C402.4,350.7,398.6,348.6,394.6,348.6L394.6,348.6z"/>
			</g>
		</g>
		<g>
			<g>
				<path class="st5" d="M456.1,349.7c-4,0-14-0.5-22.2-5.3c-11.4-6.7-24.2-13.5-27.1-14.4c-0.1,0.1-0.4,0.2-0.5,0.2
					c-0.7,0.3-1.6,0.7-2.7,0.7c-1,0-3.4-0.4-4.5-3.6c-0.4-1.2-2-8.3,0.4-11.7c0.9-1.2,2.2-1.9,3.6-1.9c0.9,0,1.8,0.3,2.7,0.8
					c1.5,0.9,12.5,5.6,20.6,9c6.6,2.8,12.9,5.4,16.2,6.9c8.4,3.8,19.5,12.1,20,12.4l4.2,3.2l-4.5,2.8
					C461.8,349.2,460.8,349.7,456.1,349.7z"/>
				<path class="st6" d="M403.1,317.3c0.2,0,0.5,0.1,0.7,0.3c2.8,1.8,29.1,12.5,37.2,16.2c8.1,3.7,19.3,12,19.3,12
					c-0.2,0.1-1.8,0.3-4.3,0.3c-5.1,0-13.6-0.8-20.4-4.8c-10.1-5.9-26.6-14.9-28.8-14.9c0,0,0,0,0,0c-1.4,0-2.5,1-3.3,1
					c-0.4,0-0.8-0.3-1.1-1.2C401.7,323.9,401.1,317.3,403.1,317.3 M403.1,310.1L403.1,310.1c-2.6,0-5,1.2-6.5,3.4
					c-3.8,5.3-1,14.8-0.9,14.9c1.5,4.5,5.1,6.1,7.9,6.1c1.3,0,2.4-0.3,3.2-0.6c4.3,1.9,15.5,7.9,25.3,13.6c8.6,5,18.7,5.8,24,5.8
					c5.8,0,7.1-0.8,8.1-1.4l9-5.5l-8.5-6.4c-0.5-0.4-11.9-8.9-20.6-12.8c-3.4-1.5-9.7-4.2-16.3-7c-7.7-3.3-18.4-7.7-20.2-8.8
					C406.2,310.6,404.6,310.1,403.1,310.1L403.1,310.1z"/>
			</g>
			<g>
				<path class="st5" d="M370.5,364.7c-6.6-17.2-4.7-20.6-4.1-21.7c2.1-3.8,10.9-10.5,17.9-15.5c2.4-1.7,4.8-4.3,6.8-6.5
					c3.4-3.7,6-6.6,9.3-6.6c2.7,0,3.8,1.7,4.2,2.4c1.5,2.9-0.6,6-3.1,9.5c-0.5,0.7-0.9,1.3-1.2,1.8c-0.8,1.3-3.4,4.2-7.8,9.2
					c-4.2,4.7-11.1,12.6-12,14.4c-1.3,2.8-2.8,9.8-3.2,12.3l-2.3,12.5L370.5,364.7z"/>
				<path class="st6" d="M400.5,317.9C400.5,317.9,400.5,317.9,400.5,317.9c3.2,0-1.4,5.4-3.1,8.2s-18.1,20.2-19.9,24
					c-1.8,3.8-3.5,13.2-3.5,13.2s-6-15.6-4.3-18.7s10.8-10,16.8-14.3C392.4,326.1,397.3,317.9,400.5,317.9 M400.5,310.7
					c-4.9,0-8.2,3.6-12,7.7c-2,2.1-4.2,4.6-6.3,6c-16,11.4-18.2,15.4-18.9,16.7c-1.1,2-3.4,6,3.9,24.8l9.2,23.8l4.6-25.1
					c0.6-3.4,2-9.2,2.9-11.3c1.2-2,7.9-9.6,11.5-13.7c5.1-5.8,7.2-8.2,8.1-9.7c0.3-0.4,0.7-1,1.1-1.7c2.7-3.9,5.8-8.4,3.3-13.2
					c-1.4-2.7-4.1-4.3-7.3-4.3L400.5,310.7L400.5,310.7L400.5,310.7z"/>
			</g>
			<g>
				<path class="st5" d="M353.3,420.7c0-0.1,1.8-7.6,0.1-13c-1.8-5.7,3.4-16.1,9.9-28c1.2-2.3,2.3-4.2,2.7-5.2
					c0.7-1.8,0.1-10.4-0.2-15.5c-0.8-11.8-0.8-15,1.1-17c0.8-0.8,1.8-1.3,3-1.3h0.3l0.4,0.1c3.2,0.6,4.6,2.5,5.4,3.6
					c0.2,0.3,0.5,0.7,0.6,0.7c1.8,1.1,3.1,2.8,2.8,15c-0.1,6.3-0.7,13-1.4,16.3c-0.8,4.1-3.3,7.8-5.3,10.8c-0.7,1.1-1.7,2.6-2.1,3.4
					c0,0.1,0.1,0.2,0.1,0.3c1.2,3.2,1.7,4.8,1.4,6.3c-0.2,0.9-0.7,1.6-1.4,2.1c0.1,1.1,0.1,2.2-0.3,3.2l-2.1,6.3
					c0.2,1.2,0.2,2.1,0.1,3l-1.8,13.4l-3.6-8.8c-0.6,2.9-1.8,5.7-3.9,7.7l-8.9,8.4L353.3,420.7z"/>
				<path class="st6" d="M369.8,344.3C369.8,344.3,369.9,344.3,369.8,344.3c3,0.5,3.1,2.8,5,3.9c1.9,1.1,1,21.2-0.2,27.5
					s-7.9,12.6-7.5,15.3c0.1,0.5,1.9,4.5,1.7,5.4c0,0.1,0,0.1-0.1,0.1c-0.5,0-2.5-3.1-3.1-3.1c-0.1,0-0.1,0-0.1,0.1
					c-0.3,0.8,2.5,5.4,1.7,8c-1.8-3-3-4.6-3.5-4.6c-0.1,0-0.2,0.1-0.2,0.2c-1,3,1.9,11.5,1.6,14.3c-1.7-4.1-0.2-3-4.1-5.7
					c0,0-0.1,0-0.1,0c-0.8,0,0.7,11.5-4,15.9c0,0,2-8.4,0-14.9c-2-6.2,10.2-25.7,12.5-30.7C371.4,371.1,367,344.3,369.8,344.3
					 M369.8,337.2c-2.1,0-4.1,0.9-5.6,2.4c-3.1,3.3-2.8,8.1-2.1,19.7c0.3,4.5,0.8,11.9,0.4,14.1c-0.5,1-1.5,2.8-2.5,4.7
					c-2.1,3.9-5.1,9.3-7.2,14.3c-3.3,7.6-4.2,12.5-2.9,16.5c1.2,3.7,0.3,9.4-0.1,11.1l-5.6,23.5l17.5-16.6c0.5-0.4,0.9-0.9,1.3-1.4
					l5.6,13.6l3.5-26.7c0.1-1,0.1-2,0-3.1l1.8-5.5c0.3-1,0.5-2,0.5-3c0.6-0.8,1-1.7,1.3-2.7c0.6-2.4-0.1-4.6-1-7.1
					c0.3-0.5,0.7-1.2,1.1-1.7c2.2-3.3,4.8-7.4,5.8-12.1c0.8-4.1,1.3-11.5,1.4-17c0.1-2.4,0.1-5.8-0.1-8.6c-0.2-2.4-0.5-6.8-3.9-9.2
					c0,0-0.1-0.1-0.1-0.1c-1-1.3-3.1-4.2-7.7-5C370.7,337.2,370.3,337.2,369.8,337.2L369.8,337.2z"/>
			</g>
		</g>
		<g>
			<path class="st7" d="M501,309c1.1,5.5-11,13-15.9,18.8c-4.9,5.8-17.1,18-24.1,18.8c-7,0.8-18.9-3.8-21.6-10.8
				c-2.7-7-4.6-46.7,2-58.1s28.8-23,42.6-16.8c13.8,6.2,26.3,18.8,26.6,28.6C510.9,299.4,501,309,501,309z"/>
			<path class="st9" d="M465.8,286.7c0-0.8-4-5.4-3.6-6.6c0.4-1.2,0.1-5.6,2.3-5c2.1,0.6,5.3,1.1,5.3,1.1s-1.2-4.6,0-6.9
				c1.2-2.3,6.2-5.1,7.6-5.7s5.9-2.5,5.9-2.5l5.4,1.7l2.6,3.1l-12.8,8L465.8,286.7z"/>
			<path class="st9" d="M450.8,300.8c2.3,1.5,4.4-0.9,4.6-3.5c0.2-2.7,3-4.5,1.8-6.4c-1.2-1.9-2.8-2.8-4.2-2.6
				c-1.4,0.2-3.7,0.5-4.2,1.7s-1.2,2.5-1.1,4.2S448,298.9,450.8,300.8z"/>
			<path class="st9" d="M444.5,280.1c1.6,0.4,5.9,1.9,7.1,0c1.2-1.9,1.4-3.1-1.3-5c-2.6-1.9-1.4-3.1-4.4-0.4
				S444.5,280.1,444.5,280.1z"/>
			<path class="st9" d="M462.1,266.3c2-0.7,5.1,0,6.6-1.2c1.4-1.2,1.6-3,0-3.9c-1.6-0.9-4.1-1.6-5.3,0S462.1,266.3,462.1,266.3z"/>
			<path class="st12" d="M472.4,318.9c-1.6,3.7-3.5,5.9-8.4,6.1c-4.9,0.3-9.7-2.6-11.6-6.7s-6.5-18.2-6.8-20.6
				c-0.3-2.4,4.9,4.6,10.8,6.2S472.4,318.9,472.4,318.9z"/>
			<path class="st9" d="M452.7,318.4c2-0.5,1.9-3.8-0.6-7.2c-2.5-3.4-5.3-6.8-4.2-4.2C449.1,309.5,452.7,318.4,452.7,318.4z"/>
		</g>
		<g>
			<path class="st13" d="M550.6,303.5c0.8-2.6,1.5-4.4,1.9-5.1c2-2.9,0.1-10.5-4.7-22.2c-8.8-21.5-9.3-25-15.6-22.9
				c-6.2,2.1,1.1,8.4-1,19.2c-2.1,10.8-9.8,27-15.5,32.3c-6.4,5.9-6,9.4-6,9.4s17.9-14,27.6-42.3c2.8,10.2,8.2,26.6,8.2,26.6
				s-2.2,14.8-4.1,21.4c-1.9,6.6-7.5,20.5-8.7,22.3c-3.8-4.2-8.1-4.2-8.1-4.2s1.4,6.5,2.6,8.7s4.5,0.4,6.7-0.2s6.2-3.7,8.5-12.4
				C544.3,327.2,548.1,311.7,550.6,303.5"/>
			<path class="st14" d="M537,275.3c1.1-1.1-5.6-15.5-7-17.2c0.7,8.6,0.2,20.9-4.3,29s-8.6,15.5-12.7,18.5c-4.1,3-4.1,9.7-4.1,9.7
				s4.2-2.7,9.6-8.3C528.9,296.3,537,275.3,537,275.3z"/>
		</g>
		<g>
			<path class="st9" d="M504.6,315c4.6-2.3,13.7-19.8,12.6-30.5c-1-10.6-5.7-29.9-31.2-18c-15.4,4-26.2,12.2-17.7,29.8
				C477,313.9,500.7,316.9,504.6,315z"/>
			<path class="st15" d="M493.4,312c0,0-3.2-1.3-5.4-4.1s-3.9-5.8-4.8-6.7c2.8-5.4-1.7-4.7,8.4-9.2c16.1-7.1,12.8-1.9,16.7-0.5
				c0.5,3.8,1.4,8.4,0.4,12.4c-1,4-2.9,7.1-2.9,7.1"/>
			<g>
				<path class="st7" d="M510.9,302.1c3.6,0.6,6.4-4,8.2-15.1c1.4-8.4-4.9-14.9-4.8-14.4c0.1,0.5-4.6,6.3-5.6,15.4
					C507.8,297.2,509.8,300.2,510.9,302.1z"/>
				
					<radialGradient id="SVGID_3_" cx="4277.4585" cy="1906.3898" r="10.5979" gradientTransform="matrix(0.3319 7.274546e-02 -0.2089 0.9533 -509.4145 -1841.7114)" gradientUnits="userSpaceOnUse">
					<stop  offset="0" style="stop-color:#FFFFFF"/>
					<stop  offset="1" style="stop-color:#000000;stop-opacity:0"/>
				</radialGradient>
				<path class="st16" d="M513.9,287.2c-0.9,3.6-2.5,6.3-3.7,6s-1.3-3.4-0.4-7c0.9-3.6,2.5-6.3,3.7-6
					C514.6,280.5,514.8,283.7,513.9,287.2z"/>
			</g>
			<g>
				<path class="st7" d="M488.7,312.3c-2.4,2.7-7.5,0.8-15.7-6.8c-6.2-5.8-5.3-14.8-5.1-14.3s7.5,2.1,13.9,8.7
					C488.1,306.5,488.4,310.2,488.7,312.3z"/>
				
					<radialGradient id="SVGID_4_" cx="-629.1807" cy="4317.3027" r="10.5979" gradientTransform="matrix(-0.2165 0.2618 0.7521 0.6219 -2904.6196 -2219.2969)" gradientUnits="userSpaceOnUse">
					<stop  offset="0" style="stop-color:#FFFFFF"/>
					<stop  offset="1" style="stop-color:#000000;stop-opacity:0"/>
				</radialGradient>
				<path class="st17" d="M477.2,302.5c2.9,2.3,5.9,3.4,6.6,2.4s-1.1-3.5-4-5.8c-2.9-2.3-5.9-3.4-6.6-2.4
					C472.5,297.6,474.3,300.2,477.2,302.5z"/>
			</g>
			<g>
				<path class="st18" d="M508.5,318.1c-2.1,1.3-9.3,0.9-10.8-0.1s-8.2-3.6-8.3-4.3c0-0.6,0.3-1.6,0.5-2.1c0.2-0.5,0.6-1.5,1.4-1.3
					c0.7,0.2,3.9,1.5,5.2,1.5s3.5,0.7,3.9,1.1c0.4,0.4,1,1.4,1.4,2.3S508.5,318.1,508.5,318.1z"/>
				<path class="st19" d="M499.9,313.2c0.7,0.1,1.3,1.2,1.4,1.9s1.1,1.2,2.2,1.8c1.1,0.6,4.4,1.5,4.4,1.5s-5-0.8-5.6-0.9
					c-0.6-0.2-6.6-2.3-7.8-2.8c-1.2-0.6-4.2-1.7-4.3-2.4c0-0.6-0.3-1.4,0.3-1.6C491.2,310.4,499.9,313.2,499.9,313.2z"/>
			</g>
			<path class="st7" d="M485.8,294.9c0,0,8.1-4.1,10.1-4.8c2-0.7,6.1-2.2,7.5-1.9c1.4,0.3,1.4,0.3,1.4,0.3s-0.8-3.7-1.1-4.8
				c-0.3-1.1-1.1-9.4-2.7-8.6c-1.6,0.7-11.5,4.1-12.7,5.1c-1.3,1-5.9,3.1-6,3s-3.9,1.2-3.4,1.6c0.6,0.5,4,6.5,4.5,7.4
				C483.8,293.1,485.8,294.9,485.8,294.9z"/>
			<path class="st7" d="M467.4,294.1c0,0,1.8-2.9,4.5-1.8c0,0-7.9-6.7,9.3-15c17.2-8.3,25.2-9.1,31.1-1.6c2.1-3.1,2.1-3.1,2.1-3.1
				s-4-10.5-12.3-9.7c-8.3,0.8-16,3.7-16,3.7s-14.9,2.6-18.6,11S467.4,294.1,467.4,294.1z"/>
			<path class="st9" d="M499.6,287c1.3,0.6,7.8-11.9,20.8-20.5c8-5.3,40.9-17.3,50.4-20.2c12.4-3.8,7.3-8.8,1.6-7.2
				c-5.2,1.5-25.1,4.4-52.5,20.7c-2,1.2-17.3,14.8-18.2,18.7C500.9,282.1,498.1,286.3,499.6,287z"/>
			<path class="st9" d="M487,290.8c-0.8,1.2-15.1-13.2-20.4-15.1c-5.3-1.9-17.9-2.6-27.1,0.5c-6,2-12.3,1.3-18-0.3
				c-9.6-2.6-5.8-6-2.8-6.1c3.6-0.2,7.5,2.8,20.4,1c14.6-2.1,20.7-1.6,25.8-0.6c2.3,0.5,8,3.9,11.1,6.5
				C479.7,279.7,487.9,289.3,487,290.8z"/>
			<path class="st20" d="M489.2,312.6c-0.5,0.9-2.8,3.2-8.9-0.4s-14.3-9.9-12.5-21c1.9,0.9,4,1.8,4,1.8s-1.6,3.7,1.8,9.9
				C477.1,309.1,484.8,314.9,489.2,312.6z"/>
			<path class="st20" d="M489.4,311.6c-0.1,0.2-1.6,2.4,0.1,3.2c1.8,0.8,6.5,2.7,6.9,3.1s2,1.4,3.9,1.5c1.8,0.1,6.4,0.8,9.7-1.3
				c-3.8,1.3-9.8,0.7-11.3,0.1c-1.4-0.6-1.2-1.5-3.7-2.6c-2.5-1.1-4.7-1.6-5-2.3C489.7,312.6,489.7,311,489.4,311.6z"/>
			<g>
				<path class="st18" d="M504.9,321.8c2.3-0.9,6.3-6.9,6.4-8.7s2.1-8.8,1.6-9.2c-0.5-0.4-1.4-0.7-2-0.9c-0.5-0.2-1.6-0.4-1.8,0.4
					c-0.3,0.7-1.2,4-1.9,5c-0.7,1-1.6,3.2-1.5,3.8s0.5,1.7,1,2.5S504.9,321.8,504.9,321.8z"/>
				<path class="st19" d="M506.1,311.6c-0.4,0.6,0.1,1.7,0.6,2.3c0.5,0.6,0.2,1.6,0,2.9c-0.2,1.3-1.5,4.3-1.5,4.3s2.5-4.4,2.7-4.9
					c0.2-0.5,2.4-6.6,2.7-7.9c0.3-1.3,1.3-4.4,0.8-4.8c-0.5-0.4-0.9-1.1-1.5-0.8C509.3,303.1,506.1,311.6,506.1,311.6z"/>
			</g>
		</g>
		<path class="st20" d="M510.5,302.5c0.9,0.4,4.2,0.9,6.9-5.6c2.8-6.5,5.8-16.4-2.3-24.3c-1,1.8-2.2,3.8-2.2,3.8s3.5,2.1,4.4,9.1
			C518.2,292.5,515.5,301.7,510.5,302.5z"/>
		<g>
			<g>
				<g>
					<path class="st5" d="M498.8,364.2c-3,0-6.4-0.7-10.1-2c-1.7-0.6-3.8-1.4-6.3-2.3c-8-3-24.8-9.1-27.5-9.3c0,0,0,0,0,0
						c-4.8,0-10.2-5.2-18.6-18c-1.5-2.2-2.8-4.2-4-6c-4.9-7.4-7.6-11.4-8.7-14.6c-1.8-5.3,0.8-8.1,3.4-10c1.5-1.1,3-1.6,4.5-1.6
						c3.2,0,5.3,2.4,7.4,4.7c2,2.3,4.3,4.9,8.2,6.6c7.3,3.2,19.7,5.7,28.2,5.7c0,0,0,0,0,0c2,0,3.7-0.1,5-0.4
						c2.5-0.6,4.7-0.8,6.8-0.8c4.8,0,7,1.6,7.6,2.1l4.8,4.2l-6.1,1.9c-0.4,0.1-9.3,2.9-23.2,2.9c0,0,0,0,0,0c-6.3,0-12.7-0.6-19-1.7
						c4.4,5.6,8.8,11.2,10.2,13.1c2.9,1.4,13.4,6.4,18.8,8.2c4.6,1.5,13.1,3.5,18.2,4.6c0.2-3.9,1.8-6.4,2.1-6.8l2.5-3.8l3.1,3.3
						c0.8,0.9,5,5.3,6.3,7.9c2.2,4.4-2,7.6-3.8,9c-0.4,0.3-0.7,0.5-1,0.8C506.3,362.5,503.6,364.2,498.8,364.2z"/>
					<path class="st6" d="M431.4,303.8c3.5,0,5.7,7.3,14.1,11c8,3.5,20.9,6,29.7,6c2.2,0,4.2-0.2,5.8-0.5c2.4-0.6,4.4-0.8,6-0.8
						c3.8,0,5.2,1.2,5.2,1.2s-8.6,2.7-22.1,2.7c-8,0-17.7-0.9-28.4-3.9c6.8,8.1,17.3,21.8,17.3,21.8s13.5,6.5,20,8.7
						c6.6,2.2,21.1,5.4,23.3,5.4c-1.3-5.5,1.1-9.1,1.1-9.1s4.6,4.8,5.7,7c1.1,2.2-2.2,3.9-3.9,5.5c-1,0.9-3,1.8-6.2,1.8
						c-2.3,0-5.3-0.5-8.9-1.8c-8.5-3.1-31.5-11.8-35-11.8s-8.8-5.8-15.7-16.4c-12.7-19.4-15.4-21.9-10.1-25.8
						C430,304.1,430.7,303.8,431.4,303.8 M431.4,296.7c-2.3,0-4.5,0.8-6.6,2.4c-5,3.8-6.6,8.5-4.6,14.1c1.3,3.6,4,7.8,9.1,15.4
						c1.2,1.8,2.5,3.8,4,6c9.2,14.1,15.1,19.5,21.4,19.7c3.4,0.6,19.6,6.5,26.6,9.1c2.5,0.9,4.7,1.7,6.4,2.3
						c4.1,1.5,7.9,2.2,11.3,2.2c4.5,0,8.3-1.3,11-3.5c0.2-0.2,0.5-0.4,0.8-0.7c1.1-0.8,2.5-1.9,3.6-3.4c2.4-3,2.8-6.8,1.2-10.1
						c-1.4-2.7-4.9-6.7-6.9-8.7l-6.2-6.5l-5,7.5c-0.2,0.3-1.2,1.9-1.9,4.5c-4.8-1.1-10.7-2.5-14.2-3.7c-4.4-1.5-13.2-5.5-17.6-7.6
						c-0.9-1.2-2.4-3.2-4.2-5.4c3.6,0.3,7.1,0.5,10.7,0.5c14.5,0,23.9-2.9,24.3-3.1l12.2-3.9l-9.7-8.4c-1.3-1.1-4.2-3-9.9-3
						c-2.3,0-4.8,0.3-7.6,0.9c-0.6,0.1-1.8,0.3-4.2,0.3c-8.1,0-19.8-2.4-26.8-5.4c-3.1-1.4-5.1-3.5-6.9-5.7
						C439.2,299.9,436.3,296.7,431.4,296.7L431.4,296.7z"/>
				</g>
				<path class="st14" d="M444.7,321.1c-1.6,0.3-9.6-13.4-10.2-15.5c6.7,5.4,17.2,12,26.3,12.8c9.1,0.8,17.7,1.7,22.5,0
					s10.3,2.1,10.3,2.1s-4.6,1.9-12.3,3.3C466.7,326.3,444.7,321.1,444.7,321.1z"/>
			</g>
			<path class="st21" d="M459.7,340c-2.2,3-3.3,3.3-4.4,4.1c-1.1,0.8-11.3-15.3-13.7-17.2c-2.4-1.9-10.5-16-11.5-17.8
				s-3.1-3.4-1-4.3c2-0.9,3.3-3.4,5.3,2.3c2.1,5.6,10.7,17.5,15.7,23.1C455.2,335.7,459.7,340,459.7,340z"/>
			<path class="st22" d="M454.1,347.5c2.7,1.6,31.1,10.2,35.3,12.1c4.2,1.9,11.8,3.1,13.3,2.1c1.4-1,6-2,2.4-2.9
				c-3.6-0.8-27.5-5.2-34.7-8.8c-10-5-11.5-8.7-11.5-8.7S451.6,346.1,454.1,347.5z"/>
		</g>
		<path class="st23" d="M667.5,475.2c-90.2-8.8-127.4-16.5-45.9,22.4c-82.3-35.9-39.4-7.4,28.5,41.9c-71.3-43.6-110.5-72.6-50.2-4.5
			c-62.7-65.6-33.8-20.6,4.5,50.2c-44.5-67.2-71.1-113.9-41.9-28.5c-32.6-84.4-25.8-37.6-22.4,45.9c-10.5-83.5-14.9-133.9-22.4-45.9
			c4.8-88.7-5.7-55.2-41.9,28.5c31.7-86.4,45.4-123.1,4.5-50.2c39.5-74.2,24-58-50.2,4.5c72.4-65.8,91-82.9,28.5-41.9
			c62.1-42.1,49.7-38.6-45.9-22.4c95.6-18.8,109.7-21.4,45.9-22.4c63.9,0.3,55.9-2.6-28.5-41.9c85.3,37.8,93.3,41.7,50.2,4.5
			c43.5,36.7,39.3,30-4.5-50.2c45.2,79.5,48.6,86.5,41.9,28.5c7.2,57.8,8.6,47.3,22.4-45.9c-11.7,93.2-14,102.9,22.4,45.9
			c-35.6,57.2-23.7,44.1,41.9-28.5c-63.1,74.1-74.7,85.1-4.5,50.2c-69.3,35.8-42,26.7,50.2-4.5c-90.1,34.8-114.9,41.4-28.5,41.9
			C535.7,454.4,577.2,460.4,667.5,475.2z"/>
	</g>
</g>
</svg>
