<?xml version="1.0" encoding="UTF-8"?>
<svg xmlns="http://www.w3.org/2000/svg" id="Layer_1" data-name="Layer 1" viewBox="0 0 64 64" width="512" height="512"><path d="M4.11,36.45A1,1,0,0,0,5,37H18a1,1,0,0,0,.8-.4L21.5,33H26V52c-.27,0-.54,0-.81,0a3.26,3.26,0,0,0-2.43,1.08A2.86,2.86,0,0,0,22,55.32,3,3,0,0,0,25,58h2.19A18.83,18.83,0,0,0,46,39.19V33h4.08a3,3,0,0,0-.08.66,3.19,3.19,0,0,0,1.08,2.39,3.68,3.68,0,0,0,2.49.94,3.64,3.64,0,0,0,2.48-.94l3.62-3.31a1,1,0,0,0,0-1.48L56.05,28a3.74,3.74,0,0,0-5,0A3.19,3.19,0,0,0,50,30.34a3,3,0,0,0,.08.66H46V24.81A18.83,18.83,0,0,0,27.19,6h-2a3.26,3.26,0,0,0-2.43,1.08A2.86,2.86,0,0,0,22,9.32,3,3,0,0,0,25,12h.19c.27,0,.54,0,.81,0V31H21.5l-2.7-3.6A1,1,0,0,0,18,27H5a1,1,0,0,0-.8,1.6L6.75,32,4.2,35.4A1,1,0,0,0,4.11,36.45Zm48.32-7a1.74,1.74,0,0,1,2.27,0L57.52,32,54.7,34.58a1.74,1.74,0,0,1-2.27,0,1.25,1.25,0,0,1-.43-.92,1.23,1.23,0,0,1,.43-.92h0a1,1,0,0,0,0-1.46h0a1.23,1.23,0,0,1-.43-.92A1.25,1.25,0,0,1,52.43,29.42ZM28,33H40v4.19A14.83,14.83,0,0,1,28,51.72Zm16,6.19A16.83,16.83,0,0,1,27.19,56H25a1,1,0,0,1-.71-.31,1,1,0,0,1-.29-.58.92.92,0,0,1,.25-.7,1.26,1.26,0,0,1,.94-.41,17.77,17.77,0,0,0,1.8-.1H27a16.83,16.83,0,0,0,15-16.7V33h2ZM25,10a1,1,0,0,1-.71-.31A1,1,0,0,1,24,9.11a.92.92,0,0,1,.25-.7A1.26,1.26,0,0,1,25.19,8h2A16.83,16.83,0,0,1,44,24.81V31H42V26.81a16.83,16.83,0,0,0-15-16.7H27a17.77,17.77,0,0,0-1.8-.1Zm3,2.28A14.83,14.83,0,0,1,40,26.81V31H28ZM8.8,31.4,7,29H17.5l2.25,3L17.5,35H7l1.8-2.4A1,1,0,0,0,8.8,31.4Z"/></svg>
