<?xml version="1.0" encoding="utf-8"?>
<!-- Generator: Adobe Illustrator 24.0.0, SVG Export Plug-In . SVG Version: 6.00 Build 0)  -->
<svg version="1.1" id="Layer_1" xmlns="http://www.w3.org/2000/svg" xmlns:xlink="http://www.w3.org/1999/xlink" x="0px" y="0px"
	 viewBox="0 0 535.3 516.9" style="enable-background:new 0 0 535.3 516.9;" xml:space="preserve">
<style type="text/css">
	.st0{fill:#C99757;}
	.st1{fill:url(#SVGID_3_);}
	.st2{fill:url(#SVGID_5_);}
	.st3{fill:#A1A1A1;}
	.st4{fill:#525252;}
	.st5{fill:#666666;}
	.st6{fill:#D8D8D8;}
	.st7{clip-path:url(#SVGID_8_);}
	.st8{clip-path:url(#SVGID_9_);fill:url(#SVGID_10_);}
	.st9{fill:url(#SVGID_11_);}
	.st10{clip-path:url(#SVGID_14_);}
	.st11{clip-path:url(#SVGID_15_);fill:url(#SVGID_16_);}
	.st12{fill:url(#SVGID_17_);}
	.st13{clip-path:url(#SVGID_20_);}
	.st14{clip-path:url(#SVGID_21_);fill:url(#SVGID_22_);}
	.st15{fill:url(#SVGID_23_);}
	.st16{fill:#3C3C3B;}
	.st17{fill:#82D2D2;}
	.st18{fill:#AAE6E6;}
	.st19{fill:#FFFFFF;}
	.st20{fill:#D2E6F0;}
	.st21{fill:#E63346;}
	.st22{fill:#E6F6F6;}
	.st23{fill:#96BEDC;}
	.st24{fill:#DCF0F0;}
	.st25{fill:#F6F6F6;}
	.st26{fill:#AAB4C8;}
	.st27{fill:#FF4A59;}
	.st28{fill:#6D4F19;}
</style>
<g id="fondo">
	<rect x="-128" class="st0" width="792" height="516.4"/>
	<g id="Table_x5F_2_4_">
		
			<linearGradient id="SVGID_3_" gradientUnits="userSpaceOnUse" x1="48.8569" y1="220.3622" x2="68.5587" y2="284.653" gradientTransform="matrix(1 0 0 -1 0 614)">
			<stop  offset="0" style="stop-color:#CCCCCC"/>
			<stop  offset="1" style="stop-color:#969696"/>
		</linearGradient>
		<polygon class="st1" points="-9.5,327.8 87.5,327.8 89.8,516.3 -16.5,516.3 		"/>
		
			<linearGradient id="SVGID_5_" gradientUnits="userSpaceOnUse" x1="128.6" y1="256.587" x2="128.6" y2="284.2312" gradientTransform="matrix(1 0 0 -1 0 614)">
			<stop  offset="0" style="stop-color:#E6E6E6"/>
			<stop  offset="1" style="stop-color:#BDBDBD"/>
		</linearGradient>
		<polygon class="st2" points="79.7,326.6 175.2,326.6 177.5,516.3 82,516.3 		"/>
		<path class="st3" d="M171.3,335.1v31.2H83.9v-31.2h26.9h15.8H143H171.3 M172.1,334.3H143h-16.4h-15.8H83.1v32.8h89V334.3
			L172.1,334.3z"/>
		<path class="st3" d="M171.3,371.2v67.3H84.5l-0.6-67.3h28.3h15h16.4H171.3 M172.1,370.4h-28.6h-16.4h-15H83l0.6,69H172v-69H172.1z
			"/>
		<path class="st3" d="M171.8,443.6l0.4,67.3H85.5l-0.4-67.3h26.4H128h18L171.8,443.6 M172.6,442.8h-26.5h-18h-16.6H84.3l0.5,69
			h88.4L172.6,442.8L172.6,442.8z"/>
		<path class="st4" d="M110.8,334.3c0,0,19.1,10.6,32.2,0C126.6,334.3,110.8,334.3,110.8,334.3z"/>
		<path class="st4" d="M110.8,370.4c0,0,19.1,10.6,32.2,0C126.6,370.4,110.8,370.4,110.8,370.4z"/>
		<path class="st4" d="M110.8,442.8c0,0,19.1,10.6,32.2,0C126.6,442.8,110.8,442.8,110.8,442.8z"/>
		<polygon class="st5" points="-264.2,323.7 214.9,323.7 214.9,331.8 -260.4,331.8 		"/>
	</g>
	<g>
		<g>
			<path class="st6" d="M98,153.4H49.1c-0.6,0-1-0.5-1-1v-13.5c0-0.6,0.5-1,1-1H98c0.6,0,1,0.5,1,1v13.5C99,153,98.6,153.4,98,153.4
				z"/>
			<path class="st6" d="M153.7,153.4h-48.9c-0.6,0-1-0.5-1-1v-13.5c0-0.6,0.5-1,1-1h48.9c0.6,0,1,0.5,1,1v13.5
				C154.7,153,154.3,153.4,153.7,153.4z"/>
			<path class="st6" d="M125,133.9H76.1c-0.6,0-1-0.5-1-1v-13.5c0-0.6,0.5-1,1-1H125c0.6,0,1,0.5,1,1v13.5
				C126,133.4,125.5,133.9,125,133.9z"/>
		</g>
		<g>
			<path class="st6" d="M427.5,313.5h-48.9c-0.6,0-1-0.5-1-1V299c0-0.6,0.5-1,1-1h48.9c0.6,0,1,0.5,1,1v13.5
				C428.5,313,428,313.5,427.5,313.5z"/>
			<path class="st6" d="M483.2,313.5h-48.9c-0.6,0-1-0.5-1-1V299c0-0.6,0.5-1,1-1h48.9c0.6,0,1,0.5,1,1v13.5
				C484.2,313,483.8,313.5,483.2,313.5z"/>
			<path class="st6" d="M454.4,293.9h-48.9c-0.6,0-1-0.5-1-1v-13.5c0-0.6,0.5-1,1-1h48.9c0.6,0,1,0.5,1,1v13.5
				C455.5,293.5,455,293.9,454.4,293.9z"/>
		</g>
		<g>
			<path class="st6" d="M413.7,98.5h48.9c0.6,0,1,0.5,1,1V113c0,0.6-0.5,1-1,1h-48.9c-0.6,0-1-0.5-1-1V99.6
				C412.7,99,413.1,98.5,413.7,98.5z"/>
			<path class="st6" d="M358,98.5h48.9c0.6,0,1,0.5,1,1V113c0,0.6-0.5,1-1,1H358c-0.6,0-1-0.5-1-1V99.6C357,99,357.4,98.5,358,98.5z
				"/>
			<path class="st6" d="M386.7,118.1h48.9c0.6,0,1,0.5,1,1v13.5c0,0.6-0.5,1-1,1h-48.9c-0.6,0-1-0.5-1-1v-13.5
				C385.7,118.5,386.2,118.1,386.7,118.1z"/>
		</g>
	</g>
	<g>
		<g>
			<g>
				<defs>
					<polygon id="SVGID_6_" points="-127,1 -126,1 -127,2 					"/>
				</defs>
				<defs>
					<polygon id="SVGID_7_" points="-129,-1 -130,-1 -129,-2 					"/>
				</defs>
				<clipPath id="SVGID_8_">
					<use xlink:href="#SVGID_6_"  style="overflow:visible;"/>
				</clipPath>
				<clipPath id="SVGID_9_" class="st7">
					<use xlink:href="#SVGID_7_"  style="overflow:visible;"/>
				</clipPath>
				
					<linearGradient id="SVGID_10_" gradientUnits="userSpaceOnUse" x1="390.25" y1="371.8092" x2="390.25" y2="424.1412" gradientTransform="matrix(1 0 0 -1 0 614)">
					<stop  offset="0" style="stop-color:#000000"/>
					<stop  offset="0.1143" style="stop-color:#040404"/>
					<stop  offset="0.2386" style="stop-color:#111111"/>
					<stop  offset="0.3675" style="stop-color:#272727"/>
					<stop  offset="0.4997" style="stop-color:#464646"/>
					<stop  offset="0.6345" style="stop-color:#6D6D6D"/>
					<stop  offset="0.7714" style="stop-color:#9D9D9D"/>
					<stop  offset="0.9073" style="stop-color:#D5D5D5"/>
					<stop  offset="1" style="stop-color:#FFFFFF"/>
				</linearGradient>
				<polygon class="st8" points="419.8,243.9 378.4,202.5 377.3,204.6 371.5,198.8 369.6,208.2 361.7,200.4 360.7,201.5 
					361.7,213.9 362.6,243.9 371.7,243.9 371.7,243.9 				"/>
			</g>
		</g>
		
			<linearGradient id="SVGID_11_" gradientUnits="userSpaceOnUse" x1="390.25" y1="371.8092" x2="390.25" y2="424.1412" gradientTransform="matrix(1 0 0 -1 0 614)">
			<stop  offset="0" style="stop-color:#DCD2C0"/>
			<stop  offset="0.2452" style="stop-color:#DCD4C4"/>
			<stop  offset="0.5115" style="stop-color:#DBDCD1"/>
			<stop  offset="0.7866" style="stop-color:#D9E7E7"/>
			<stop  offset="1" style="stop-color:#D7F3FD"/>
		</linearGradient>
		<polygon class="st9" points="419.8,243.9 378.4,202.5 377.3,204.6 371.5,198.8 369.6,208.2 361.7,200.4 360.7,201.5 361.7,213.9 
			362.6,243.9 371.7,243.9 371.7,243.9 		"/>
		<g>
			<g>
				<defs>
					<polygon id="SVGID_12_" points="-127,1 -126,1 -127,2 					"/>
				</defs>
				<defs>
					<polygon id="SVGID_13_" points="-129,-1 -130,-1 -129,-2 					"/>
				</defs>
				<clipPath id="SVGID_14_">
					<use xlink:href="#SVGID_12_"  style="overflow:visible;"/>
				</clipPath>
				<clipPath id="SVGID_15_" class="st10">
					<use xlink:href="#SVGID_13_"  style="overflow:visible;"/>
				</clipPath>
				
					<linearGradient id="SVGID_16_" gradientUnits="userSpaceOnUse" x1="544.05" y1="377.2484" x2="544.05" y2="408.1459" gradientTransform="matrix(1 0 0 -1 0 614)">
					<stop  offset="0" style="stop-color:#000000"/>
					<stop  offset="0.1143" style="stop-color:#040404"/>
					<stop  offset="0.2386" style="stop-color:#111111"/>
					<stop  offset="0.3675" style="stop-color:#272727"/>
					<stop  offset="0.4997" style="stop-color:#464646"/>
					<stop  offset="0.6345" style="stop-color:#6D6D6D"/>
					<stop  offset="0.7714" style="stop-color:#9D9D9D"/>
					<stop  offset="0.9073" style="stop-color:#D5D5D5"/>
					<stop  offset="1" style="stop-color:#FFFFFF"/>
				</linearGradient>
				<polygon class="st11" points="531.8,206.2 561.2,243.7 526.9,243.7 				"/>
			</g>
		</g>
		
			<linearGradient id="SVGID_17_" gradientUnits="userSpaceOnUse" x1="544.05" y1="377.2484" x2="544.05" y2="408.1459" gradientTransform="matrix(1 0 0 -1 0 614)">
			<stop  offset="0" style="stop-color:#DCD2C0"/>
			<stop  offset="0.2452" style="stop-color:#DCD4C4"/>
			<stop  offset="0.5115" style="stop-color:#DBDCD1"/>
			<stop  offset="0.7866" style="stop-color:#D9E7E7"/>
			<stop  offset="1" style="stop-color:#D7F3FD"/>
		</linearGradient>
		<polygon class="st12" points="531.8,206.2 561.2,243.7 526.9,243.7 		"/>
		<g>
			<g>
				<defs>
					<polygon id="SVGID_18_" points="-127,1 -126,1 -127,2 					"/>
				</defs>
				<defs>
					<polygon id="SVGID_19_" points="-129,-1 -130,-1 -129,-2 					"/>
				</defs>
				<clipPath id="SVGID_20_">
					<use xlink:href="#SVGID_18_"  style="overflow:visible;"/>
				</clipPath>
				<clipPath id="SVGID_21_" class="st13">
					<use xlink:href="#SVGID_19_"  style="overflow:visible;"/>
				</clipPath>
				
					<linearGradient id="SVGID_22_" gradientUnits="userSpaceOnUse" x1="521" y1="371.7203" x2="521" y2="432.3642" gradientTransform="matrix(1 0 0 -1 0 614)">
					<stop  offset="0" style="stop-color:#000000"/>
					<stop  offset="0.1143" style="stop-color:#040404"/>
					<stop  offset="0.2386" style="stop-color:#111111"/>
					<stop  offset="0.3675" style="stop-color:#272727"/>
					<stop  offset="0.4997" style="stop-color:#464646"/>
					<stop  offset="0.6345" style="stop-color:#6D6D6D"/>
					<stop  offset="0.7714" style="stop-color:#9D9D9D"/>
					<stop  offset="0.9073" style="stop-color:#D5D5D5"/>
					<stop  offset="1" style="stop-color:#FFFFFF"/>
				</linearGradient>
				<polygon class="st14" points="503.4,188.3 546.2,244 495.8,244 495.8,187 				"/>
			</g>
		</g>
		
			<linearGradient id="SVGID_23_" gradientUnits="userSpaceOnUse" x1="521" y1="371.7203" x2="521" y2="432.3642" gradientTransform="matrix(1 0 0 -1 0 614)">
			<stop  offset="0" style="stop-color:#DCD2C0"/>
			<stop  offset="0.2452" style="stop-color:#DCD4C4"/>
			<stop  offset="0.5115" style="stop-color:#DBDCD1"/>
			<stop  offset="0.7866" style="stop-color:#D9E7E7"/>
			<stop  offset="1" style="stop-color:#D7F3FD"/>
		</linearGradient>
		<polygon class="st15" points="503.4,188.3 546.2,244 495.8,244 495.8,187 		"/>
		<rect x="352" y="244" class="st16" width="198.7" height="5.3"/>
		<g id="_x31_4_2_">
			<g>
				<g>
					<path class="st17" d="M532.2,225.2c-0.6,0.7-1.2,1.3-1.9,1.8c-0.2,0.1-0.4,0.3-0.6,0.4l0,0c-0.2,0.1-0.4,0.2-0.6,0.4
						c-0.6,0.3-1.2,0.5-1.8,0.7c-0.4,0.1-0.8,0.2-1.2,0.2c-0.3,0-0.5,0-0.8,0c-2.2,0-4.9-1.1-6.7-3.5c-3.2-4-4.9-13.3-0.6-18
						c0.5-0.5,1.1-1,1.7-1.4c1.5-0.9,3.4-1.5,5.8-1.5c0.5,0,1,0,1.4,0.1h0.1c0.1,0,0.2,0,0.2,0l0,0c0.3,0,0.6,0.1,0.9,0.1
						c0.5,0.1,0.9,0.2,1.4,0.4C538.1,208.2,536.1,220.4,532.2,225.2z"/>
					<path class="st18" d="M532.2,225.2c-0.6,0.7-1.2,1.3-1.9,1.8c-0.2,0.1-0.4,0.3-0.6,0.4l0,0c-0.2,0.1-0.4,0.2-0.6,0.4
						c-0.6,0.3-1.2,0.5-1.8,0.7c-0.3-0.1-0.5-0.2-0.8-0.3c-1.4-0.5-2.7-1.5-3.7-2.9c-3.7-4.9-5-17.8,4.6-20.4c0,0,0,0,0.1,0
						s0.2-0.1,0.3-0.1c0.2,0,0.3-0.1,0.5-0.1c0.5,0.1,0.9,0.2,1.4,0.4C538.1,208.2,536.1,220.4,532.2,225.2z"/>
				</g>
				<path class="st17" d="M527.5,204.6c0,0-0.3,20.8-0.2,24.2C524.6,223.8,519.8,211.4,527.5,204.6z"/>
				<path class="st17" d="M530.3,227c-0.2,0.1-0.4,0.3-0.6,0.4c4.5-13.3,0.7-19.8-2.3-22.6c-0.1-0.1-0.3-0.3-0.4-0.4h0.1
					c0.1,0,0.2,0,0.2,0l0,0c0.1,0.1,0.2,0.2,0.4,0.2C537.8,211.7,533.2,222,530.3,227z"/>
			</g>
			<g>
				<path class="st19" d="M514.2,223c-1.5,4.5,0,9.6,2.5,15.1c5.9-4.1,15.6-11,20.1-14c-0.1-0.4-0.2-0.7-0.3-1.1H514.2z"/>
				<path class="st20" d="M514.2,223c-1.5,4.5,0,9.6,2.5,15.1c5.9-4.1,15.6-11,20.1-14c-0.1-0.4-0.2-0.7-0.3-1.1H514.2z"/>
				<path class="st19" d="M516.7,238.1c0.9,1.9,1.9,3.9,2.9,5.9c3.9,0,7.5,0,11.5,0c3.7-7.2,7-14.1,5.7-19.9
					C532.4,227.1,522.7,234,516.7,238.1z"/>
			</g>
		</g>
		<g>
			<g>
				<g>
					<path class="st21" d="M503.4,188.3v54.4c0,0.7-0.6,1.3-1.3,1.3h-12.8c-0.7,0-1.3-0.6-1.3-1.3v-54.4c0-0.7,0.6-1.3,1.3-1.3h12.8
						C502.8,187,503.4,187.6,503.4,188.3z"/>
					<path class="st19" d="M495.7,240c-2,0-3.6-1.7-3.6-3.7c0-2.1,1.6-3.7,3.6-3.7h0.1l0,0c1.9,0.1,3.5,1.7,3.5,3.7
						S497.8,239.9,495.7,240L495.7,240L495.7,240z"/>
					<path class="st16" d="M495.8,233.1L495.8,233.1c-1.8,0-3.2,1.4-3.2,3.2c0,1.7,1.4,3.2,3.1,3.2h0.1c1.6-0.1,2.9-1.5,2.9-3.2
						C498.8,234.6,497.5,233.2,495.8,233.1z"/>
				</g>
				<rect x="491.3" y="190.2" class="st19" width="8.9" height="35.7"/>
			</g>
			<path class="st22" d="M503.4,188.3v54.4c0,0.7-0.6,1.3-1.3,1.3h-6.3v-57h6.3C502.8,187,503.4,187.6,503.4,188.3z"/>
		</g>
		<g>
			<g>
				<g>
					<path class="st16" d="M488,188.3v54.4c0,0.7-0.6,1.3-1.3,1.3h-12.8c-0.7,0-1.3-0.6-1.3-1.3v-54.4c0-0.7,0.6-1.3,1.3-1.3h12.8
						C487.4,187,488,187.6,488,188.3z"/>
					<path class="st19" d="M480.3,240c-2,0-3.6-1.7-3.6-3.7c0-2.1,1.6-3.7,3.6-3.7h0.1l0,0c1.9,0.1,3.5,1.7,3.5,3.7
						S482.4,239.9,480.3,240L480.3,240C480.3,240,480.3,240,480.3,240z"/>
					<path class="st16" d="M480.4,233.1L480.4,233.1c-1.8,0-3.2,1.4-3.2,3.2c0,1.7,1.4,3.2,3.1,3.2h0.1c1.6-0.1,2.9-1.5,2.9-3.2
						C483.3,234.6,482,233.2,480.4,233.1z"/>
				</g>
				<rect x="475.8" y="190.2" class="st19" width="8.9" height="35.7"/>
			</g>
			<path class="st22" d="M488,188.3v54.4c0,0.7-0.6,1.3-1.3,1.3h-6.3v-57h6.3C487.4,187,488,187.6,488,188.3z"/>
		</g>
		<g>
			<rect x="464.7" y="199.1" class="st23" width="7.8" height="44.9"/>
			<rect x="464.7" y="203.4" class="st19" width="7.8" height="1.1"/>
			<rect x="464.7" y="206" class="st19" width="7.8" height="1.1"/>
			<rect x="464.7" y="236.9" class="st19" width="7.8" height="1.1"/>
			<rect x="464.7" y="239.4" class="st19" width="7.8" height="1.1"/>
			<rect x="468.6" y="199.1" class="st24" width="3.9" height="44.9"/>
		</g>
		<g>
			<rect x="440.1" y="207.1" class="st25" width="7.8" height="36.9"/>
			<rect x="440.1" y="210.6" class="st26" width="7.8" height="0.9"/>
			<rect x="440.1" y="240.2" class="st26" width="7.8" height="0.9"/>
			<rect x="444" y="207.1" class="st24" width="3.9" height="36.9"/>
		</g>
		<g>
			<rect x="447.9" y="195.9" class="st26" width="7.8" height="48.1"/>
			<rect x="447.9" y="203.3" class="st19" width="7.8" height="1.2"/>
			<rect x="447.9" y="236.4" class="st19" width="7.8" height="1.2"/>
			<rect x="451.8" y="195.9" class="st24" width="3.9" height="48.1"/>
		</g>
		<g>
			<rect x="455.7" y="192.2" class="st21" width="9" height="51.8"/>
			<rect x="455.7" y="197.2" class="st19" width="9" height="1.3"/>
			<rect x="455.7" y="200.1" class="st19" width="9" height="1.3"/>
			<rect x="455.7" y="235.8" class="st19" width="9" height="1.3"/>
			<rect x="455.7" y="238.7" class="st19" width="9" height="1.3"/>
			<rect x="460.2" y="192.2" class="st24" width="4.5" height="51.8"/>
		</g>
		<g>
			
				<rect x="409.5" y="216.8" transform="matrix(0.2591 -0.9658 0.9658 0.2591 107.0199 581.0897)" class="st18" width="45.6" height="8"/>
			
				<rect x="436.3" y="199.5" transform="matrix(0.2591 -0.9658 0.9658 0.2591 127.0929 572.738)" class="st19" width="1.1" height="8"/>
			
				<rect x="435.7" y="201.9" transform="matrix(0.2591 -0.9658 0.9658 0.2591 124.3265 573.9717)" class="st19" width="1.1" height="8"/>
			
				<rect x="427.5" y="232.3" transform="matrix(0.2591 -0.9658 0.9658 0.2591 88.9002 588.5576)" class="st19" width="1.1" height="8"/>
			
				<rect x="426.8" y="234.8" transform="matrix(0.2591 -0.9658 0.9658 0.2591 85.9742 589.7254)" class="st19" width="1.1" height="8"/>
			
				<rect x="411.4" y="219.3" transform="matrix(0.2591 -0.9658 0.9658 0.2591 107.9526 583.2962)" class="st24" width="45.6" height="4"/>
		</g>
		<g>
			<g>
				<rect x="385" y="228.1" class="st19" width="34.7" height="15.8"/>
				<rect x="383.3" y="220.8" class="st19" width="38" height="7.4"/>
				<path class="st26" d="M408.7,231.6H396c-0.5,0-0.9-0.4-0.9-0.9l0,0c0-0.5,0.4-0.9,0.9-0.9h12.7c0.5,0,0.9,0.4,0.9,0.9l0,0
					C409.6,231.2,409.2,231.6,408.7,231.6z"/>
			</g>
			<polygon class="st20" points="385,229.9 402.9,229.9 415.6,244 419.7,244 419.7,228.1 385,228.1 			"/>
		</g>
		<g>
			<path class="st27" d="M361.1,199.9l-2.8,0.5c-0.3,0.1-0.5,0.4-0.5,0.7l0.4,1.9l-0.5,0.1l-0.3-1.5l-0.6,0.1l1.9,10.1l0.6-0.1
				l-1.5-7.9l0.5-0.1l1.4,7.6c0.1,0.3,0.4,0.5,0.7,0.5h0.2l5.3,28.8l2.5-0.5l-5.3-28.8h0.2c0.3-0.1,0.5-0.4,0.5-0.7l-1.9-10.2
				C361.7,200,361.4,199.8,361.1,199.9z"/>
			<path class="st23" d="M364.5,243.4l-2.4-0.4l7.2-43.9c0.1-0.5,0.6-0.9,1.1-0.8l0.5,0.1c0.5,0.1,0.9,0.6,0.8,1.1L364.5,243.4z"/>
			<rect x="360.7" y="215" class="st16" width="15.6" height="29"/>
			<path class="st16" d="M378.4,202.5l-2.8-0.7c-0.3-0.1-0.6,0.1-0.7,0.4l-0.5,1.9l-0.5-0.1l0.4-1.4l-0.6-0.1l-2.6,9.9l0.6,0.1
				l2-7.8l0.5,0.1l-1.9,7.5c-0.1,0.3,0.1,0.6,0.4,0.7h0.2l-7.3,28.4l2.5,0.6l7.3-28.4h0.2c0.3,0.1,0.6-0.1,0.7-0.4l2.6-10
				C378.8,202.9,378.7,202.6,378.4,202.5z"/>
			<path class="st20" d="M370.8,215l-0.1,1c-0.5,9.7-3,19.3-7.4,28l0,0h13v-29H370.8z"/>
		</g>
	</g>
	<rect x="-128.2" class="st28" width="792" height="516.3"/>
</g>
</svg>
