<?xml version="1.0" encoding="utf-8"?>
<!-- Generator: Adobe Illustrator 24.0.0, SVG Export Plug-In . SVG Version: 6.00 Build 0)  -->
<svg version="1.1" id="Layer_1" xmlns="http://www.w3.org/2000/svg" xmlns:xlink="http://www.w3.org/1999/xlink" x="0px" y="0px"
	 viewBox="0 0 1200 1000" style="enable-background:new 0 0 1200 1000;" xml:space="preserve">
<style type="text/css">
	.st0{fill:#010101;}
	.st1{fill:#C89756;}
	.st2{fill:url(#SVGID_1_);}
	.st3{fill:url(#SVGID_2_);}
	.st4{fill:#A1A0A0;}
	.st5{fill:#535353;}
	.st6{fill:#676767;}
	.st7{fill:#434343;}
	.st8{fill:#AF9476;}
	.st9{fill:#AF9275;}
	.st10{fill:#C9AF95;}
	.st11{fill:#BEA386;}
	.st12{fill:#D8D9D8;}
	.st13{filter:url(#Adobe_OpacityMaskFilter);}
	.st14{filter:url(#Adobe_OpacityMaskFilter_1_);}
	.st15{mask:url(#SVGID_3_);fill:url(#SVGID_4_);}
	.st16{fill:url(#SVGID_5_);}
	.st17{filter:url(#Adobe_OpacityMaskFilter_2_);}
	.st18{filter:url(#Adobe_OpacityMaskFilter_3_);}
	.st19{mask:url(#SVGID_6_);fill:url(#SVGID_7_);}
	.st20{fill:url(#SVGID_8_);}
	.st21{filter:url(#Adobe_OpacityMaskFilter_4_);}
	.st22{filter:url(#Adobe_OpacityMaskFilter_5_);}
	.st23{mask:url(#SVGID_9_);fill:url(#SVGID_10_);}
	.st24{fill:url(#SVGID_11_);}
	.st25{fill:#3D3D3C;}
	.st26{fill:#84D0D0;}
	.st27{fill:#AEDFE1;}
	.st28{fill:#FFFFFF;}
	.st29{fill:#D2E6F0;}
	.st30{fill:#E63547;}
	.st31{fill:#E7F5F5;}
	.st32{fill:#97BEDC;}
	.st33{fill:#DCF0F0;}
	.st34{fill:#F6F6F6;}
	.st35{fill:#ABB5C8;}
	.st36{fill:#FF4A59;}
	.st37{fill:#6E5120;}
	.st38{opacity:0.1;fill:#FFFFFF;}
	.st39{fill:#4C4118;}
	.st40{fill:#461312;}
	.st41{fill:#4B5257;}
	.st42{opacity:0.2;fill:#FFFFFF;}
	.st43{opacity:0.13;fill:#FFFFFF;}
	.st44{opacity:0.5;}
	.st45{opacity:1.000000e-02;fill:#FFFFFF;}
	.st46{opacity:1.875000e-02;fill:#FFFFFF;}
	.st47{opacity:2.750000e-02;fill:#FFFFFF;}
	.st48{opacity:3.625000e-02;fill:#FFFFFF;}
	.st49{opacity:4.500000e-02;fill:#FFFFFF;}
	.st50{opacity:5.375000e-02;fill:#FFFFFF;}
	.st51{opacity:6.250000e-02;fill:#FFFFFF;}
	.st52{opacity:7.125000e-02;fill:#FFFFFF;}
	.st53{opacity:8.000000e-02;fill:#FFFFFF;}
	.st54{opacity:8.875000e-02;fill:#FFFFFF;}
	.st55{opacity:9.750000e-02;fill:#FFFFFF;}
	.st56{opacity:0.1063;fill:#FFFFFF;}
	.st57{opacity:0.115;fill:#FFFFFF;}
	.st58{opacity:0.1238;fill:#FFFFFF;}
	.st59{opacity:0.1325;fill:#FFFFFF;}
	.st60{opacity:0.1412;fill:#FFFFFF;}
	.st61{opacity:0.15;fill:#FFFFFF;}
	.st62{opacity:2.000000e-02;fill:#FFFFFF;}
	.st63{opacity:3.000000e-02;fill:#FFFFFF;}
	.st64{opacity:4.000000e-02;fill:#FFFFFF;}
	.st65{opacity:5.000000e-02;fill:#FFFFFF;}
	.st66{opacity:6.000000e-02;fill:#FFFFFF;}
	.st67{opacity:7.000000e-02;fill:#FFFFFF;}
	.st68{opacity:9.000000e-02;fill:#FFFFFF;}
	.st69{opacity:0.11;fill:#FFFFFF;}
	.st70{opacity:0.12;fill:#FFFFFF;}
	.st71{opacity:0.14;fill:#FFFFFF;}
	.st72{opacity:0.16;fill:#FFFFFF;}
	.st73{opacity:0.17;fill:#FFFFFF;}
	.st74{opacity:0.18;fill:#FFFFFF;}
	.st75{opacity:0.19;fill:#FFFFFF;}
	.st76{opacity:1.473684e-02;fill:#FFFFFF;}
	.st77{opacity:1.947368e-02;fill:#FFFFFF;}
	.st78{opacity:2.421053e-02;fill:#FFFFFF;}
	.st79{opacity:2.894737e-02;fill:#FFFFFF;}
	.st80{opacity:3.368421e-02;fill:#FFFFFF;}
	.st81{opacity:3.842105e-02;fill:#FFFFFF;}
	.st82{opacity:4.315789e-02;fill:#FFFFFF;}
	.st83{opacity:4.789474e-02;fill:#FFFFFF;}
	.st84{opacity:5.263158e-02;fill:#FFFFFF;}
	.st85{opacity:5.736842e-02;fill:#FFFFFF;}
	.st86{opacity:6.210526e-02;fill:#FFFFFF;}
	.st87{opacity:6.684211e-02;fill:#FFFFFF;}
	.st88{opacity:7.157895e-02;fill:#FFFFFF;}
	.st89{opacity:7.631579e-02;fill:#FFFFFF;}
	.st90{opacity:8.105263e-02;fill:#FFFFFF;}
	.st91{opacity:8.578947e-02;fill:#FFFFFF;}
	.st92{opacity:9.052631e-02;fill:#FFFFFF;}
	.st93{opacity:9.526316e-02;fill:#FFFFFF;}
	.st94{opacity:1.562500e-02;fill:#FFFFFF;}
	.st95{opacity:2.125000e-02;fill:#FFFFFF;}
	.st96{opacity:2.687500e-02;fill:#FFFFFF;}
	.st97{opacity:3.250000e-02;fill:#FFFFFF;}
	.st98{opacity:3.812500e-02;fill:#FFFFFF;}
	.st99{opacity:4.375000e-02;fill:#FFFFFF;}
	.st100{opacity:4.937500e-02;fill:#FFFFFF;}
	.st101{opacity:5.500000e-02;fill:#FFFFFF;}
	.st102{opacity:6.062500e-02;fill:#FFFFFF;}
	.st103{opacity:6.625000e-02;fill:#FFFFFF;}
	.st104{opacity:7.187500e-02;fill:#FFFFFF;}
	.st105{opacity:7.750000e-02;fill:#FFFFFF;}
	.st106{opacity:8.312500e-02;fill:#FFFFFF;}
	.st107{opacity:9.437500e-02;fill:#FFFFFF;}
	.st108{clip-path:url(#SVGID_13_);}
	.st109{fill:#FFFFFF;stroke:#010101;stroke-width:0.7727;stroke-miterlimit:10;}
	.st110{opacity:0.1;}
	.st111{fill:#010101;stroke:#FFFFFF;stroke-width:3.0908;stroke-miterlimit:10;}
	.st112{fill:none;stroke:#FFFFFF;stroke-width:3.0908;stroke-miterlimit:10;}
	.st113{fill:#0D0C0E;}
	.st114{opacity:0.4;fill:#EABE7E;}
	.st115{fill:#E8C0A3;}
	.st116{fill:#7D6351;}
	.st117{fill:#FCDCC5;}
	.st118{opacity:0.6;fill:#FFFBEA;}
	.st119{opacity:0.6;fill:#1D100B;}
	.st120{opacity:0.5;fill:#A16F6F;}
	.st121{opacity:0.4;fill:#CC4E5D;}
	.st122{opacity:0.8;fill:#1D100B;}
	.st123{fill:#1D100B;}
	.st124{opacity:0.8;fill:#D6D6D1;}
	.st125{opacity:0.5;fill:#D6D6D1;}
	.st126{fill:#D6D6D1;}
	.st127{opacity:0.4;fill:#DCDBDB;}
	.st128{fill:#BA968C;}
	.st129{fill:#010101;stroke:#383938;stroke-width:1.5454;stroke-miterlimit:10;}
	.st130{fill:#484848;}
	.st131{fill:#CD2027;}
	.st132{fill:#1CB24B;}
	.st133{fill-rule:evenodd;clip-rule:evenodd;fill:#FFFFFF;}
	.st134{fill:url(#SVGID_14_);}
</style>
<rect x="-399.9" y="-62.8" class="st0" width="1839" height="1147.4"/>
<image style="overflow:visible;" width="1920" height="1200" xlink:href="E4489B3599A5EE17.jpg"  transform="matrix(0.7198 0 0 0.7198 -184.8046 137.5829)">
</image>
<rect x="-266" y="-16" class="st1" width="1560.4" height="1017.4"/>
<g id="Table_x5F_2_4_">
	<linearGradient id="SVGID_1_" gradientUnits="userSpaceOnUse" x1="82.4876" y1="759.5681" x2="121.3034" y2="632.9049">
		<stop  offset="0" style="stop-color:#CCCCCC"/>
		<stop  offset="1" style="stop-color:#969696"/>
	</linearGradient>
	<polygon class="st2" points="-32.5,629.8 158.6,629.8 163.2,1001.1 -46.3,1001.1 	"/>
	<linearGradient id="SVGID_2_" gradientUnits="userSpaceOnUse" x1="239.6038" y1="688.1942" x2="239.6038" y2="633.7305">
		<stop  offset="0" style="stop-color:#E6E6E5"/>
		<stop  offset="1" style="stop-color:#BDBDBD"/>
	</linearGradient>
	<polygon class="st3" points="143.2,627.5 331.4,627.5 336,1001.1 147.8,1001.1 	"/>
	<path class="st4" d="M323.7,644.3v61.4H151.6v-61.4h53h31.2H268H323.7 M325.4,642.7H268h-32.2h-31.2H150v64.7h175.4V642.7
		L325.4,642.7z"/>
	<path class="st4" d="M323.7,715.4v132.7H152.8l-1.2-132.7h55.7h29.5h32.3H323.7 M325.4,713.8h-56.3h-32.3h-29.5H150l1.2,136h174.2
		V713.8L325.4,713.8z"/>
	<path class="st4" d="M324.6,858l0.9,132.7H154.6L153.7,858h51.9h32.8H274H324.6 M326.3,856.4H274h-35.5h-32.8h-53.6l0.9,136h174.2
		L326.3,856.4L326.3,856.4z"/>
	<path class="st5" d="M204.6,642.7c0,0,37.7,20.9,63.4,0C235.7,642.7,204.6,642.7,204.6,642.7z"/>
	<path class="st5" d="M204.6,713.8c0,0,37.7,20.9,63.4,0C235.7,713.8,204.6,713.8,204.6,713.8z"/>
	<path class="st5" d="M204.6,856.4c0,0,37.7,20.9,63.4,0C235.7,856.4,204.6,856.4,204.6,856.4z"/>
	<polygon class="st6" points="-534.3,621.8 409.7,621.8 409.7,637.8 -526.8,637.7 	"/>
	<polygon class="st7" points="-477.6,621.8 -477.6,637.8 -690.1,637.7 -697.6,621.8 	"/>
	<g>
		<polygon class="st8" points="-576.6,646.7 -523.7,1002.1 -547,1002.1 -590,645.1 		"/>
		<polygon class="st8" points="-614.7,646.7 -673.7,1002.1 -653.5,1002.1 -601.2,645.1 		"/>
		<polygon class="st9" points="-655,952 -347.8,952 -341.1,958.8 -657.9,965.5 		"/>
		<polygon class="st10" points="-413.1,646.7 -456.7,1002.1 -433.4,1002.1 -399.7,645.1 		"/>
		<polygon class="st10" points="-375,646.7 -314.4,1002.1 -340.8,1002.1 -388.4,645.1 		"/>
		<polygon class="st9" points="-614.3,641.9 -375.5,641.9 -373.2,655.3 -617.1,658.4 		"/>
		<polygon class="st11" points="-415,655.9 -411.9,641.9 -375.6,641.9 -373.2,655.3 		"/>
		<rect x="-588.4" y="637.8" class="st11" width="19.7" height="4.1"/>
		<rect x="-431.6" y="637.8" class="st11" width="19.7" height="4.1"/>
	</g>
</g>
<g>
	<g>
		<path class="st12" d="M178.1,286.3h-94c-1.8,0-3.2-1.4-3.2-3.2v-24.3c0-1.8,1.4-3.2,3.2-3.2h94c1.8,0,3.2,1.4,3.2,3.2v24.3
			C181.3,284.9,179.9,286.3,178.1,286.3z"/>
		<path class="st12" d="M287.9,286.3h-94c-1.8,0-3.2-1.4-3.2-3.2v-24.3c0-1.8,1.4-3.2,3.2-3.2h94c1.8,0,3.2,1.4,3.2,3.2v24.3
			C291.1,284.9,289.7,286.3,287.9,286.3z"/>
		<path class="st12" d="M231.3,247.8h-94c-1.8,0-3.2-1.4-3.2-3.2v-24.3c0-1.8,1.4-3.2,3.2-3.2h94c1.8,0,3.2,1.4,3.2,3.2v24.3
			C234.4,246.4,233,247.8,231.3,247.8z"/>
	</g>
	<g>
		<path class="st12" d="M827.3,601.6h-94c-1.8,0-3.2-1.4-3.2-3.2v-24.3c0-1.8,1.4-3.2,3.2-3.2h94c1.8,0,3.2,1.4,3.2,3.2v24.3
			C830.4,600.2,829,601.6,827.3,601.6z"/>
		<path class="st12" d="M937,601.6h-94c-1.8,0-3.2-1.4-3.2-3.2v-24.3c0-1.8,1.4-3.2,3.2-3.2h94c1.8,0,3.2,1.4,3.2,3.2v24.3
			C940.2,600.2,938.8,601.6,937,601.6z"/>
		<path class="st12" d="M880.4,563.1h-94c-1.8,0-3.2-1.4-3.2-3.2v-24.3c0-1.8,1.4-3.2,3.2-3.2h94c1.8,0,3.2,1.4,3.2,3.2v24.3
			C883.5,561.7,882.1,563.1,880.4,563.1z"/>
	</g>
	<g>
		<path class="st12" d="M802.4,178.2h94c1.8,0,3.2,1.4,3.2,3.2v24.3c0,1.8-1.4,3.2-3.2,3.2h-94c-1.8,0-3.2-1.4-3.2-3.2v-24.3
			C799.3,179.6,800.7,178.2,802.4,178.2z"/>
		<path class="st12" d="M692.7,178.2h94c1.8,0,3.2,1.4,3.2,3.2v24.3c0,1.8-1.4,3.2-3.2,3.2h-94c-1.8,0-3.2-1.4-3.2-3.2v-24.3
			C689.5,179.6,690.9,178.2,692.7,178.2z"/>
		<path class="st12" d="M749.3,216.7h94c1.8,0,3.2,1.4,3.2,3.2v24.3c0,1.8-1.4,3.2-3.2,3.2h-94c-1.8,0-3.2-1.4-3.2-3.2v-24.3
			C746.1,218.1,747.6,216.7,749.3,216.7z"/>
	</g>
</g>
<g>
	<defs>
		<filter id="Adobe_OpacityMaskFilter" filterUnits="userSpaceOnUse" x="696.8" y="375.8" width="116.4" height="88.9">
			<feFlood  style="flood-color:white;flood-opacity:1" result="back"/>
			<feBlend  in="SourceGraphic" in2="back" mode="normal"/>
		</filter>
	</defs>
	<mask maskUnits="userSpaceOnUse" x="696.8" y="375.8" width="116.4" height="88.9" id="SVGID_3_">
		<g class="st13">
			<defs>
				<filter id="Adobe_OpacityMaskFilter_1_" filterUnits="userSpaceOnUse" x="696.8" y="375.8" width="116.4" height="88.9">
					<feFlood  style="flood-color:white;flood-opacity:1" result="back"/>
					<feBlend  in="SourceGraphic" in2="back" mode="normal"/>
				</filter>
			</defs>
			<mask maskUnits="userSpaceOnUse" x="696.8" y="375.8" width="116.4" height="88.9" id="SVGID_3_">
				<g class="st14">
				</g>
			</mask>
			<linearGradient id="SVGID_4_" gradientUnits="userSpaceOnUse" x1="755.0192" y1="461.188" x2="755.0192" y2="358.0856">
				<stop  offset="0" style="stop-color:#000000"/>
				<stop  offset="0.1143" style="stop-color:#040404"/>
				<stop  offset="0.2386" style="stop-color:#111111"/>
				<stop  offset="0.3675" style="stop-color:#272727"/>
				<stop  offset="0.4997" style="stop-color:#464646"/>
				<stop  offset="0.6345" style="stop-color:#6D6D6D"/>
				<stop  offset="0.7714" style="stop-color:#9D9D9D"/>
				<stop  offset="0.9073" style="stop-color:#D5D5D5"/>
				<stop  offset="1" style="stop-color:#FFFFFF"/>
			</linearGradient>
			<polygon class="st15" points="813.2,464.6 731.6,383.1 729.5,387.1 718.2,375.8 714.3,394.2 698.9,378.8 696.8,381.1 
				698.9,405.5 700.6,464.6 718.6,464.6 718.6,464.6 			"/>
		</g>
	</mask>
	<linearGradient id="SVGID_5_" gradientUnits="userSpaceOnUse" x1="755.0192" y1="461.188" x2="755.0192" y2="358.0856">
		<stop  offset="0" style="stop-color:#DDD3C0"/>
		<stop  offset="0.2456" style="stop-color:#DDD5C4"/>
		<stop  offset="0.5123" style="stop-color:#DBDCD1"/>
		<stop  offset="0.7879" style="stop-color:#D9E7E7"/>
		<stop  offset="1" style="stop-color:#D7F3FD"/>
	</linearGradient>
	<polygon class="st16" points="813.2,464.6 731.6,383.1 729.5,387.1 718.2,375.8 714.3,394.2 698.9,378.8 696.8,381.1 698.9,405.5 
		700.6,464.6 718.6,464.6 718.6,464.6 	"/>
	<defs>
		<filter id="Adobe_OpacityMaskFilter_2_" filterUnits="userSpaceOnUse" x="1024.3" y="390.4" width="67.4" height="73.8">
			<feFlood  style="flood-color:white;flood-opacity:1" result="back"/>
			<feBlend  in="SourceGraphic" in2="back" mode="normal"/>
		</filter>
	</defs>
	<mask maskUnits="userSpaceOnUse" x="1024.3" y="390.4" width="67.4" height="73.8" id="SVGID_6_">
		<g class="st17">
			<defs>
				<filter id="Adobe_OpacityMaskFilter_3_" filterUnits="userSpaceOnUse" x="1024.3" y="390.4" width="67.4" height="73.8">
					<feFlood  style="flood-color:white;flood-opacity:1" result="back"/>
					<feBlend  in="SourceGraphic" in2="back" mode="normal"/>
				</filter>
			</defs>
			<mask maskUnits="userSpaceOnUse" x="1024.3" y="390.4" width="67.4" height="73.8" id="SVGID_6_">
				<g class="st18">
				</g>
			</mask>
			<linearGradient id="SVGID_7_" gradientUnits="userSpaceOnUse" x1="1058.0558" y1="450.4719" x2="1058.0558" y2="389.5988">
				<stop  offset="0" style="stop-color:#000000"/>
				<stop  offset="0.1143" style="stop-color:#040404"/>
				<stop  offset="0.2386" style="stop-color:#111111"/>
				<stop  offset="0.3675" style="stop-color:#272727"/>
				<stop  offset="0.4997" style="stop-color:#464646"/>
				<stop  offset="0.6345" style="stop-color:#6D6D6D"/>
				<stop  offset="0.7714" style="stop-color:#9D9D9D"/>
				<stop  offset="0.9073" style="stop-color:#D5D5D5"/>
				<stop  offset="1" style="stop-color:#FFFFFF"/>
			</linearGradient>
			<polygon class="st19" points="1034,390.4 1091.8,464.2 1024.3,464.2 			"/>
		</g>
	</mask>
	<linearGradient id="SVGID_8_" gradientUnits="userSpaceOnUse" x1="1058.0558" y1="450.4719" x2="1058.0558" y2="389.5988">
		<stop  offset="0" style="stop-color:#DDD3C0"/>
		<stop  offset="0.2456" style="stop-color:#DDD5C4"/>
		<stop  offset="0.5123" style="stop-color:#DBDCD1"/>
		<stop  offset="0.7879" style="stop-color:#D9E7E7"/>
		<stop  offset="1" style="stop-color:#D7F3FD"/>
	</linearGradient>
	<polygon class="st20" points="1034,390.4 1091.8,464.2 1024.3,464.2 	"/>
	<defs>
		<filter id="Adobe_OpacityMaskFilter_4_" filterUnits="userSpaceOnUse" x="963" y="352.4" width="99.3" height="112.4">
			<feFlood  style="flood-color:white;flood-opacity:1" result="back"/>
			<feBlend  in="SourceGraphic" in2="back" mode="normal"/>
		</filter>
	</defs>
	<mask maskUnits="userSpaceOnUse" x="963" y="352.4" width="99.3" height="112.4" id="SVGID_9_">
		<g class="st21">
			<defs>
				<filter id="Adobe_OpacityMaskFilter_5_" filterUnits="userSpaceOnUse" x="963" y="352.4" width="99.3" height="112.4">
					<feFlood  style="flood-color:white;flood-opacity:1" result="back"/>
					<feBlend  in="SourceGraphic" in2="back" mode="normal"/>
				</filter>
			</defs>
			<mask maskUnits="userSpaceOnUse" x="963" y="352.4" width="99.3" height="112.4" id="SVGID_9_">
				<g class="st22">
				</g>
			</mask>
			<linearGradient id="SVGID_10_" gradientUnits="userSpaceOnUse" x1="1012.704" y1="461.3632" x2="1012.704" y2="341.8849">
				<stop  offset="0" style="stop-color:#000000"/>
				<stop  offset="0.1143" style="stop-color:#040404"/>
				<stop  offset="0.2386" style="stop-color:#111111"/>
				<stop  offset="0.3675" style="stop-color:#272727"/>
				<stop  offset="0.4997" style="stop-color:#464646"/>
				<stop  offset="0.6345" style="stop-color:#6D6D6D"/>
				<stop  offset="0.7714" style="stop-color:#9D9D9D"/>
				<stop  offset="0.9073" style="stop-color:#D5D5D5"/>
				<stop  offset="1" style="stop-color:#FFFFFF"/>
			</linearGradient>
			<polygon class="st23" points="978.1,355 1062.4,464.8 963,464.8 963,352.4 			"/>
		</g>
	</mask>
	<linearGradient id="SVGID_11_" gradientUnits="userSpaceOnUse" x1="1012.704" y1="461.3632" x2="1012.704" y2="341.8849">
		<stop  offset="0" style="stop-color:#DDD3C0"/>
		<stop  offset="0.2456" style="stop-color:#DDD5C4"/>
		<stop  offset="0.5123" style="stop-color:#DBDCD1"/>
		<stop  offset="0.7879" style="stop-color:#D9E7E7"/>
		<stop  offset="1" style="stop-color:#D7F3FD"/>
	</linearGradient>
	<polygon class="st24" points="978.1,355 1062.4,464.8 963,464.8 963,352.4 	"/>
	<rect x="679.7" y="464.8" class="st25" width="391.4" height="10.4"/>
	<g id="_x31_4_2_">
		<g>
			<g>
				<path class="st26" d="M1034.8,427.8c-1.1,1.4-2.4,2.5-3.7,3.5c-0.4,0.3-0.8,0.6-1.2,0.8v0c-0.4,0.3-0.8,0.5-1.2,0.7
					c-1.2,0.6-2.3,1.1-3.5,1.4c-0.8,0.2-1.6,0.4-2.4,0.4c-0.5,0.1-1,0.1-1.5,0.1c-4.3,0-9.6-2.2-13.3-6.9
					c-6.2-7.9-9.7-26.1-1.2-35.4c1-1.1,2.1-2,3.4-2.8c2.9-1.8,6.7-2.9,11.5-2.9c1,0,1.9,0.1,2.8,0.2c0.1,0,0.2,0,0.2,0
					c0.2,0,0.3,0,0.5,0.1h0c0.6,0.1,1.2,0.2,1.7,0.3c0.9,0.2,1.8,0.5,2.7,0.8C1046.3,394.3,1042.4,418.3,1034.8,427.8z"/>
				<path class="st27" d="M1034.8,427.8c-1.1,1.4-2.4,2.5-3.7,3.5c-0.4,0.3-0.8,0.6-1.2,0.8v0c-0.4,0.3-0.8,0.5-1.2,0.7
					c-1.2,0.6-2.3,1.1-3.5,1.4c-0.5-0.2-1-0.3-1.5-0.5c-2.7-1.1-5.3-3-7.4-5.7c-7.3-9.7-9.8-35.1,9-40.2c0,0,0.1,0,0.1,0
					c0.2-0.1,0.4-0.1,0.6-0.2c0.3-0.1,0.7-0.1,1-0.2c0.9,0.2,1.8,0.5,2.7,0.8C1046.3,394.3,1042.4,418.3,1034.8,427.8z"/>
			</g>
			<path class="st26" d="M1025.5,387.1c0,0-0.5,41-0.3,47.7C1019.8,424.9,1010.3,400.5,1025.5,387.1z"/>
			<path class="st26" d="M1031.1,431.3c-0.4,0.3-0.8,0.6-1.2,0.8c8.8-26.3,1.4-38.9-4.5-44.4c-0.3-0.3-0.6-0.5-0.8-0.7
				c0.1,0,0.2,0,0.2,0c0.2,0,0.3,0,0.5,0.1h0c0.2,0.2,0.5,0.3,0.7,0.5C1045.7,401.1,1036.8,421.4,1031.1,431.3z"/>
		</g>
		<g>
			<path class="st28" d="M999.3,423.4c-2.9,8.9,0.1,18.9,4.9,29.7c11.7-8.1,30.8-21.7,39.5-27.5c-0.2-0.7-0.4-1.5-0.6-2.2H999.3z"/>
			<path class="st29" d="M999.3,423.4c-2.9,8.9,0.1,18.9,4.9,29.7c11.7-8.1,30.8-21.7,39.5-27.5c-0.2-0.7-0.4-1.5-0.6-2.2H999.3z"/>
			<path class="st28" d="M1004.3,453.1c1.7,3.8,3.7,7.7,5.7,11.7c7.6-0.1,14.8-0.1,22.6,0c7.2-14.3,13.7-27.7,11.2-39.3
				C1035.1,431.4,1016,445,1004.3,453.1z"/>
		</g>
	</g>
	<g>
		<g>
			<g>
				<path class="st30" d="M978.1,355v107.1c0,1.5-1.2,2.6-2.6,2.6h-25.2c-1.4,0-2.6-1.2-2.6-2.6V355c0-1.5,1.2-2.6,2.6-2.6h25.2
					C976.9,352.4,978.1,353.6,978.1,355z"/>
				<path class="st28" d="M962.8,456.9c-3.9,0-7.1-3.3-7.1-7.3c0-4,3.2-7.3,7.1-7.3c0.1,0,0.1,0,0.2,0l0.1,0
					c3.8,0.1,6.8,3.4,6.8,7.3c0,4-3,7.2-6.8,7.3l-0.1,0C963,456.9,962.9,456.9,962.8,456.9z"/>
				<path class="st25" d="M963.1,443.3c-0.1,0-0.1,0-0.2,0c-3.3,0-6,2.8-6,6.2c0,3.4,2.7,6.2,6,6.2c0.1,0,0.1,0,0.2,0
					c3.2-0.1,5.8-2.9,5.8-6.2C968.9,446.2,966.3,443.5,963.1,443.3z"/>
			</g>
			<rect x="954.1" y="358.7" class="st28" width="17.6" height="70.4"/>
		</g>
		<path class="st31" d="M978.1,355v107.1c0,1.5-1.2,2.6-2.6,2.6H963V352.4h12.4C976.9,352.4,978.1,353.6,978.1,355z"/>
	</g>
	<g>
		<g>
			<g>
				<path class="st25" d="M947.6,355v107.1c0,1.5-1.2,2.6-2.6,2.6h-25.2c-1.4,0-2.6-1.2-2.6-2.6V355c0-1.5,1.2-2.6,2.6-2.6H945
					C946.4,352.4,947.6,353.6,947.6,355z"/>
				<path class="st28" d="M932.4,456.9c-3.9,0-7.1-3.3-7.1-7.3c0-4,3.2-7.3,7.1-7.3c0.1,0,0.1,0,0.2,0l0.1,0
					c3.8,0.1,6.8,3.4,6.8,7.3c0,4-3,7.2-6.8,7.3l-0.1,0C932.5,456.9,932.5,456.9,932.4,456.9z"/>
				<path class="st25" d="M932.6,443.3c-0.1,0-0.1,0-0.2,0c-3.3,0-6,2.8-6,6.2c0,3.4,2.7,6.2,6,6.2c0.1,0,0.1,0,0.2,0
					c3.2-0.1,5.8-2.9,5.8-6.2C938.4,446.2,935.8,443.5,932.6,443.3z"/>
			</g>
			<rect x="923.6" y="358.7" class="st28" width="17.6" height="70.4"/>
		</g>
		<path class="st31" d="M947.6,355v107.1c0,1.5-1.2,2.6-2.6,2.6h-12.4V352.4H945C946.4,352.4,947.6,353.6,947.6,355z"/>
	</g>
	<g>
		<rect x="901.8" y="376.4" class="st32" width="15.4" height="88.4"/>
		<rect x="901.8" y="384.9" class="st28" width="15.4" height="2.1"/>
		<rect x="901.8" y="389.8" class="st28" width="15.4" height="2.1"/>
		<rect x="901.8" y="450.7" class="st28" width="15.4" height="2.1"/>
		<rect x="901.8" y="455.7" class="st28" width="15.4" height="2.1"/>
		<rect x="909.5" y="376.4" class="st33" width="7.7" height="88.4"/>
	</g>
	<g>
		<rect x="853.2" y="392" class="st34" width="15.4" height="72.8"/>
		<rect x="853.2" y="399" class="st35" width="15.4" height="1.8"/>
		<rect x="853.2" y="457.3" class="st35" width="15.4" height="1.8"/>
		<rect x="860.9" y="392" class="st33" width="7.7" height="72.8"/>
	</g>
	<g>
		<rect x="868.6" y="370" class="st35" width="15.4" height="94.7"/>
		<rect x="868.6" y="384.5" class="st28" width="15.4" height="2.3"/>
		<rect x="868.6" y="449.7" class="st28" width="15.4" height="2.3"/>
		<rect x="876.3" y="370" class="st33" width="7.7" height="94.7"/>
	</g>
	<g>
		<rect x="884" y="362.8" class="st30" width="17.8" height="102"/>
		<rect x="884" y="372.6" class="st28" width="17.8" height="2.5"/>
		<rect x="884" y="378.3" class="st28" width="17.8" height="2.5"/>
		<rect x="884" y="448.6" class="st28" width="17.8" height="2.5"/>
		<rect x="884" y="454.3" class="st28" width="17.8" height="2.5"/>
		<rect x="892.9" y="362.8" class="st33" width="8.9" height="102"/>
	</g>
	<g>
		
			<rect x="830" y="374.1" transform="matrix(0.9658 0.2591 -0.2591 0.9658 137.1927 -202.7911)" class="st27" width="15.7" height="89.9"/>
		
			<rect x="839.1" y="383.9" transform="matrix(0.9658 0.2591 -0.2591 0.9658 128.6826 -206.3207)" class="st28" width="15.7" height="2.2"/>
		
			<rect x="837.8" y="388.8" transform="matrix(0.9658 0.2591 -0.2591 0.9658 129.9086 -205.8131)" class="st28" width="15.7" height="2.2"/>
		
			<rect x="821.8" y="448.6" transform="matrix(0.9658 0.2591 -0.2591 0.9658 144.8629 -199.6098)" class="st28" width="15.7" height="2.2"/>
		
			<rect x="820.5" y="453.5" transform="matrix(0.9658 0.2591 -0.2591 0.9658 146.0883 -199.1015)" class="st28" width="15.7" height="2.2"/>
		
			<rect x="837.7" y="375.1" transform="matrix(0.9658 0.2591 -0.2591 0.9658 137.5848 -203.7364)" class="st33" width="7.8" height="89.9"/>
	</g>
	<g>
		<g>
			<rect x="744.8" y="433.5" class="st28" width="68.3" height="31.2"/>
			<rect x="741.5" y="419" class="st28" width="75" height="14.5"/>
			<path class="st35" d="M791.4,440.4h-25c-1,0-1.8-0.8-1.8-1.8l0,0c0-1,0.8-1.8,1.8-1.8h25c1,0,1.8,0.8,1.8,1.8l0,0
				C793.2,439.6,792.4,440.4,791.4,440.4z"/>
		</g>
		<polygon class="st29" points="744.8,436.9 780.1,436.9 805.1,464.8 813.1,464.8 813.1,433.5 744.8,433.5 		"/>
	</g>
	<g>
		<path class="st36" d="M697.6,377.9l-5.6,1c-0.6,0.1-1,0.7-0.9,1.3l0.7,3.8l-0.9,0.3l-0.5-2.9l-1.1,0.2l3.7,19.8l1.1-0.2l-2.9-15.6
			l0.9-0.3l2.8,15c0.1,0.6,0.7,1,1.3,0.9l0.3-0.1l10.5,56.8l4.9-0.9l-10.5-56.8l0.3-0.1c0.6-0.1,1-0.7,0.9-1.3l-3.7-20.1
			C698.8,378.2,698.2,377.8,697.6,377.9z"/>
		<path class="st32" d="M704.4,463.6l-4.8-0.8l14.2-86.4c0.2-1.1,1.2-1.8,2.2-1.6l1,0.2c1.1,0.2,1.8,1.2,1.6,2.2L704.4,463.6z"/>
		<rect x="696.8" y="407.5" class="st25" width="30.8" height="57.2"/>
		<path class="st25" d="M731.6,383.1l-5.5-1.4c-0.6-0.2-1.2,0.2-1.4,0.8l-1,3.7l-1-0.1l0.7-2.8l-1.1-0.3l-5,19.5l1.1,0.3l4-15.4
			l1,0.1l-3.8,14.7c-0.2,0.6,0.2,1.2,0.8,1.4l0.3,0.1l-14.5,56l4.8,1.3l14.5-56l0.3,0.1c0.6,0.2,1.2-0.2,1.4-0.8l5.1-19.8
			C732.6,383.8,732.2,383.2,731.6,383.1z"/>
		<path class="st29" d="M716.7,407.5l-0.1,2c-1.1,19.2-6,38-14.5,55.2v0h25.6v-57.2H716.7z"/>
	</g>
</g>
<rect x="-266.4" y="-16" class="st37" width="1560.4" height="1017.1"/>
<path class="st0" d="M653.8,428c4.5-3.5,7.6-7.2,14-3.9c6.4,3.3,23,15,24.5,15.8c1.4,0.8,9.7,0.2,10.1,1.9c0.4,1.6-1.6,6.6-0.4,8.8
	c1.2,2.3,10.3,14,12.3,16.2s2.9,6.6,1.6,8c5.3,8.8,9.5,14.2,9.9,15.8c0.4,1.6,0.4,7.2-2.5,7.8c2.5,9,7.8,16.9,8.4,18.9
	c0.6,2.1,1.6,4.1-3.7,9c1.2,12.3,2.7,18.1,0.4,19.3c-2.3,1.2-4.1,0.4-9.9-3.7s-16.2-13-16.2-13s5.3,57.2,5.6,71.6
	c0.2,14.4,4.4,74.8,4.5,80.4c0.1,6.1,0.5,11.9-15.5,24c-16,12-43.6,10.2-50.5-33.9c-0.7-4.8-12.4-92.8-13.7-99
	c-1.3-6.2,5.9-124.7,7.8-133.2C642.5,430.6,653.8,428,653.8,428z"/>
<path class="st38" d="M643.1,487.1c-1.9,1,6.3,0.9,7.3,0.9c0.9,0,20.5-20.5,24.6-25.8c4-5.2,20.1-18,22.6-19.2
	c-2.6-0.9-18.4,9.9-24.3,17.9s-20.7,24.7-22.3,25.5C649.3,487.2,643.4,487,643.1,487.1z"/>
<path class="st38" d="M654,490.7c1.1,0.9,5.6-0.1,7.9-1.6c2.3-1.5,19.6-8.6,25.2-9.9c-12.2,1.9-23,5.4-24.6,6.8S654,490.7,654,490.7
	z"/>
<path class="st38" d="M657.1,494.1c0,0,5.9,3.6,7.9,3.1c2-0.5,32.1-5.2,32.1-5.2s-29.3,2.8-31.2,3.2
	C664.1,495.5,657.1,494.1,657.1,494.1z"/>
<path class="st38" d="M661,498.4c0,0,16.2,6.2,19.6,6.4s25.5,8.1,25.5,8.1s-31.8-8.9-33.6-9.1C670.8,503.5,661,498.4,661,498.4z"/>
<path class="st38" d="M665.6,503.5c0.7,0.3,44.9,27.8,47.9,29.9c3.1,2.1,10.3,8.9,9.9,8.9c-0.4,0-17.1-13-20.5-14.2
	C699.4,526.8,665.6,503.5,665.6,503.5z"/>
<path class="st38" d="M645.6,485.3c-1.7-0.6-2.8-2.3-1.6-9.1c1.2-6.8,6.3-26.7,11.3-37.5c5-10.7,3.9-1.1,3.9,2s13.2,10.5,14.2,11.1
	s1.2,4.7-0.3,7s-17.7,21.4-18.7,22.4C653.5,482.4,650.5,487.1,645.6,485.3z"/>
<path class="st0" d="M356.7,672.2c3.8-2.8,7-11.5,7.2-13.8c0.2-2.3,6.8-19.3,7.6-24.6c0.8-5.3,4.7-20.8,7.2-29.5
	c2.5-8.7,8.7-21.4,7.9-22.5c-0.8-1.1,20.8-42.2,22.5-47.3c1.7-5.1-15.1-99.1-49.1-107.3c-3-2.2-6-2.8-11.7,1.6
	c-5.7,4.5-18.9,17.2-22.7,20.6c-3.4-0.8-4,3.8-3.8,5.5c-4.7,6.6-12.1,19.7-12.1,19.7s-3.4,0.6-1.5,3.8c-3.2,7.4-7.2,15.9-5.7,19.5
	c-3.2,1.1-1.1,4.2,0,4.7c-3.2,14-6.6,26.7,0.2,25.5c-0.8,10.4,1.7,18.9,3.2,20.2c1.5,1.3,2.8,1.3,7.2-3.8c4.5-5.1,4-2.8,4-2.8
	s-7.6,43.3-8.7,51.6c-1.1,8.3-14.6,69-15.1,75.1c-0.4,6.2-1.1,12.1,0.6,13.8c0,18.7-1.9,33.5,14,34.8S356.9,694.9,356.7,672.2z"/>
<path class="st38" d="M359.3,485.1c1.2-0.4,7.8-2.3,8.6-2.5c0.7-0.2-5.1-15.1-6.4-19.7c-1.6-5.5-4.8-23.6-4.5-29.3
	c0.4-5.7,0.8-7.8-0.1-8c-1-0.1-5.3-1-11.8,5.7c-6.5,6.6-17.2,15.7-18.1,16.8c-0.8,1.1-0.2,2.1,1.7,4.5c1.9,2.4,19.7,21.5,20.5,22.2
	S359.3,485.1,359.3,485.1z"/>
<path class="st38" d="M353,488.5c0,0-20.4-21.8-23.4-24.2c-3-2.4-7.9-9.4-7.9-9.4s-9.3,14.4-12.1,19.7c10.2,2.8,29.3,10.1,32.6,11.9
	C345.6,488.4,353,488.5,353,488.5z"/>
<path class="st38" d="M346.5,494c0.9,0.5-19.1-1-20.5-0.8s-18.7,2.1-19.8,1.7c-1.1-0.4,17.1-8.9,20.6-7.8c-6.3-3.1-5.2-3.7-2.5-2.5
	C326.9,485.7,342.5,491.9,346.5,494z"/>
<path class="st38" d="M310.9,514.5c0,1.8,17.7-7.2,20-8.1c2.3-0.8,11.9-2.8,10.7-3s-14.8-2.2-16.3-2.1s-13-0.1-14.1,0.4
	C310.2,502.2,310.9,514.4,310.9,514.5z"/>
<path class="st38" d="M312.8,536.6c0.5-1.2,15.8-21.1,16.4-21.8c0.6-0.7-1.7-0.7-5.1,1.1c-3.4,1.8-10.5,4.6-12.2,7
	C310.3,525.3,312.8,536.6,312.8,536.6z"/>
<path class="st38" d="M302.9,525.3c0.7-1.4,8.6-7.8,11.6-9.9c3-2.1,13-4.9,15.4-6.2c2.4-1.2,11.8-3.3,13.5-4.8
	c1.7-1.6,5.3-2.5,4.2-1.1c-1.1,1.4-6.3,3.4-7.7,4.1c-1.4,0.7-9.9,3-10.9,3.7c-1,0.7-13.6,4.3-15,5.8s-9.3,9-10.1,9.4
	c-0.8,0.4-3.3,2.4-4.5,0C300.5,526.2,302.9,525.3,302.9,525.3z"/>
<path class="st38" d="M353.4,495.1c0,0-6.2,2.8-7.2,2.9c-1.1,0.1-9-0.7-10.6-0.7s-17.6,0-18.8,0.1c-1.2,0.1-9.4,2.3-10.9,2.4
	c-1.4,0.1-2.9,0.2-3.4-1.9c-1.6,2-1.5,4.3,0.8,4.2s12.2-3.3,13.5-3.3s18-0.5,19.5,0c1.6,0.5,8.7,1.2,10.3,1
	C348.1,499.6,353.4,495.1,353.4,495.1z"/>
<path class="st38" d="M309.5,476.4c0.7,0.7,10.7,3.6,14,4.3c3.3,0.7,18.6,8,20.9,8.3s9.4,2.4,11,1.9s2.9-0.5,2.9-0.5
	s-4.2,2.9-5.7,2.7s-10.6-2.7-12.5-3.6c-1.9-1-15.8-7.1-17.1-7.4s-11.6-2.7-12.9-3.5S309.5,476.4,309.5,476.4z"/>
<path class="st38" d="M368.4,486.2c-1.4,0.1-10.9,1.3-11.7,1.4s-4.2-2.1-5.1-2.9c-0.8-0.8-25.4-26.9-26.2-27.6
	c-0.7-0.7-2.7-5.3-2.2-5.4c0.5-0.1,4.9,4.6,5.5,5.5c0.6,1,18.9,20.7,20.1,21.5c1.2,0.7,6.6,7.7,8.1,7.5c1.4-0.2,9.6-1,10.6-1.3
	C368.7,484.5,368.4,486.2,368.4,486.2z"/>
<path class="st38" d="M299.9,678.4c1.9-0.8,15.5-3.7,18-3.7c2.4,0,6.8-0.3,7.9,0.6c1.1,1-0.5,2.8-2.8,2.6c-2.3-0.2-8.7,1.9-10.7,1.9
	c-1.9,0-8.9,0.8-9.6,1.3c-0.6,0.5-4,3.1-5.3,3.1s-2.3-0.2-1.8-1.5c0.5-1.3-0.5-2.3-1.3-3.2c-0.8-1-1.6-4.7-1.6-6.2s0.5-5.1,0.5-5.1
	c1.5-5.3,5.5-26.2,5.7-28s1.8-11.5,2.4-13.8c0.6-2.3,5.7-29.1,5.7-29.6c0-0.5,4.5-20.4,4.5-22.3s1.6-12,1.6-13.9s3.1-15.2,3.2-13.9
	s2.3,9.7,2.3,9.7s7.6-10.2,8.1-12.5c0.5-2.3,10.8-12.8,12.8-17.2c1.9-4.4,5.3-7.8,7.3-9.7c1.9-1.9,5.2-7.3,6.2-8.1
	c1-0.8,6.8-0.6,6.8-0.6l3.2,7.6l-2.1,12.3l2.8,17.8l1.1,16.2c0,0-9.2,15.7-9.9,16.4c-0.6,0.6-7.4,10.5-7.4,10.5l-1.1,15.7l3.7,12.3
	l-2.3,14.1l-5.3,6.8c0,0-2.8,9.1-1.5,11.3c1.3,2.3,2.9,8.6,2.9,8.6s-5.7,5.7-7.3,6c-1.6,0.3-12.5,5.2-13.9,5.7s-8.7,0.6-9.9,0.3
	c-1.1-0.3-12.6,0.2-14.4,1.1c-1.8,1-3.2,3.4-2.6,4.4S299.9,678.4,299.9,678.4z"/>
<path class="st0" d="M621,722.3c0,0,17.1-54.2,18.6-58.5c1.4-4.3,10.9-65.7,10-67.1c-1-1.4-20.5-52.8-20.9-50.9
	s-26.6,175.6-26.2,177C602.9,724.2,621,722.3,621,722.3z"/>
<path class="st39" d="M388.4,239.1c0,0-9.2-25-8.6-25.7c0.6-0.6,11,16.3,12.6,20.3C394.1,237.8,388.4,239.1,388.4,239.1z"/>
<path class="st39" d="M399.1,233.2c0,0-9.2-25-8.6-25.7c0.6-0.6,11,16.3,12.6,20.3C404.7,231.9,399.1,233.2,399.1,233.2z"/>
<path class="st40" d="M408.4,229.9c0,0-9.2-25-8.6-25.7c0.6-0.6,11,16.3,12.6,20.3C414.1,228.6,408.4,229.9,408.4,229.9z"/>
<path class="st40" d="M418.6,226.9c0,0-8.9-25-8.3-25.7c0.6-0.6,10.6,16.3,12.1,20.3S418.6,226.9,418.6,226.9z"/>
<path class="st0" d="M361.5,1002.5c5.5-3.7,6.3-26.1,8.5-36.4c2.2-10.3,10.3-26.9,11.8-34.2c1.5-7.4,1.8-14,3.3-18
	c2.9-22.1,8.1-30.2,9.6-37.5c1.5-7.4,19.5-44.2,25-52.6c5.5-8.5,53.7-23.6,66.3-22.1c12.5,1.5,139.9-10.7,139.9-10.7
	s50.3,74.9,49.8,78.3c-0.5,3.4,3.6,16.6,5.4,20.7s5.2,29.5,7.7,36.8c2.6,7.4,26.1,68.8,26.9,74.4c0.4,2.8-88.7,0.5-178.2,0
	c-1.3,0-5-7.3-6.2-7.3c-1.2,0-6.5,7.9-7.8,7.9C438,1001.6,361,1002.8,361.5,1002.5z"/>
<path class="st0" d="M390.7,882.5c0,0-7.3,0.8-5.9-8.1c1.3-8.8,9.2-39.1,11.5-43.2c-0.2-10.4-1.3-14,5.6-30.3
	c6.9-16.3,10.6-59.1,9.8-68.9c-0.8-9.8-6.9-65.4-15.2-101.3s-8.6-38.2-11.5-44.1s-10.7-21.1-10.6-49.1c0.2-28-2.7-45.9-8.4-66.8
	c-5.8-20.9-9.6-40.9-5.9-43.6s18.4-4.6,26.1-7.5s17.5-7.9,28.4-13.8s40.5-25.9,43.2-30.5c2.7-4.6,4-8.8,4.8-11.5s0.4-7.3,2.9-7.7
	c2.3,5.6,10,9.2,19.4,10.4c9.4,1.2,21.1,5.2,29.6,2.9c8.4-2.3,34.5-10,40.3-12.3c5.8-2.3,8.1-2.5,9.8,0c1.7,2.5,6.3,7.3,5.6,9.2
	c-0.8,1.9-1.5,9,0,10.7s5.9,5.8,5.6,7.7c-0.4,1.9-4.6,4-4.4,5.6c0.2,1.5,5.6,2.7,7.9,4.6s6.1,5,6.1,5s19.4,3.8,32.8,13
	c18.4,5,40.5,9.2,43.2,10.7c0,0-12.9,29.2-15.5,44.3c-2.4,13.9-10.3,40.5-6.3,52.9c3.9,12.3,2,46.8-3.4,59.6
	c-5.4,12.8-3,50.2-5.4,63.5s-11.8,55.7-8.9,63.5c3,7.9,20.7,40.9,27.6,50.2c6.9,9.4,18.2,48.3,20.2,59.6c2,11.3,1,26.1,3.4,33.5
	c2.5,7.4,5.3,15,3,18.2c-2.5,3.4-53.7-1.5-59.1-1.5c-5.4,0-38.9-20.7-55.2-48.8c-27.6,0.5-92.1-3.4-92.1-3.4s-28.6,36.4-35,44.3
	c-6.4,7.9-20.2,7.9-25.6,11.8S390.7,882.5,390.7,882.5z"/>
<path class="st0" d="M422.1,382.4c-1.6,0.3-61.7-156.5-62.7-158.4c-1.4-2.8,1.1,0.3,3.4,3.3c-2.3-8.1-2.6-9.2,0.3-5.8
	c2.9,3.4,18.9,36,20.3,38.1c1.5,2.1,25.8,77.9,31.9,92.1s14.4,30.7,14.4,30.7S422.1,382.4,422.1,382.4z"/>
<path class="st0" d="M424.6,363.7c0,0-31-72.1-31.1-72.8c-0.2-0.6-28.6-64.2-28.6-65.3s2.1-0.8,2.1-0.8l1-4.8l4.2,4.4l-1.3-3.9
	l4,3.9l1.1-2.6l41.3,103.4l15.2,39L424.6,363.7z"/>
<path class="st0" d="M420.1,312.2c-0.3-0.8-33.2-76.8-33.2-76.8s4.5-3.9,5.6-1.6c4.2,10.2,4.2,10.2,4.2,10.2s2.9,1.1,3.4,1.8
	c0.5,0.6,14.2,37.4,14.4,38.1c0.2,0.6,8.6,28.4,8.6,28.4H420.1z"/>
<polygon class="st0" points="410.1,284.5 398.6,279.8 385.7,252.9 392,244 "/>
<path class="st0" d="M398.4,246.6l3.9-4.5l-4.2-10.2c0,0,3.1-5.5,6.1-1.6c4,9.7,5.5,11.1,5.5,10.6c0-0.5,2.3-2.9,2.3-2.9l-5.2-12.9
	c0,0,3.2-4,5.2-1.1c4.7,10.6,4.7,10.6,4.7,10.6l3.4-0.5c0,0,7.1,12.3,7.6,12.6c0.5,0.3,2.6,17.6,2.6,17.6L417.6,285l-4,3.1
	L398.4,246.6z"/>
<path class="st0" d="M430.4,229.5l-4.7-0.3c0,0-4.2-7.3-4-8.2c-2.6-1.5-3.4,2.3-3.4,2.3l3.7,8.4l3.5,8.6c0,0-2.9,4.5-2.4,5
	c0.5,0.5,4,8.1,4.8,7.7c0.8-0.3,6-6.3,6-6.3L430.4,229.5z"/>
<path class="st41" d="M388.8,298.4c0,0-16.9-18.7-20-23.1c-3.1-4.4-4.4-12.6-0.8-16.9c3.5-4.4,5.5-5.6,5.5-5.6L388.8,298.4z"/>
<path class="st42" d="M397.2,288.8c0,0.5-14.5-37.9-14.5-37.9s3.5,1.1,7.3,10.2c3.7,9,8.7,26.8,8.6,27.6
	C398.3,289.5,397.2,288.5,397.2,288.8z"/>
<path class="st42" d="M378.4,253.8l15.3,37.9c0,0-13.7-12.4-15.5-15c-1.8-2.6-8.1-10.3-6-15C374.4,257,378.4,253.8,378.4,253.8z"/>
<path class="st42" d="M404.3,240.7c0,0,12.9,30.3,13.2,29.9c0.3-0.5,2.4-4.5,1.9-5.2c-0.5-0.6-6-16.3-6-16.3l-7.9-8.6l-1.3-1.3
	V240.7z"/>
<path class="st42" d="M623.5,715.5c0,0-2.2-5.9-3.5-5.2s-12,12.6-12,12.6L623.5,715.5z"/>
<path class="st42" d="M617.8,707.9l0.7-6.3c0,0-1.5-2.6-1.7-1.7C616.5,700.8,617.8,707.9,617.8,707.9z"/>
<polygon class="st42" points="622.2,702.3 617.8,697.3 623.9,692.7 "/>
<path class="st42" d="M622.2,687.9c0,0,2-9.1,1.1-10.2c-0.9-1.1-1.5-3.5-1.5-3.5s4.1-7.8,4.1-7.2c0,0.7-1.1,5.9-1.1,5.9
	s2,4.8,1.5,6.3C625.9,680.8,622.2,687.9,622.2,687.9z"/>
<path class="st42" d="M619.3,671.8c-0.9,0.2,2.8-7.2,2.8-8.3c0-1.1,0.4-6.5,0.4-6.5s3,2.8,2.8,3.7
	C625.2,661.6,619.3,671.8,619.3,671.8z"/>
<path class="st42" d="M625,653.8c0.4-0.9,3.5-7.8,3.5-9.6s2.8-12.4,2.8-12.4s3.5-1.5,3.3-0.2c-0.2,1.3-5.9,24.1-6.7,24.3
	C626.9,656.2,625,653.8,625,653.8z"/>
<path class="st43" d="M541.2,715.3c0,1.2-11.7,4.2-32.6,4.7s-52.8-0.7-54.5-2.7c-1.7-2-9.7-21.4-16.9-36.6
	c-7.2-15.2-20.2-56-21.6-58c-1.5-2-5.2-5.2-7-5.5s-7-10-9.7-15.4c-2.7-5.5-14.9-34.8-18.2-50c-3.2-15.2-5.2-44-4.2-49.3
	c1-5.2,38.1-39.3,38.1-39.3s-3.2,23,0,52.3c1.7,15.9,10.7,58.7,14.9,72.2c4.2,13.4,9,29.4,10.5,36.8c1.5,7.5,8.7,38.8,14.9,60
	c6.2,21.2,9,31.1,12.2,31.4s36,2.6,42.8,2.2C518.5,717.5,541.2,715.3,541.2,715.3z"/>
<g>
	<g class="st44">
		<path class="st45" d="M510,567.8c9.7,3.1,34.7-4.3,37.6-19.5c2.3-12.5,10.1-28.1,7-40c-1.1-4-15.8-5.7-16.3-9.3
			c-1-7-3.6-6.7-7.2-7.9c-21.7-7.4-36.8-12.6-38.9-5.3C487.2,503.2,485.7,560.1,510,567.8z"/>
		<path class="st46" d="M510.2,566.5c9.2,2.9,33.1-4.3,35.8-18.9c2.2-11.9,9.5-26.7,6.5-38.1c-1-3.9-14.9-5.6-15.5-9.2
			c-1-6.7-3.5-6.5-7-7.7c-20.7-7.1-35.1-11.8-37.1-4.4C488.2,505.6,487.1,559.1,510.2,566.5z"/>
		<path class="st47" d="M510.4,565.1c8.8,2.8,31.5-4.2,34-18.4c2-11.3,8.8-25.3,6-36.2c-1-3.8-14-5.6-14.6-9c-1-6.4-3.5-6.3-6.7-7.5
			c-19.6-6.8-33.4-10.9-35.4-3.6C489.2,507.9,488.5,558.1,510.4,565.1z"/>
		<path class="st48" d="M510.7,563.8c8.4,2.7,29.9-4.2,32.3-17.9c1.9-10.7,8.2-23.9,5.5-34.2c-1-3.7-13.2-5.5-13.7-8.8
			c-1-6-3.4-6.1-6.5-7.2c-18.5-6.6-31.7-10.1-33.6-2.7C490.2,510.2,489.9,557.2,510.7,563.8z"/>
		<path class="st49" d="M510.9,562.4c8,2.6,28.3-4.2,30.5-17.4c1.7-10.1,7.5-22.6,5-32.3c-0.9-3.6-12.3-5.5-12.9-8.7
			c-1.1-5.7-3.3-5.9-6.3-7c-17.5-6.3-30-9.3-31.8-1.9C491.2,512.5,491.2,556.2,510.9,562.4z"/>
		<path class="st50" d="M511.1,561.1c7.6,2.4,26.7-4.2,28.8-16.9c1.6-9.5,6.9-21.2,4.5-30.4c-0.9-3.5-11.4-5.4-12-8.5
			c-1.1-5.4-3.2-5.7-6.1-6.8c-16.4-6-28.3-8.5-30-1C492.2,514.8,492.6,555.2,511.1,561.1z"/>
		<path class="st51" d="M511.4,559.7c7.2,2.3,25-4.2,27-16.3c1.4-8.9,6.2-19.8,3.9-28.5c-0.9-3.4-10.5-5.3-11.2-8.3
			c-1.1-5.1-3.1-5.5-5.9-6.6c-15.3-5.7-26.6-7.7-28.2-0.2C493.2,517.2,494,554.2,511.4,559.7z"/>
		<path class="st52" d="M511.6,558.4c6.8,2.2,23.4-4.2,25.2-15.8c1.3-8.2,5.6-18.4,3.4-26.5c-0.9-3.3-9.6-5.3-10.3-8.2
			c-1.1-4.8-3.1-5.3-5.7-6.3c-14.3-5.5-24.9-6.9-26.5,0.7C494.2,519.5,495.4,553.2,511.6,558.4z"/>
		<path class="st53" d="M511.8,557c6.4,2.1,21.8-4.2,23.5-15.3c1.1-7.6,4.9-17.1,2.9-24.6c-0.8-3.2-8.7-5.2-9.4-8
			c-1.1-4.4-3-5.1-5.5-6.1c-13.2-5.2-23.2-6.1-24.7,1.5C495.2,521.8,496.8,552.2,511.8,557z"/>
		<path class="st54" d="M512.1,555.7c6,1.9,20.2-4.1,21.7-14.8c1-7,4.2-15.7,2.4-22.7c-0.8-3.1-7.8-5.2-8.6-7.9
			c-1.1-4.1-2.9-4.9-5.3-5.9c-12.1-4.9-21.5-5.3-22.9,2.3C496.2,524.1,498.2,551.2,512.1,555.7z"/>
		<path class="st55" d="M512.3,554.3c5.6,1.8,18.6-4.1,19.9-14.3c0.8-6.4,3.6-14.3,1.9-20.7c-0.8-3-6.9-5.1-7.7-7.7
			c-1.1-3.8-2.8-4.7-5.1-5.7c-11.1-4.6-19.8-4.4-21.1,3.2C497.2,526.4,499.6,550.3,512.3,554.3z"/>
		<path class="st56" d="M512.5,553c5.2,1.7,17-4.1,18.2-13.7c0.7-5.8,2.9-12.9,1.4-18.8c-0.8-2.9-6-5-6.9-7.5
			c-1.1-3.5-2.7-4.5-4.9-5.4c-10-4.3-18.1-3.6-19.4,4C498.2,528.7,501,549.3,512.5,553z"/>
		<path class="st57" d="M512.7,551.6c4.8,1.5,15.4-4.1,16.4-13.2c0.6-5.2,2.3-11.5,0.9-16.9c-0.7-2.8-5.1-5-6-7.4
			c-1.1-3.2-2.7-4.3-4.7-5.2c-9-4-16.4-2.8-17.6,4.9C499.2,531.1,502.4,548.3,512.7,551.6z"/>
		<path class="st58" d="M513,550.3c4.4,1.4,13.8-4.1,14.6-12.7c0.4-4.6,1.6-10.2,0.4-14.9c-0.7-2.7-4.2-4.9-5.2-7.2
			c-1.1-2.9-2.6-4.1-4.5-5c-7.9-3.7-14.7-2-15.8,5.7C500.2,533.4,503.8,547.3,513,550.3z"/>
		<path class="st59" d="M513.2,548.9c4,1.3,12.3-4,12.9-12.2c0.3-4,1-8.8-0.1-13c-0.7-2.6-3.3-4.9-4.3-7c-1.1-2.5-2.5-3.9-4.2-4.8
			c-6.9-3.4-13-1.2-14,6.6C501.2,535.7,505.2,546.3,513.2,548.9z"/>
		<path class="st60" d="M513.4,547.6c3.6,1.2,10.7-4,11.1-11.6c0.2-3.4,0.3-7.4-0.6-11.1c-0.7-2.5-2.4-4.8-3.4-6.9
			c-1.1-2.2-2.4-3.7-4-4.5c-5.8-3.1-11.3-0.4-12.2,7.4C502.2,538,506.6,545.3,513.4,547.6z"/>
		<path class="st61" d="M513.7,546.2c3.2,1,9.2-4,9.4-11.1c0.1-2.8-0.3-6-1.1-9.2c-0.6-2.4-1.5-4.8-2.6-6.7s-2.4-3.5-3.8-4.3
			c-4.8-2.7-9.6,0.4-10.5,8.3C503.2,540.3,508,544.3,513.7,546.2z"/>
	</g>
	<g class="st44">
		<path class="st45" d="M404,570.4c17.8,1.9,52.2-23.5,57.6-36.3s10-50.7,2.2-57.2c-7.8-6.6-30-21-34.4-20.3
			c-4.4,0.6-48.5,38.2-51.3,45.4c-2.8,7.2-1.3,31.6,0,41.3C379.3,552.9,387.2,568.6,404,570.4z"/>
		<path class="st62" d="M403.8,569.2c17.2,1.8,50.3-22.7,55.4-35.1c5.1-12.4,9.6-49.1,2.1-55.4c-7.5-6.4-28.8-20.3-33.1-19.7
			c-4.4,0.6-46.7,36.8-49.4,44c-2.7,7.1-1.3,30.5,0,39.9C379.9,552.4,387.6,567.5,403.8,569.2z"/>
		<path class="st63" d="M403.6,568.1c16.5,1.8,48.3-22,53.2-34s9.2-47.5,2-53.6s-27.5-19.7-31.8-19c-4.4,0.6-44.8,35.4-47.6,42.6
			c-2.7,7-1.3,29.5-0.1,38.5C380.6,551.9,388.1,566.4,403.6,568.1z"/>
		<path class="st64" d="M403.4,566.9c15.8,1.7,46.3-21.2,51-32.8c4.7-11.6,8.9-45.9,1.9-51.8c-6.9-5.9-26.3-19-30.5-18.4
			c-4.3,0.6-43,34-45.7,41.3c-2.6,6.9-1.3,28.4-0.1,37.2C381.2,551.4,388.5,565.3,403.4,566.9z"/>
		<path class="st65" d="M403.2,565.7c15.1,1.6,44.3-20.5,48.8-31.7c4.5-11.2,8.5-44.3,1.9-50c-6.6-5.7-25-18.4-29.2-17.8
			c-4.3,0.7-41.2,32.6-43.9,39.9c-2.5,6.8-1.3,27.4-0.1,35.8C381.9,550.9,389,564.2,403.2,565.7z"/>
		<path class="st66" d="M403,564.6c14.4,1.6,42.3-19.8,46.6-30.6c4.3-10.8,8.1-42.7,1.8-48.2c-6.3-5.5-23.8-17.7-27.9-17.1
			c-4.3,0.7-39.4,31.2-42,38.6c-2.4,6.6-1.3,26.3-0.2,34.4C382.5,550.4,389.4,563.1,403,564.6z"/>
		<path class="st67" d="M402.8,563.4c13.8,1.5,40.3-19,44.4-29.4c4.1-10.4,7.7-41.1,1.7-46.4s-22.5-17.1-26.6-16.5
			c-4.3,0.7-37.5,29.8-40.2,37.2c-2.3,6.5-1.3,25.3-0.2,33.1C383.2,549.9,389.9,562,402.8,563.4z"/>
		<path class="st53" d="M402.6,562.2c13.1,1.5,38.3-18.3,42.3-28.3c3.9-10,7.3-39.5,1.6-44.6c-5.7-5.1-21.3-16.4-25.3-15.8
			c-4.3,0.7-35.7,28.4-38.3,35.8c-2.3,6.4-1.3,24.2-0.2,31.7C383.9,549.4,390.3,560.9,402.6,562.2z"/>
		<path class="st68" d="M402.4,561.1c12.4,1.4,36.4-17.5,40.1-27.1c3.7-9.6,7-37.9,1.5-42.8c-5.4-4.9-20-15.8-24-15.2
			c-4.3,0.7-33.9,27-36.5,34.5c-2.2,6.3-1.3,23.1-0.3,30.3C384.5,548.9,390.8,559.8,402.4,561.1z"/>
		<path class="st38" d="M402.2,559.9c11.7,1.3,34.4-16.8,37.9-26s6.6-36.3,1.4-41s-18.8-15.2-22.6-14.5
			c-4.3,0.7-32.1,25.6-34.6,33.1c-2.1,6.2-1.4,22.1-0.3,28.9C385.2,548.4,391.2,558.6,402.2,559.9z"/>
		<path class="st69" d="M402,558.7c11.1,1.3,32.4-16,35.7-24.8c3.3-8.8,6.2-34.7,1.4-39.2c-4.8-4.5-17.5-14.5-21.3-13.9
			c-4.3,0.7-30.3,24.2-32.8,31.8c-2,6.1-1.4,21-0.3,27.6C385.8,547.9,391.6,557.5,402,558.7z"/>
		<path class="st70" d="M401.9,557.6c10.4,1.2,30.4-15.3,33.5-23.7s5.8-33.1,1.3-37.3c-4.6-4.3-16.3-13.9-20-13.3
			c-4.3,0.7-28.4,22.8-30.9,30.4c-2,6-1.4,20-0.4,26.2C386.5,547.4,392.1,556.4,401.9,557.6z"/>
		<path class="st43" d="M401.7,556.4c9.7,1.2,28.4-14.6,31.3-22.5s5.4-31.5,1.2-35.5c-4.3-4.1-15-13.2-18.7-12.6
			c-4.3,0.7-26.6,21.4-29.1,29c-1.9,5.9-1.4,18.9-0.4,24.8C387.2,546.9,392.5,555.3,401.7,556.4z"/>
		<path class="st71" d="M401.5,555.3c9,1.1,26.4-13.8,29.1-21.4c2.7-7.6,5.1-29.9,1.1-33.7c-4-3.9-13.8-12.6-17.4-12
			c-4.2,0.7-24.8,20-27.2,27.7c-1.8,5.8-1.4,17.9-0.4,23.5C387.8,546.4,393,554.2,401.5,555.3z"/>
		<path class="st61" d="M401.3,554.1c8.3,1,24.5-13.1,26.9-20.2s4.7-28.3,1-31.9s-12.6-11.9-16.1-11.3c-4.2,0.7-23,18.5-25.4,26.3
			c-1.7,5.6-1.4,16.8-0.5,22.1C388.5,545.9,393.4,553.1,401.3,554.1z"/>
		<path class="st72" d="M401.1,552.9c7.7,1,22.5-12.3,24.8-19.1c2.3-6.7,4.3-26.7,0.9-30.1c-3.4-3.5-11.3-11.3-14.8-10.7
			c-4.2,0.7-21.2,17.1-23.5,25c-1.7,5.5-1.4,15.8-0.5,20.7C389.2,545.4,393.9,552,401.1,552.9z"/>
		<path class="st73" d="M400.9,551.8c7,0.9,20.5-11.6,22.6-17.9c2.1-6.3,3.9-25,0.9-28.3c-3.1-3.2-10.1-10.6-13.5-10.1
			c-4.2,0.7-19.4,15.7-21.7,23.6c-1.6,5.4-1.4,14.7-0.5,19.3C389.8,544.9,394.3,550.9,400.9,551.8z"/>
		<path class="st74" d="M400.7,550.6c6.3,0.9,18.5-10.9,20.4-16.8c1.9-5.9,3.5-23.4,0.8-26.5c-2.8-3-8.8-10-12.2-9.4
			c-4.2,0.7-17.6,14.3-19.8,22.3c-1.5,5.3-1.4,13.6-0.6,18C390.5,544.4,394.8,549.8,400.7,550.6z"/>
		<path class="st75" d="M400.5,549.4c5.6,0.8,16.5-10.1,18.2-15.6c1.7-5.5,3.2-21.8,0.7-24.7c-2.5-2.8-7.6-9.4-10.9-8.8
			c-4.2,0.7-15.8,12.9-18,20.9c-1.5,5.2-1.4,12.6-0.6,16.6C391.2,543.9,395.2,548.7,400.5,549.4z"/>
		<path class="st42" d="M400.3,548.3c5,0.7,14.5-9.4,16-14.5c1.5-5.1,2.8-20.2,0.6-22.9s-6.3-8.7-9.6-8.1
			c-4.2,0.8-13.9,11.5-16.1,19.5c-1.4,5.1-1.4,11.5-0.6,15.2C391.8,543.4,395.7,547.6,400.3,548.3z"/>
	</g>
	<g class="st44">
		<path class="st45" d="M393.9,588.6c7.5,4.2,41.2,16.2,54.4,9.3c13.5-7,29.4-22.7,40.4-21.2c1.3,40.4-3.7,113.2,7.5,142.1
			c-9.2,1.6-34.5,1-42.1-1.6c-7.1-12.6-38.5-96.2-38.5-96.2l-7-5.1L393.9,588.6z"/>
		<path class="st76" d="M394.5,589.4c7.5,4.1,40.7,15.7,53.7,8.9c13.4-6.9,28.9-22,39.4-20c1.3,39.6-3.6,109,6.9,137.9
			c-8.8,2.4-32.3,3.4-39.8,0.9c-7.2-12.3-38.9-96.2-38.9-96.2l-7-5.2L394.5,589.4z"/>
		<path class="st77" d="M395.2,590.2c7.5,4.1,40.1,15.2,53.1,8.5c13.3-6.8,28.4-21.2,38.3-18.9c1.2,38.8-3.5,104.8,6.3,133.7
			c-8.4,3.1-30.1,5.9-37.6,3.5c-7.3-12-39.4-96.1-39.4-96.1l-7.1-5.3L395.2,590.2z"/>
		<path class="st78" d="M395.8,591.1c7.5,4,39.5,14.7,52.5,8.1c13.3-6.8,28-20.5,37.2-17.7c1.2,38-3.4,100.6,5.7,129.5
			c-8,3.8-27.9,8.4-35.4,6c-7.4-11.7-39.9-96.1-39.9-96.1l-7.1-5.4L395.8,591.1z"/>
		<path class="st79" d="M396.5,591.9c7.5,3.9,38.9,14.2,51.9,7.7c13.2-6.7,27.5-19.8,36.1-16.5c1.1,37.3-3.3,96.4,5.1,125.3
			c-7.6,4.5-25.6,10.9-33.2,8.5c-7.5-11.4-40.3-96-40.3-96l-7.2-5.5L396.5,591.9z"/>
		<path class="st80" d="M397.1,592.7c7.5,3.8,38.4,13.7,51.3,7.3c13.1-6.6,27-19.1,35-15.3c1,36.5-3.2,92.3,4.5,121.1
			c-7.2,5.2-23.4,13.4-31,11.1c-7.6-11.1-40.8-95.9-40.8-95.9l-7.2-5.6L397.1,592.7z"/>
		<path class="st81" d="M397.8,593.5c7.5,3.7,37.8,13.2,50.6,6.9c13.1-6.5,26.5-18.4,34-14.1c1,35.7-3.1,88.1,3.9,116.9
			c-6.7,6-21.2,15.8-28.8,13.6c-7.7-10.8-41.3-95.9-41.3-95.9l-7.3-5.7L397.8,593.5z"/>
		<path class="st82" d="M398.4,594.3c7.5,3.6,37.2,12.7,50,6.5c13-6.4,26-17.7,32.9-12.9c0.9,34.9-3,83.9,3.3,112.6
			c-6.3,6.7-19,18.3-26.6,16.1c-7.8-10.5-41.7-95.8-41.7-95.8L409,615L398.4,594.3z"/>
		<path class="st83" d="M399.1,595.1c7.5,3.6,36.7,12.3,49.4,6.1c12.9-6.3,25.5-17,31.8-11.7c0.9,34.1-2.9,79.7,2.7,108.4
			c-5.9,7.4-16.8,20.8-24.3,18.6c-7.9-10.1-42.2-95.8-42.2-95.8l-7.4-5.8L399.1,595.1z"/>
		<path class="st84" d="M399.8,596c7.5,3.5,36.1,11.8,48.8,5.7c12.9-6.2,25.1-16.3,30.7-10.6c0.8,33.3-2.8,75.5,2.1,104.2
			c-5.5,8.1-14.6,23.3-22.1,21.2c-8-9.8-42.7-95.7-42.7-95.7l-7.4-5.9L399.8,596z"/>
		<path class="st85" d="M400.4,596.8c7.5,3.4,35.5,11.3,48.2,5.2c12.8-6.1,24.6-15.6,29.7-9.4c0.8,32.6-2.7,71.3,1.5,100
			c-5.1,8.9-12.4,25.8-19.9,23.7c-8.1-9.5-43.1-95.7-43.1-95.7l-7.5-6L400.4,596.8z"/>
		<path class="st86" d="M401.1,597.6c7.5,3.3,35,10.8,47.5,4.8c12.7-6,24.1-14.9,28.6-8.2c0.7,31.8-2.6,67.2,0.9,95.8
			c-4.7,9.6-10.1,28.2-17.7,26.2c-8.2-9.2-43.6-95.6-43.6-95.6l-7.5-6.1L401.1,597.6z"/>
		<path class="st87" d="M401.7,598.4c7.5,3.2,34.4,10.3,46.9,4.4c12.7-5.9,23.6-14.2,27.5-7c0.7,31-2.5,63,0.3,91.6
			c-4.3,10.3-7.9,30.7-15.5,28.8c-8.3-8.9-44.1-95.6-44.1-95.6l-7.5-6.2L401.7,598.4z"/>
		<path class="st88" d="M402.4,599.2c7.5,3.1,33.8,9.8,46.3,4c12.6-5.8,23.1-13.4,26.4-5.8c0.6,30.2-2.4,58.8-0.3,87.4
			c-3.9,11-5.7,33.2-13.3,31.3c-8.4-8.6-44.5-95.5-44.5-95.5l-7.6-6.3L402.4,599.2z"/>
		<path class="st89" d="M403,600c7.5,3.1,33.3,9.3,45.7,3.6c12.5-5.8,22.7-12.7,25.3-4.6c0.6,29.4-2.2,54.6-0.9,83.2
			c-3.5,11.7-3.5,35.7-11.1,33.8c-8.5-8.3-45-95.4-45-95.4l-7.6-6.4L403,600z"/>
		<path class="st90" d="M403.7,600.8c7.5,3,32.7,8.8,45.1,3.2c12.5-5.7,22.2-12,24.3-3.4c0.5,28.7-2.1,50.4-1.5,79
			c-3.1,12.5-1.3,38.1-8.9,36.4c-8.6-8-45.5-95.4-45.5-95.4l-7.7-6.5L403.7,600.8z"/>
		<path class="st91" d="M404.4,601.7c7.5,2.9,32.1,8.3,44.5,2.8c12.4-5.6,21.7-11.3,23.2-2.3c0.4,27.9-2,46.3-2.1,74.7
			c-2.7,13.2,0.9,40.6-6.6,38.9c-8.7-7.7-45.9-95.3-45.9-95.3l-7.7-6.6L404.4,601.7z"/>
		<path class="st92" d="M405,602.5c7.5,2.8,31.6,7.9,43.8,2.4c12.3-5.5,21.2-10.6,22.1-1.1c0.4,27.1-1.9,42.1-2.7,70.5
			c-2.3,13.9,3.1,43.1-4.4,41.4c-8.8-7.4-46.4-95.3-46.4-95.3l-7.8-6.7L405,602.5z"/>
		<path class="st93" d="M405.7,603.3c7.5,2.7,31,7.4,43.2,2c12.2-5.4,20.7-9.9,21,0.1c0.3,26.3-1.8,37.9-3.3,66.3
			c-1.8,14.6,5.3,45.6-2.2,43.9c-8.9-7.1-46.8-95.2-46.8-95.2l-7.8-6.8L405.7,603.3z"/>
		<path class="st38" d="M406.3,604.1c7.5,2.7,30.4,6.9,42.6,1.6c12.2-5.3,20.3-9.2,19.9,1.3c0.3,25.5-1.7,33.7-3.9,62.1
			c-1.4,15.3,7.6,48.1,0,46.5c-9-6.7-47.3-95.2-47.3-95.2l-7.9-6.9L406.3,604.1z"/>
	</g>
	<g class="st44">
		<path class="st45" d="M493.4,577.8c3.6,1,42.6,10,52.5,7.9c2.5,1.1-1.4,35.1-1.1,40.8s-5.4,75.8-5.3,76.3s1.8,10,1.7,12.5
			c-3.9,2.7-31.1,3.8-35.1,4.6c-4,0.8-8.9,0.7-8.4,0.1c0.6-0.6-4.7-101.2-5.6-107.1c-0.9-5.9-2.1-32.6-2.3-33.7
			C489.5,578,490.2,576.9,493.4,577.8z"/>
		<path class="st94" d="M493.6,578.3c3.5,1,41.1,10,50.6,7.9c2.4,1.1-1.4,34.9-1,40.5c0.3,5.6-5.2,75.4-5.1,75.9
			c0.1,0.5,1.5,10.2,1.4,12.6c-3.7,2.7-29.9,3.7-33.7,4.5s-8.6,0.6-8.1,0c0.6-0.6-4.5-100.7-5.4-106.6c-0.9-5.9-2-32.4-2.2-33.6
			C489.8,578.4,490.5,577.3,493.6,578.3z"/>
		<path class="st95" d="M493.8,578.7c3.4,1,39.7,9.9,48.8,7.9c2.3,1-1.3,34.8-1,40.3s-5,75-4.9,75.6c0.1,0.5,1.3,10.4,1.2,12.7
			c-3.6,2.6-28.6,3.6-32.4,4.4c-3.7,0.8-8.4,0.4-7.8-0.2s-4.4-100.2-5.2-106c-0.8-5.9-1.9-32.2-2.2-33.4
			C490.2,578.8,490.8,577.8,493.8,578.7z"/>
		<path class="st96" d="M494,579.2c3.3,1,38.2,9.9,47,7.8c2.2,1-1.3,34.6-1,40.1c0.3,5.5-4.8,74.7-4.7,75.2c0.1,0.5,1.1,10.5,1,12.9
			c-3.5,2.6-27.4,3.6-31,4.3c-3.6,0.8-8.1,0.3-7.5-0.3c0.5-0.6-4.2-99.6-5-105.5c-0.8-5.9-1.9-32.1-2.1-33.2
			C490.5,579.3,491.1,578.2,494,579.2z"/>
		<path class="st97" d="M494.2,579.6c3.1,1,36.7,9.8,45.2,7.8c2.1,1-1.2,34.4-0.9,39.9c0.3,5.5-4.7,74.3-4.5,74.8s0.9,10.7,0.8,13
			c-3.3,2.6-26.1,3.5-29.6,4.2c-3.5,0.8-7.8,0.2-7.2-0.4c0.5-0.6-4.1-99.1-4.8-105s-1.8-31.9-2-33.1
			C490.9,579.7,491.5,578.7,494.2,579.6z"/>
		<path class="st98" d="M494.4,580c3,1,35.3,9.8,43.4,7.7c2,1-1.2,34.2-0.9,39.7c0.3,5.5-4.5,73.9-4.4,74.4
			c0.1,0.5,0.6,10.8,0.5,13.2c-3.2,2.6-24.9,3.4-28.2,4.1c-3.3,0.8-7.5,0-7-0.6c0.5-0.6-3.9-98.6-4.6-104.4
			c-0.7-5.8-1.7-31.8-1.9-32.9C491.2,580.2,491.8,579.1,494.4,580z"/>
		<path class="st99" d="M494.7,580.5c2.9,1,33.8,9.7,41.6,7.7c2,1-1.1,34.1-0.8,39.5s-4.3,73.5-4.2,74c0.1,0.5,0.4,11,0.3,13.3
			c-3.1,2.6-23.6,3.3-26.8,4c-3.2,0.8-7.2-0.1-6.7-0.7c0.5-0.6-3.7-98.1-4.4-103.9c-0.7-5.8-1.6-31.6-1.8-32.7
			C491.6,580.6,492.1,579.6,494.7,580.5z"/>
		<path class="st100" d="M494.9,580.9c2.8,1,32.3,9.7,39.8,7.7c1.9,1-1.1,33.9-0.8,39.3c0.3,5.4-4.1,73.1-4,73.6
			c0.1,0.5,0.2,11.1,0.1,13.5c-2.9,2.6-22.4,3.2-25.4,3.9s-6.9-0.2-6.4-0.8c0.5-0.6-3.6-97.6-4.3-103.3c-0.7-5.7-1.6-31.4-1.8-32.5
			C491.9,581.1,492.4,580.1,494.9,580.9z"/>
		<path class="st101" d="M495.1,581.4c2.6,1,30.8,9.6,38,7.6c1.8,1-1,33.7-0.8,39.1s-3.9,72.8-3.8,73.3s-0.1,11.3-0.1,13.6
			c-2.8,2.6-21.1,3.1-24,3.8c-2.9,0.7-6.6-0.4-6.1-1c0.4-0.6-3.4-97.1-4.1-102.8c-0.7-5.7-1.5-31.3-1.7-32.4
			S492.8,580.5,495.1,581.4z"/>
		<path class="st102" d="M495.3,581.8c2.5,1,29.4,9.6,36.2,7.6c1.7,1-1,33.5-0.7,38.9c0.2,5.4-3.7,72.4-3.6,72.9s-0.3,11.4-0.4,13.7
			c-2.7,2.5-19.8,3-22.6,3.7c-2.8,0.7-6.3-0.5-5.9-1.1c0.4-0.6-3.2-96.6-3.9-102.3c-0.6-5.7-1.4-31.1-1.6-32.2
			C492.6,582,493.1,581,495.3,581.8z"/>
		<path class="st103" d="M495.5,582.3c2.4,1,27.9,9.5,34.4,7.5c1.6,1-0.9,33.4-0.7,38.7s-3.5,72-3.5,72.5c0.1,0.5-0.5,11.6-0.6,13.9
			c-2.5,2.5-18.6,2.9-21.2,3.6c-2.6,0.7-6-0.6-5.6-1.2s-3.1-96.1-3.7-101.7c-0.6-5.6-1.4-30.9-1.5-32S493.4,581.4,495.5,582.3z"/>
		<path class="st104" d="M495.7,582.7c2.3,1,26.4,9.5,32.5,7.5c1.5,1-0.9,33.2-0.7,38.5c0.2,5.3-3.3,71.6-3.3,72.1s-0.7,11.7-0.8,14
			c-2.4,2.5-17.3,2.8-19.8,3.5c-2.5,0.7-5.7-0.8-5.3-1.4c0.4-0.6-2.9-95.6-3.5-101.2c-0.6-5.6-1.3-30.8-1.4-31.9
			C493.3,582.9,493.7,581.9,495.7,582.7z"/>
		<path class="st105" d="M495.9,583.2c2.1,1,25,9.4,30.7,7.5c1.4,1-0.8,33-0.6,38.3c0.2,5.3-3.2,71.2-3.1,71.7
			c0.1,0.5-1,11.9-1,14.2c-2.3,2.5-16.1,2.7-18.4,3.4c-2.3,0.7-5.4-0.9-5-1.5c0.3-0.6-2.8-95.1-3.3-100.7
			c-0.5-5.6-1.2-30.6-1.4-31.7C493.7,583.3,494.1,582.3,495.9,583.2z"/>
		<path class="st106" d="M496.2,583.6c2,1,23.5,9.4,28.9,7.4c1.4,1-0.8,32.8-0.6,38.1c0.2,5.3-3,70.8-2.9,71.3
			c0.1,0.5-1.2,12.1-1.3,14.3c-2.1,2.5-14.8,2.6-17,3.4s-5.1-1-4.8-1.6s-2.6-94.6-3.1-100.1c-0.5-5.6-1.1-30.4-1.3-31.5
			S494.4,582.8,496.2,583.6z"/>
		<path class="st54" d="M496.4,584.1c1.9,1,22,9.3,27.1,7.4c1.3,1-0.7,32.6-0.5,37.9c0.2,5.2-2.8,70.5-2.7,70.9
			c0.1,0.5-1.4,12.2-1.5,14.4c-2,2.5-13.6,2.5-15.7,3.3c-2.1,0.7-4.8-1.2-4.5-1.8c0.3-0.6-2.4-94-2.9-99.6s-1.1-30.3-1.2-31.4
			C494.4,584.2,494.7,583.2,496.4,584.1z"/>
		<path class="st107" d="M496.6,584.5c1.8,1,20.6,9.3,25.3,7.3c1.2,1-0.7,32.5-0.5,37.7c0.2,5.2-2.6,70.1-2.5,70.6
			s-1.7,12.4-1.7,14.6c-1.9,2.5-12.3,2.4-14.3,3.2c-1.9,0.7-4.5-1.3-4.2-1.9s-2.3-93.5-2.7-99c-0.4-5.5-1-30.1-1.1-31.2
			C494.7,584.7,495,583.7,496.6,584.5z"/>
		<path class="st38" d="M496.8,585c1.6,1,19.1,9.2,23.5,7.3c1.1,1-0.6,32.3-0.5,37.5c0.2,5.2-2.4,69.7-2.4,70.2
			c0.1,0.5-1.9,12.5-1.9,14.7c-1.7,2.5-11.1,2.4-12.9,3.1s-4.2-1.5-3.9-2c0.3-0.6-2.1-93-2.5-98.5c-0.4-5.5-0.9-29.9-1-31
			S495.4,584.1,496.8,585z"/>
	</g>
</g>
<path class="st42" d="M404.2,615c0.4,1,2.6,3.6,5,4.7c2.4,1.1,5.3,3.1,8.2,11.9c3,9,15.1,45.8,35.1,86.1c0.4,0.7,3.9,2,6.9,2.6
	c3.1,0.6,24,3.3,38.3,2.9c14.3-0.4,26-0.7,28.2-1.1c2.2-0.4-16.6,2.2-28.1,2.3c-11.5,0.1-32.5-0.5-38.5-1.7c-6-1.2-7.3-1.4-8.3-2.1
	c-14.6-31.9-34-85.3-35.1-88.6c-1.1-3.3-4.5-9.8-6.3-10.8c-2.6-1.4-4.2-2.3-5-3.5C403.9,616.6,403.8,614,404.2,615z"/>
<path class="st38" d="M557.3,503.3c-0.4,0.7-2.9,1.1-8.5-1.2c-5.5-2.3-7.5-3.1-7.5-6c0-2.9,1.3-5.9-3.3-7s-43.7-11.4-56.1-16.6
	c-12.4-5.2-31.1-12.7-35.9-14.7c-4.8-2-12-5.2-16.2-3.9c-4.8,0.2-0.7-3.7,3.4-2c4.2,1.7,13,2.6,25.6,8.8c12.6,6.3,40.4,16.1,49,18.5
	c8.6,2.5,29.3,8.2,32,8.8c2.7,0.6,3.2,2.5,3.1,5.2c-0.1,2.7-1.2,4.7,4.9,7C554,502.6,557.3,503.3,557.3,503.3z"/>
<path class="st42" d="M412.7,709.3c0,0,5.2,0,6.6-1.2c1.5-1.2,17.5-8.1,17.6-8.4s-3.7-8.3-4.3-9.6s-3.8-9.2-4.1-9.5
	c-0.3-0.3-2.3-0.9-3.7,0s-10.2,5.3-11.4,6.4c-1.2,1.1-2.4,3-2.3,5.4C411.4,694.8,412.7,709.3,412.7,709.3z"/>
<path class="st42" d="M407.8,666.8c0.8-1.1,6.1-9.4,7.1-10c0.9-0.7,4.2-2.6,3.5-3.4c-0.7-0.8-6-17.6-6.2-18.6
	c-0.3-0.9-1.8-1.4-2.6-0.1c-0.8,1.2-5.8,8.1-6.4,9.2s-0.4,3,0.1,5.2S407.8,666.8,407.8,666.8z"/>
<path class="st42" d="M424.4,678.8c0,0-7.3-19.7-7.7-20.6c-0.4-0.9-1.6-0.9-1.1,2.4c0.5,3.4,7.5,18.4,7.6,19.3
	C423.3,680.7,424.4,678.8,424.4,678.8z"/>
<path class="st42" d="M431.4,699.8c0.9-0.4-1.1-7.1-2.7-11c-1.6-3.9-2.8-7.9-3.9-7.1c-1.1,0.8,1.5,5.7,2.6,9.5
	S430.1,700.4,431.4,699.8z"/>
<path class="st42" d="M416.4,654c0.6-0.5-3-13-4.1-15.5c-1.1-2.4-1.4-4.2-2-3c-0.7,1.2,3.4,8.1,3.7,11.5
	C414.2,650.5,415.7,654.5,416.4,654z"/>
<path class="st42" d="M450.8,715.8c0.8,1.4,1.4,2.5,1.4,2.5s1.8,1.7,8.8,2.7s14.5,1.8,15.8,2c1.3,0.2-12.1,0.1-17-0.8
	c-4.9-0.9-7.9-2-8.3-2.3c-0.4-0.3-0.9-2.7-1.3-3.6C449.7,715.3,450.3,714.9,450.8,715.8z"/>
<path class="st42" d="M403.7,615.4c0.3-0.3,1.1,1.1,1.7,1.7c0.6,0.7,2.4,1.9,3.8,2.6c1.4,0.7,4.6,3.3,5.8,6.6
	c1.2,3.3,4.1,11.4,4.7,13.7c0.6,2.3-0.1-0.2-1.6-3.4s-2.9-8.5-3.6-9.9s-2.5-5.2-5.5-6.4c-3-1.2-3.6-1.7-4.5-2.7
	C403.7,616.6,403.6,615.5,403.7,615.4z"/>
<g>
	<defs>
		<path id="SVGID_12_" d="M547.2,486.9l-30.5-26.4l0.1-21l7.3,1c0,0,29,26.9,30.5,29.3C549.6,480.8,547.2,486.9,547.2,486.9z"/>
	</defs>
	<use xlink:href="#SVGID_12_"  style="overflow:visible;opacity:0.1;fill:#FFFFFF;"/>
	<clipPath id="SVGID_13_">
		<use xlink:href="#SVGID_12_"  style="overflow:visible;opacity:0.1;"/>
	</clipPath>
	<g class="st108">
		<line class="st109" x1="504.4" y1="454.9" x2="524.1" y2="435.4"/>
		<line class="st109" x1="505.3" y1="455.9" x2="525.1" y2="436.5"/>
		<line class="st109" x1="506.3" y1="456.8" x2="526.2" y2="437.5"/>
		<line class="st109" x1="507.3" y1="457.8" x2="527.2" y2="438.5"/>
		<line class="st109" x1="508.2" y1="458.7" x2="528.2" y2="439.5"/>
		<line class="st109" x1="509.2" y1="459.7" x2="529.2" y2="440.6"/>
		<line class="st109" x1="510.2" y1="460.7" x2="530.2" y2="441.6"/>
		<line class="st109" x1="511.1" y1="461.6" x2="531.3" y2="442.6"/>
		<line class="st109" x1="512.1" y1="462.6" x2="532.3" y2="443.6"/>
		<line class="st109" x1="513.1" y1="463.6" x2="533.3" y2="444.7"/>
		<line class="st109" x1="514" y1="464.5" x2="534.3" y2="445.7"/>
		<line class="st109" x1="515" y1="465.5" x2="535.3" y2="446.7"/>
		<line class="st109" x1="516" y1="466.4" x2="536.4" y2="447.7"/>
		<line class="st109" x1="516.9" y1="467.4" x2="537.4" y2="448.8"/>
		<line class="st109" x1="517.9" y1="468.4" x2="538.4" y2="449.8"/>
		<line class="st109" x1="518.9" y1="469.3" x2="539.4" y2="450.8"/>
		<line class="st109" x1="519.8" y1="470.3" x2="540.4" y2="451.8"/>
		<line class="st109" x1="520.8" y1="471.2" x2="541.5" y2="452.8"/>
		<line class="st109" x1="521.7" y1="472.2" x2="542.5" y2="453.9"/>
		<line class="st109" x1="522.7" y1="473.2" x2="543.5" y2="454.9"/>
		<line class="st109" x1="523.7" y1="474.1" x2="544.5" y2="455.9"/>
		<line class="st109" x1="524.6" y1="475.1" x2="545.5" y2="456.9"/>
		<line class="st109" x1="525.6" y1="476.1" x2="546.6" y2="458"/>
		<line class="st109" x1="526.6" y1="477" x2="547.6" y2="459"/>
		<line class="st109" x1="527.5" y1="478" x2="548.6" y2="460"/>
		<line class="st109" x1="528.5" y1="478.9" x2="549.6" y2="461"/>
		<line class="st109" x1="529.5" y1="479.9" x2="550.6" y2="462.1"/>
		<line class="st109" x1="530.4" y1="480.9" x2="551.7" y2="463.1"/>
		<line class="st109" x1="531.4" y1="481.8" x2="552.7" y2="464.1"/>
		<line class="st109" x1="532.4" y1="482.8" x2="553.7" y2="465.1"/>
		<line class="st109" x1="533.3" y1="483.7" x2="554.7" y2="466.2"/>
		<line class="st109" x1="534.3" y1="484.7" x2="555.8" y2="467.2"/>
		<line class="st109" x1="535.3" y1="485.7" x2="556.8" y2="468.2"/>
		<line class="st109" x1="536.2" y1="486.6" x2="557.8" y2="469.2"/>
		<line class="st109" x1="537.2" y1="487.6" x2="558.8" y2="470.3"/>
		<line class="st109" x1="538.2" y1="488.6" x2="559.8" y2="471.3"/>
		<line class="st109" x1="539.1" y1="489.5" x2="560.9" y2="472.3"/>
	</g>
</g>
<g class="st110">
	<path class="st111" d="M636.8,484.5c0,0-26.6-18.2-47.2-25.7"/>
	<path class="st112" d="M560.9,447.8c0,0-23.1-6.7-35.1-8.2c-12-1.6-28.8-5.8-42-4c-13.2,1.8-43.4,10-43.4,10"/>
	<path class="st112" d="M559.3,444.3l7.2,8c0,0,4.4-4.9,6.5-3.6"/>
	<path class="st112" d="M576.3,448.9c0,0-1.5,4.1-1.9,4.5"/>
	<path class="st112" d="M566.9,462.4c0,0,2.6-2,3.3-3.2c0.7-1.1,0.6-1.2,2-1.5s1.1-1.5,0.8-2.4s2.3-0.9,2.3-0.9s1.7-0.7,2-0.5
		s3.4,4.9,4,5.2s2.5,0.5,2.5,0.5s-1.2-2.9-2.4-4.5s-2.3-2.8-2.3-2.8"/>
	<path class="st112" d="M584.3,452.8c0,0,1.8,3,1.8,4.5"/>
	<path class="st112" d="M581.1,448.8c0,0-6.5-7-16.4-1.8"/>
	<path class="st111" d="M565.1,502.7c0,0-15-8-16.1-9.6s-1.2-5.2,2.7-15.3c3.9-10.2,8.6-20.9,8.6-20.9"/>
	<path class="st111" d="M565.5,444.1c0,0,11.2-25.3,13-29.8c1.8-4.5,6.1-13.6,6.1-13.6"/>
	<path class="st111" d="M607.4,407.2c0,0-10.9,27.3-12,30.9"/>
	<path class="st112" d="M562.4,450.4c0,0-2.9,5.2,3.5,11.5"/>
	<path class="st112" d="M569.8,462.4c0,0,5.6,4.6,14.9-0.1c-0.3-1-1-2.6-1-2.6"/>
</g>
<path class="st38" d="M477.8,370.7c0.4,1.8,0.4,7.3-0.4,10.4c-0.8,3.1-1.4,6.5-1,7.9c0.4,1.4,3.5,1.6,3.5-0.4c0-2,2.6-4.3,2.6-6.7
	c0-2.4,1.8-8.3,1.4-8.8c-0.4-0.6,0-2.6,3.1-2c3.1,0.6,10.8,1.8,11.2,2.6s2.8,4.9,2.4,7.5s1.8,5.9,3.7,7.7c2,1.8,5.5,3.9,4.9,6.5
	c-0.5,2.3-3,3.8-4.3,3.2c-0.2-0.1-0.3-0.2-0.4-0.3c-1.2-1.2-5.7-5.9-7.5-6.3c-1.8-0.4-7.3,0-8.5,0.6c-1.2,0.6-9.4,8.3-9.4,8.3
	s-0.4,5.7,1.8,4.1c2.2-1.6,10.6-5.1,12.4-5.9c1.8-0.8,17.9,0.2,19.3,2.8c1.4,2.6,3.9,5.7,1.4,6.1c-2.6,0.4-10.2-0.8-12.2-1.2
	c-2-0.4-13.6-1.2-14.9-1.2s-14.3-1.6-16.7-1.6c-2.4,0-9.6-0.6-9-0.4c0.6,0.2,11.2,3.9,14.5,3.9c3.3,0,20.8,2,23.4,1.4
	c2.6-0.6,9.2,0.8,7.9,1.4c-1.4,0.6-15.3,5.7-17.5,6.1c-2.2,0.4-16.5,8.8-16.5,8.8l-16.1,7.9l-10.4,7.1c0,0,24-10.2,26.1-11.4
	c2.2-1.2,24-10.8,25.5-12s12-3.5,13.8-4.7c1.8-1.2,3.1,1.8,2.9,4.3s-0.8,7.5,0.2,8.5c1,1,8.3,8.5,9.6,9.2c1.4,0.8,4.1-8.3,6.1-10.4
	c2-2.2,8.6-3.5,11.2-2.2s10.6,8.1,10.6,8.1s2.9,10.2,3.5,11.2s-4.7,2.2-6.3,1.8c-1.6-0.4-30.9-8.5-35.6-8.6
	c-4.7-0.2-28.7-1.2-31.6-0.6c-2.9,0.6-22.4,5.7-26.1,6.1s-16.3,3.9-16.5,3.1c-0.2-0.8,2-8.3,3.1-10.8s11.2-23.4,11.8-24.2
	c0.6-0.8,2.8-5.9,3.5-5.7c0.8,0.2,9.8-0.6,11-0.8s-1.2-6.9-1.8-8.1c-0.6-1.2-3.1-7.9-3.7-9.2c-0.6-1.4-2.9-3.9-0.8-4.9
	s9-7.3,9.8-8.1C473.7,369.9,477.8,370.7,477.8,370.7z"/>
<path class="st38" d="M360.2,427.4c0.1-1.5,3.5,8.7,4.7,12.1s10.8,17.4,12.5,18.7c1.7,1.4,12.3,2.4,15.3-1.4
	c3-3.8,5.9-15.6,4.7-19.3c-1.2-3.6-2.4-14.8-2.1-17s4.3-4,7.6-6.1c3.3-2.1,9.4-6.6,10.9-4.9c1.6,1.7,6.4,13.7,6.4,13.7l-0.5,20.5
	c0,0-4.6,16.5-6.2,17.9c-1.6,1.4-5.8-0.3-8.2,0.4c-2.4,0.7-14.4,7.3-15.6,8.9c-1.2,1.6-7.8,9.5-7.8,9.5s-6.1,4.3-8,4.3
	s-3.1-4.7-4.3-7.1s-7.1-23.8-8.5-29C359.7,443.5,359.9,431.7,360.2,427.4z"/>
<path class="st38" d="M500.6,466.1c0-3,1.6-5.8,1-7.2s-2.2,2.6-3.2,3.4C497.4,463.1,500.6,466.1,500.6,466.1z"/>
<path class="st38" d="M508.8,446c1.2,1.8,2.4,6.8,2.4,6.8s-1.6,3.2-0.2,3.8c1.4,0.6,3,4.6,3,4.6s-0.4,4.4-1.6,3.4
	c-1.2-1-2.2-3.6-3.8-6c-1.6-2.4-3.8-3.8-2.4-5.2s1.2-2.8,0.4-4.2c-0.8-1.4,0.2-4.4,0.2-4.4L508.8,446z"/>
<path class="st38" d="M492.2,460.6c0.9,0.1,1.9-3.2,1.5-5.6c-0.4-2.4,0.4-9.1-0.1-10.2c-0.5-1.1-1.2-0.8-1.5,3.3
	C491.8,452.3,492.2,460.6,492.2,460.6z"/>
<path class="st38" d="M495.6,459.1c0.8,0.3,1.3-8.8,0.8-11.4c-0.5-2.5-1.2-5.5-1.3-2.3C494.9,448.7,494.8,458.8,495.6,459.1z"/>
<path class="st38" d="M498.9,455.3c0.7,0.1,1.5-1.1,1.5-3.6s0.8-5.9-0.3-8c-1.1-2.1-2.1-3.3-1.7-1.1
	C498.8,444.9,498.9,455.3,498.9,455.3z"/>
<path class="st38" d="M640.4,476.4c0.3-0.9,10.3-29.9,11.3-33.2c0.9-3.3,3.6-13.8,2.8-14.4c-0.8-0.6-7.4,5.2-8.6,8
	c-1.3,2.8-7.7,11.3-8,14.4c-0.3,3.1-1.4,18.8-1.4,18.8L640.4,476.4z"/>
<path class="st38" d="M657.1,422.9c-0.9,1.6-7.2,1.6-9.7,1.1c-2.5-0.5-24.2-6.7-26.1-7c-1.9-0.3-5.3-4.5-5.3-4.5s15,4.5,25,6.9
	C651,421.6,657.1,422.9,657.1,422.9z"/>
<path class="st38" d="M577.3,395.4c0.9,0.6,2.5,4.4,2.5,6.5c0,2-2,9-2.7,10.2c-0.6,1.3-2.7,3.3-2.4,1.9c0.3-1.4,2-5.5,1.7-8.2
	c-0.3-2.7-0.9-7.9-0.9-7.9s0.5,8.8,0,9.9c-0.5,1.1-2,4.1-2,3.5c0-0.6,0.5-7.6,0.6-9.4c0.2-1.9-0.9,3.5-1.1,4.9
	c-0.2,1.4-0.9,5.7-0.9,6.8c0,1.1-0.6,5.5-0.6,5.5s-0.9-4.9-0.9-6.5c0-1.6,0.8-8.5,0.8-9.8s0.5-5,0-3.5c-0.5,1.6-3.1,5.5-3.1,5.5
	l-1.3-0.3l3.3-9c0,0,1.4-3.8,1.6-3.1C571.9,393,577.3,395.4,577.3,395.4z"/>
<path class="st91" d="M525.3,752.9c0.8-0.6,13.5-13.4,14.8-15.9c1.3-2.5,6.8-6.3,3.3-1.3c-3.5,5-16.7,17.5-17.8,18.4
	C524.5,755.1,525.3,752.9,525.3,752.9z"/>
<path class="st91" d="M494.1,757.3c-1.1-3.1-10.9-20-12.1-21.9c-1.3-1.9-1.6-3.5-3.3-3.5c-1.7,0-0.3,3.6-0.3,3.6s12.9,20.2,14,21.6
	C493.5,758.6,494.1,757.3,494.1,757.3z"/>
<path class="st91" d="M424,716.2c1.1-2.4,8-7.6,8.2-7.1c0.2,0.5,29.1,27.9,31.5,30.6c2.4,2.7,16.7,16.9,16.7,16.9l-25.2-12.6
	l-22-12.1c-4.4-3.8-6-5.4-7.7-8.3C423.7,720.5,424,716.2,424,716.2z"/>
<path class="st91" d="M412.1,731.2c-1.1-3.3,1.4-6.5,2-9c0.6-2.5,2.4-3.1,3.1-2c0.8,1.1,0.5,0.6-0.5,3c-0.9,2.4-3.1,7.9-3.1,7.9
	C413.2,732.6,412.2,731.7,412.1,731.2z"/>
<path class="st91" d="M428.5,730.1c-0.9-1.9,26.8,16.2,26.8,16.2s21.1,11,23.6,11.7c2.5,0.6,12.8,8,12.8,8l4.6,9.4
	c0,0-0.5,10.4-0.5,11s-13.9-6.3-15.9-7.1c-2-0.8-24.9-15.3-26.5-16.4c-1.6-1.1-13.7-12.1-16.5-14.3
	C434,746.5,428.8,730.7,428.5,730.1z"/>
<path class="st91" d="M387.9,879.9c2.1-0.9,11.3-8.2,22.1-10.5s17.1-3.7,19.3-6.3c2.2-2.6,12-14.5,12.8-16.2
	c0.8-1.7,8.7-12.2,8.7-12.2s-8.7,11.7-12.3,15.6s-9.6,11.7-11.1,13s-11.9,2.8-14.7,3.2s-12.5,3.2-16,5.7s-6.9,4.2-8.2,5.6
	S386.4,880.5,387.9,879.9z"/>
<path class="st96" d="M642.4,868.1c-18.9-1.9-29.2-1.4-32.3-4.4s-31.1-28.6-34.7-31.1s-2.5,0.3,3.4,7.8c5.9,7.5,29.1,26,32,28
	S642.4,868.1,642.4,868.1z"/>
<path class="st91" d="M394.9,875.4c3.2-0.9,12.4-4.4,19.4-6.6c7-2.2,14.1-2.5,16.7-7.2c2.7-4.7,26-31.3,29.1-36.3
	s-24.4,5.8-33.3,10.8s-34.1,19.4-35.7,20.8c-1.6,1.4-2.7,4.2-3.9,8.9c-1.3,4.7-3.4,12.5-2.3,13.6C386,880.6,392.6,876,394.9,875.4z"
	/>
<path class="st91" d="M389.6,855.4c1.6-2,14.7-10.5,20.2-13.5s19.7-9.5,21.7-11.4c2-1.9,44.9-25.8,45.7-26.4s-26.3,0.6-34.1,4.8
	c-7.8,4.2-40.2,17.5-42.4,18.6c-2.2,1.1-7.4,12.5-7.7,15.8C392.7,846.6,389.6,855.4,389.6,855.4z"/>
<path class="st113" d="M561.5,330.5c4-3.5,11.7-12,12.6-14.8c0.9-2.7,1.2-7.3,2.9-9.9c2.6,0.5,7.1-1.7,7.9-5
	c0.8-3.3,0.5-10.3,2.6-13.8c2.1-3.5,6.4-5.3,4.4-14.5s-13.7-54.2-18-62.8c-4.3-8.7-8.4-22.2-29.5-37.3c-16.9-12-26.6-2-26.6-2
	s-1.2-3.8-4.3-0.2c-2.3-1.7-5.5-2.6-6.8-0.8c-5-1.8-13.8-7.2-32.6,1.1c-18.7,8.2-44.1,42.7-46.2,52.9s-0.9,24.3-2.9,29.1
	s-20.2,32.4-7.8,55.2c-3.3,7.8-0.9,20.7,8.5,30.4c-2.1,10.5-0.5,18.9-0.5,18.9s-4.7,5.2-2.1,14.3c-4.4,4.3-5.6,5.9-5.6,5.9
	s-5.3-5.2-11,2s-2.9,8.8-2.9,8.8s-2.7,2.1-4.9-1.1c3.8,4,5.6,3.2,5.6,3.2l2.1,2.9c0,0,0.9,2.1-2.7,1.7c2.4,1.4,3.7,0.5,3.7,0.5
	s2.9,4,2.7,4.4s3.7,4.6,4,5.6c0.3,1.1,0.8,7,4.6,11c-0.5,6.7-3.7,11.1-3.7,14c0,2.9-3.7,9.3-4.3,11.7c-0.6,2.4,0.3,9.4,0,11.3
	s-4,5.3-4.1,6.8c-0.2,1.5-0.9,2.3-0.9,2.3l-3.7,6.7c0,0-12.9,14.3-22.8,11.3s-12,11.4-12,11.4s5.9-4.1,15.2-2.1
	c-8.5,2.9-14.8,3.2-16.7,15.8c4.3-8.8,14.3-10.5,14.3-10.5s-12.3,4.6-12.6,12.2c7.1-0.9,11.7-1.8,11.7-1.8l-4.4,10.8
	c0,0,9.6-5.5,11.3-11.3c-4,10.6-4.3,12.6-4.3,12.6s10.6-2,10.8-9.6c0.2,10,0.8,13.8,10,16.3c0,0-6.7-3.2-6.4-11.6
	c0.3-8.4,1.2-13.4,1.2-13.4s3.7,13.5,19.9,20.5c-11.4-14.5-15.2-26.2-15.7-27.8s2.9-6.4,6.7-9.4c3.8-3,6.8-9.1,7.3-10.6
	c0.5-1.5,7.8-4.4,9.1-8.8c1.4-4.4,5-7.8,6.2-11.4c1.2-3.7,4-13.1,8.2-21.8c4.3-8.7,14.8-21.1,16.7-27.2c2-6.1,1.1-29.5,3-34.8
	s5.2-11.7,5.2-13.8c0-2.1-0.3-6.8-1.2-13.7C462.2,333.4,561.5,330.5,561.5,330.5z"/>
<path class="st114" d="M430.5,245.3c0,0,2.9-2.8,3.5-5.7s1.3-5.9,5.5-5.5s8.3-0.2,11.8-3.5c-4.2,2.2-10.3,2.6-12.7,1.7
	c7.2-0.7,10.3-3.1,12.3-3.5s7.4-3.1,12-8.7c-3.7,2.2-13.1,7.5-15.1,8.3c13.8-7.9,20.6-13.8,24.7-17.1c-13.1,8.7-18.2,11.2-18.2,11.2
	s3.7-2.9,10.3-7.5c6.6-4.6,11.4-11,11.4-11s-11.4,10.3-14.7,12.1c8.1-7.4,8.8-8.7,8.8-8.7s-6.4,2.6-7.9,3.7s-7.7,5.5-10.5,5.7
	c9.6-7.5,16-10.9,22.6-13.4c-7.5,2-23.4,9.9-28.2,15.6c9-8.7,24.8-16.2,24.8-16.2s3.5-2.2,7.4-5.9c-8.1,4.8-15.6,7-19.3,10.1
	c7.9-7.2,14-8.8,19-12.5c-9.4,3.7-9.4,3.7-9.4,3.7s7.5-5.9,11.4-6.8c3.9-0.9,7.2-2,7.2-2s-5.9-0.2-9,0.9c-3.1,1.1-5.7,2.4-5.7,2.4
	s9.4-4.6,13.4-6.4c-11,2.9-12.9,4-12.9,4s-12.7,5.3-16.4,10.3c0,0,4.4-4,9.8-5.2c-8.1,5.2-12.5,9.8-15.6,14.9
	c8.5-8.8,15.6-12.7,15.6-12.7s-8.3,7.7-12,11.2c-3.7,3.5-10.5,9.4-12.3,10.1c-1.8,0.7-5.5,2-10.5,9.8c5.9-5.9,7.5-7.4,12.1-8.3
	c-3,1.7-7.2,5.4-9.9,7.9c-1.6,1.5-2.7,2.5-2.7,2.5s8.5-8.1,14.5-9.2c-4.6,3.1-7.7,6.4-10.1,7.9c9.9-5.9,14.4-8.5,19.1-11.6
	c0,0-6.8,5.5-10.3,7.9s-8.3,5.9-8.7,5.5c-0.4-0.4,11-5,14.2-7.5c0,0-11,7.5-16.8,10.3C429.4,237.2,430.5,245.3,430.5,245.3z"/>
<path class="st114" d="M496.9,175.6c0,0-24.8,4.3-35.7,15.6c-10.9,11.4-17.7,25.3-17.7,25.3s4.4-10.9,16.4-19.2
	c-5.4,5.9-19.5,26.2-19.5,26.2s-0.3-6.1,7.8-18.8C456.4,192,462.7,182.9,496.9,175.6z"/>
<path class="st114" d="M482.7,173.1c0,0-1.2,0.4-3,1.3c-1.9,0.9-4.5,2.2-7.4,3.9c-6.7,4.1-14.8,10.8-17.8,20
	c1.9-7.2,4.7-10.4,4.7-10.4s-15.8,15.9-17.2,21.2c-1.5,5.3-3.3,10.6-3.3,10.6s1.1-11.3,3.6-14.7c2.5-3.5,8.6-21,31.1-32.2
	c-11.8,8.2-21.9,16.5-27.2,27.5c8.4-12.4,12.6-16.9,22.2-22.1c-11.1,7.1-14.9,13.6-14.9,13.6s13.5-11.7,18.5-14.5
	C476.8,174.5,482.7,173.1,482.7,173.1z"/>
<path class="st115" d="M504.2,369.9c-3.7,0-28.8-3.5-37.5-8.6c-3.6-11.3-3.4-22.3-3.7-24.3s21.6,7.9,26.8,13.7
	C494.9,356.6,504.2,369.9,504.2,369.9z"/>
<path class="st116" d="M515.7,368.1c0,0,4.7-0.2,10.7-1.6c6-1.4,31.5-10.3,32.9-11.2c-7.6-3.1-2.5-13.2-2.5-15.7
	C556.8,337,515.7,368.1,515.7,368.1z"/>
<path class="st117" d="M508.1,369.9c8.3,0,13.9-2,22-7c8.1-5,14.8-9.1,19.3-13.8c4.5-4.7,7.3-7.7,13-16.9c5.7-9.2,4.4-29.4,3.4-32
	c-0.9-2.6-13.2-28.1-17-41.8s-11.4-51-24.4-51.7s-13.3-6.6-13.3-6.6s-3.8,6.4-11.4,6.9c-7.6,0.5-35,1.7-41.4,21.9
	c-6.6,20.9-12.4,45.4-12.4,45.4s-13.5-5-12.8,0.5c0.7,5.5,1.9,14.2,1.7,19.4c-0.2,5.2,4,21.8,19,19c2.4,11.4,6,22.9,8.1,25.6
	c2.9,3.7,19.7,17.1,24.9,21.8C491.9,365.3,501,369.9,508.1,369.9z"/>
<path class="st118" d="M480.8,342.7c1.8,3.9,5.3,7.3,10.2,7.4c3.1,0.1,8.5,3.1,10.6,6.4c2.1,3.2,3.1,8-2.1,8.9s-12.1-5.9-20-12.2
	c-4.2-3.4-16.2-13.3-17.7-16.4c-1.5-3.1-6.3-17.9-7.6-24c-0.9-4.5-5.7-14.9-6.2-21.8c-0.5-6.8,1.4-24.9,2.5-30.7
	c1.1-5.8,7.3-28.8,9.1-32.8c4.2-9.3,15.5-16.1,29.1-18.7c-6.8,16.9-8.7,39.1-8.7,39.1c-0.3,4.2-2.9,10.2-3.7,12.5s-4.2,5-5.5,6.5
	c-1.3,1.5-10.2,5.8-10.9,11.5c-0.6,5.7,1.8,28.1,6.5,36.9c1.5,2.7,10.7,14.1,12,16.7C479.7,334.8,480.8,342.7,480.8,342.7z"/>
<path class="st118" d="M489.3,332c-0.1,0.4,2.4-0.1,4.9-1.1c2.5-0.9,8.3-5.4,11.5-4.6c0-5.3,1.5-9,1.6-9.4c0.1-0.4-1.5-1.6-2.1-1.5
	c-0.7,0.1-2.5,1.1-3.2,0.9c-0.7-0.1-2.9,3.3-3.8,5.2C497.2,323.4,490.3,327.8,489.3,332z"/>
<path class="st118" d="M510.6,318.3c0,0,0.7,2.7,0.7,4.4s-0.7,3.9,1.5,3.7s2.4-7.3,1.5-8.5c-1-1.2-2.4-2.7-2.4-2.7s2.5-2.7,3.9-3.4
	c1.6-0.8,6.3-1.4,3.2,2.7c3.4-0.2,3.7-4.5,1.5-4.7c-2.2-0.2-4.9,0.8-8.2,4.3C509.7,316.7,510.6,318.3,510.6,318.3z"/>
<path class="st118" d="M506.4,311.3c-0.7-0.7-4.6-1.2-6-0.7c-0.9,0.3-2.6,1.6-2.8,2.6c-0.2,1-1.9-0.4-1.9-1.6c0-1.2,1.1-7.1,1.2-8.5
	s-1.9-4.6-3.6-6.1c-1.7-1.5,2.7-7.1,3.7-8.6c1-1.4,2-5.9,2.2-7c0.2-1-4.2-8.2-6.2-9.7c-2-1.5-5.8-2.8-5.8-2.8s7,1.9,9.1,4.4
	c2.6,3.1,3.8,4.1,4,4.6s0.7-4.8-0.2-6.2c-2.5-3.9-8-6.5-9.3-7c-1.3-0.5-2.6-1.4-2.6-1.4s9.5,1.6,11.1,2.2c3.6,1.3,6.6,6.4,7.6,7.8
	c0.9,1.4,1,16.9,1.1,18.4c0.1,1.5-0.3,14.8-0.1,17c0.1,0.7,0.3,4.2,0.6,5c0,0.1-0.5-0.2-1.1-0.9
	C507.1,312.4,506.8,311.7,506.4,311.3z"/>
<path class="st118" d="M489.4,257.6c2.9,0.2,11.3-2.4,11.7-4.1c0.5-1.7-4.6-11-4.3-15.8c0.2-4.8,3.6-15.6,4.1-18.4
	s-11.3,0.5-12.9,5.3c-1.7,4.8-3.8,14.1-3.4,19.2c0.5,5-1,9.3-1,10.8C483.7,255.9,489.4,257.6,489.4,257.6z"/>
<path class="st118" d="M451.8,310.9c-0.7,1.5-2.8,3.1-7,1.5c-4.2-1.6-8.7-12.1-8.9-13.7c-0.1-1.6,0-12.2-0.8-13.6
	c-0.7-1.5-1.2-9.8-1.2-10.9c0-1.2,5.8-1.3,6.9,0.5c1.2,1.8,2.8,5.6,2.6,9c-0.1,3.4-0.1,14.9,0.3,16.5c0.4,1.6,2.1,3.5,3.2,2.5
	c1.2-1,3.2-0.9,4,1.2S451.8,310.9,451.8,310.9z"/>
<path class="st119" d="M511.8,327.9c0,0,3.9-3.2,4.1-4c0.2-0.8-2.2-6.8-2.5-7.5s-1.9-1.4-0.6-2.5c1.3-1.1,5.5-3.7,6.2-2.5
	c0.7,1.1-0.9,3.1-0.9,3.1s3.1,0.2,4.2-0.5s0.7-3.7-0.7-4.4s-5.1-0.8-8.2,1.4s-3.9,2.3-5.1,1.1c-1.2-1.2-1.2-5.2-1-7.4
	c0.2-2.2,2.9-26.4,2.3-28.4c-1.5-5.9-7.2-10.3-10.3-11.5c-3.1-1.1-5.8-4.5-2.9-5.2c2.9-0.6,14.5-1.5,15.1-5.2
	c0.6-3.7,0.3-26.3-0.2-32.7c-0.5-6.3-0.3-18.7,0-19.7c0.3-1,0.5,0.8,4.2,2.4c4.2,1.9,10.1,2.1,12.8,3.4c3.3,1.5,9.9,11,15.5,32.8
	c1.4,5.4,5.7,19.3,6.7,23.6c1,4.2,7.8,20.4,10.9,25.6c4.6,8,4.9,14.5,3.7,26.2c-1.5,15.3-19.9,33.4-23,36.7
	c-3.1,3.2-15.9,11.7-23.3,11.6c-3.7,0-6.6-8.3-6.1-13.7c0.5-5.4,6.1-4.6,8-7c1.9-2.4-5.3-1.9-8.1-2.6c2.2-1.3,5.2-5.4-2-7.1
	C528.9,330.3,511.8,327.9,511.8,327.9z"/>
<path class="st120" d="M500.2,277.5c-0.4-0.6-4.2-6.2-10.3-7.7c-4.2-1.1-7-1.2-9.9,0.1c-2.9,1.3-9.6,5.4-10.6,6.3
	c-1,1-5.9,3.6-5.9,3.6s7.7-7.1,9.3-8.1c1.9-1.2,4.1-2.7,8-3.7c1.6-1.3,1-5-1.6-5.4c8.5,0.3,9.4,1,12.4,2.5c6.8,3.3,8.3,6.3,8.5,8.2
	C500.3,275.4,500.2,277.5,500.2,277.5z"/>
<path class="st120" d="M496.9,278.5c-0.8-0.3-6.9,0.6-7.9,0.9s-5.9,1.6-8.3,0.6c-2.5-1.1-7.1-4.4-8.2-4.4s-3.1,0.7-3.1,0.7
	s1.3,0.1,2.9,0.3c1.5,0.2,2.1,3.8,4.4,4.7c2.3,0.9,3.4,7,10.1,5.8c6.7-1.2,10.9-4.6,11.8-5.7C499.5,280.3,498.5,279.1,496.9,278.5z"
	/>
<path class="st121" d="M489.8,333.6c0,0,1.7-0.9,3-1.1c1.4-0.2,7.6-3.5,9.2-4.2c1.7-0.6,3.4-0.9,5.6-0.3s5.7-0.5,6.6-0.9
	c0.9-0.5,2.4,0.1,4.2,0.9c1.9,0.9,5,2.1,6.2,2.5c1.7,0.6,4.8,2,5.2,2.4c0.4,0.4-0.4,2-2.9,3.7c-2.8,1.9-11.5,4-15.4,4.5
	c-5,0.6-12.6-2.6-13.9-3.1c-1.2-0.5-5.7-3-6.4-3.3C490.6,334.5,489.6,334,489.8,333.6z"/>
<path class="st120" d="M482.9,339.7c1,1.4,4-1.1,4.9-2.3c0.8-1.3,2.5-2.8,5.3-3c3.5-0.2,7.3,0.2,9.2-0.6s3.5,0.8,5.2,1
	c1.7,0.2,4.9-1.1,6.2-0.6c1.3,0.4,13.6,0.1,15.8-0.7c1.8-0.6-1.9-0.8-5.7-0.6c-3.8,0.2-10.1,0-11.8,0c-1.7,0-5.9,1.1-7.4,0
	c-1.5-1.1-5.5,0.2-6.8,0.4s-4,0.2-4.8-0.3s-5.8-2.3-6.7-0.8C485.4,333.8,481.4,337.6,482.9,339.7z"/>
<path class="st120" d="M502.7,313.8c1-0.8,3.2-0.5,2.9-1.5c-0.3-1-2.5-1.8-3.4-1.3c-1,0.5-3,1.9-3.1,2.4c-0.2,0.5,3.4,1.1,3.4,1.1
	S502.2,314.3,502.7,313.8z"/>
<path class="st122" d="M519.3,315.5c2.7-0.6,5.6-3.8,5.9-5.1c0.3-1.3-0.6-6.7-2.6-6.9c-1.9-0.2-5.4,0.3-6.2,1.4
	c0-5.3,0.1-17.2-0.2-26.3c-0.1-1.9,0-4.6,1.8-6.7c1.8-2.1,8.8-4.7,9.8-5c1.3-0.3-1,1.4-1.4,3c-0.5,1.6,1.9,0.5,3.8-0.2
	c1.9-0.6,6.9-0.8,9.6-0.6c2.7,0.2,7.1-2.2,7.4-4c0.3-1.8-2.1-5.6-3.8-5.3s-15.8,0.9-16.6,1.4c-0.8,0.5,4.8-2.9,3.3-6
	c-0.7-1.6-5.8-15.7-5.8-17.5c0.1-2.7,3.7-10.9,3.2-17.5c-0.4-5.5-5.1-12.7-6.6-13.9c-1.4-1.3,7.6,1.1,8.9,1.9s9.6,14.6,11.3,18.5
	s7.8,28.4,8.2,30.9c0.5,2.6,8.2,24.1,9,25.4c0.8,1.3,5.5,12.6,6.3,14.3c0.7,1.6,1,7.4-0.4,14.8c-1.1,5.9-5.4,14.5-15.7,28.1
	c-1.7,2.3-12,13.1-19,16.7c-1.4,0.7-7.7,4.7-9.7,3.6c-1.8-1-2.4-4.9-2.3-7.6c0.1-3.1,1.8-3.9,2.9-4.7s6.2,2.7,8,2.3
	c4.6-1.2,10.8-7.2,13-9.6c6.4-7,10.2-18.2,12.2-23.1c2.5-6.4,6.1-17.3,4.5-21.8c-1.6-4.5-4.4-7.7-6.6-9.1c-2.8-1.8-5.8-3.5-7.8-3.9
	c-1.2-0.3-5.4-0.4-6.7-0.4c-1.3,0-6.6,2.4-8.8,3.5c-2.2,1.1-5.4,1.3-5.9,3.2c-0.5,1.9,0.2,7.9,0.3,9.5s5.6,3.2,5.8,5.3
	c0.2,2.1-0.3,7.5-0.5,9.8c-0.2,3.5-6.7,3.9-10.4,6.8c-1.5,1.2-0.7-1.2-1.8-2.6c-1-1.4-2.9-2.1-2.1-2.6
	C514.2,315.1,519.3,315.5,519.3,315.5z"/>
<path class="st120" d="M509.2,326.7c0.9,0.2,2.1-1.2,2.1-2.9c0-1.7-0.7-6.4-1.4-6.6c-0.6-0.2-1.9,1.7-2.7,4.2
	c-0.7,2.4-1.1,3.5-0.4,4.1C507.6,326.2,509.2,326.7,509.2,326.7z"/>
<path class="st118" d="M496.1,335.6c1.5-0.2,5.6-0.3,7.1,0.3c1.5,0.7,3.2,1.6,3.9,1.7c0.7,0.2,0,1-1,1.2s-3-0.5-3.9-0.7
	c-1-0.2-2.2-1.1-3.2-1.3C497.9,336.7,496.1,335.6,496.1,335.6z"/>
<path class="st123" d="M499.3,265.7c0,0-9.5-2.2-12.9-2.3c-2.7,0-8.4-0.6-10.2-1.3c-2.8-1-8.8-0.6-10.5-0.2
	c-1.7,0.4-9.7,2.3-9.7,2.3s9.8-4.7,13.3-5.4c4.8-1.1,9.3-0.8,11-0.9c2.7-0.1,7.7,0.9,10.6,1.9c2.9,1,9.3,2.6,11,2.9
	C503.6,263,499.3,265.7,499.3,265.7z"/>
<path class="st123" d="M523.3,264.6c0,0,1.4-1.9,3-3.2c1.6-1.3,11.1-4.8,13.4-5.2c5.2-0.8,15.9,1.9,17.4,2.2
	c1.4,0.2,3.6,4.2,3.6,4.2s-15.9-2.3-17.5-2.2c-1.6,0.1-12.5,2.4-13.5,2.8S523.3,264.6,523.3,264.6z"/>
<path class="st123" d="M512.4,314.5c0.9-0.5,3.2-2.4,4.4-2.9s2.6,0.2,2.7,0.8c0.2,0.5-0.9,2-1.4,2.3c-0.5,0.3-3.4,0.5-4.5,0.5
	S511.9,314.8,512.4,314.5z"/>
<path class="st123" d="M520.9,315.1c0.8-0.1,4.3-1.6,4.7-2.9c0.4-1.4,0.8-5.3,0.5-5.7c1.5,5.2,0.5,7.6,0.2,8.3
	c-0.4,0.8-5.6,2.2-6.1,2.4c-0.5,0.2-2.2,1.7-2.5,2.3c-0.3,0.6-1.2,1.5-1.7,0.9c-0.5-0.6-2-4.4-2-4.6
	C513.9,315.6,518.3,315.4,520.9,315.1z"/>
<path class="st123" d="M502.2,313.3c1.3,0,3.5-0.2,3.5-0.7c0-0.5-1.6-1.6-2.7-1c-1.2,0.5-2,1.3-2.3,1.6S502.2,313.3,502.2,313.3z"/>
<path class="st123" d="M468.7,276.8c0,0,2.7-2.4,8.4-5.3s11.2-2.6,14.4,0c3.2,2.6,6.1,7.2,6.1,7.2s-5.1,0.3-5.7,0.7
	s-5.3,2.4-7.2,2.5s-9.2-2.4-11.3-6.9L468.7,276.8z"/>
<path class="st123" d="M551.9,274.7c0,0-6.1-4.6-7.5-4.8c-1.3-0.2-3.9-0.9-8.2-0.3c-4.3,0.6-6.5,0.3-9.8,5c-3.3,4.7-3.8,5.6-3.8,5.6
	l3.9-2.6c0,0,3.5,2.6,5.6,3c2,0.4,9.3-0.2,11.2-0.2c2-0.1,5.4-3.4,5.7-4.7s0.4-2.1,0.4-2.1L551.9,274.7z"/>
<path class="st122" d="M488.4,334c0,0,2.6-1.1,4.1-0.9c1.5,0.2,6.9,0.6,8.4-0.2c1.5-0.9,3.7-0.2,4.7,0.2c1.1,0.4,4.7,0.2,5.8-0.6
	c1.1-0.9,3.7-0.6,5.2-0.4c1.5,0.2,7.1,0,8.4,0.2c1.3,0.2,4.9,2.4,4.9,2.4c0.3,0.5-0.4,1.5-0.6,1.8c-0.2,0.2-8.1,4.2-8.9,4.7
	c-0.9,0.6-3.1,0.9-7.3,0c3.5-1.9,2.4-6,0.7-6c-1.7,0-3.1-1.5-5.2-1.1c-2.1,0.4-4.9-1.1-5.9-0.7c-1,0.3-3.1,0.7-4.2,0.8
	s-6-0.7-7.4-0.2C489.9,334.3,488.4,334,488.4,334z"/>
<path class="st124" d="M531.1,272.7c-0.1,1.5-0.2,4.8,3.1,6.1c4.8,1.9,8.1-2.4,8.4-3.8c0.4-1.7-0.8-3.6-0.8-3.6s2.4,2.5,2.9,3.5
	s-2.9,3.9-5.8,4.8s-6.7-0.4-8.1-1.9c-1.5-1.6-2-2.7-2-2.7S530,273.3,531.1,272.7z"/>
<path class="st124" d="M489.3,273c0,0,1.2,0.5,2.7,3.6c-1.7,1-2.8,1.7-4.9,2.5c-2,0.8-6.2,0.6-8.7-0.8c-2.5-1.3-4.1-3.7-4.1-3.7
	s2.2-1.4,3.7-1.7c0.8,3.2,2.7,5.1,5.4,5.5C486.2,278.9,489.5,276.7,489.3,273z"/>
<path class="st125" d="M479.7,272.4c0.2-0.7,1.8-0.5,1.5,0.9c-0.3,1.6,1,3.4,2.6,3.1c3-0.5,2.7-3.8,2.8-3.7
	c-0.6-0.9,1.3-0.6,1.3,0.5c0,1.2-0.5,4.4-4.4,4.5C480.4,278,479.3,274.1,479.7,272.4z"/>
<path class="st125" d="M532.4,273.3c0.4-1,1.1,0.1,1.6,1.6c0.3,1,1.8,2.1,3.5,1.6c2.4-0.7,2.2-3.5,1.9-4.5c0.9-0.3,2.4,2.2,0.7,4.4
	c-1.7,2.2-4.7,2.4-6.3,0.7C531.8,275,532.4,273.3,532.4,273.3z"/>
<path class="st126" d="M533.5,273c-0.1,0.8,0.3,1.6,0.7,2.6c0.3,0.7-1.3,0.1-1.6-0.3c-0.3-0.5-0.6-1.7-0.2-2.1
	C532.9,272.6,533.5,273,533.5,273z"/>
<path class="st126" d="M479.3,272.4c-0.1,0.8,0.4,2.9,1,3.2c0.5,0.3,0.8,0.3,1,0.3s-0.1-0.8-0.1-1.9c-0.1-1.1,0.3-1.9,0-2.4
	C481,271.4,479.3,272.4,479.3,272.4z"/>
<path class="st113" d="M464.2,370c0,0-8.2-5.3-5.5-11c2.3-4.9,15.4-21.2,16.8-28.8c0.9-5.2,1.7-18.1-3.6-26.7
	c-5.3-8.6-5-19.5-2.9-26.2s8-28.2,8.8-35.1c0.8-6.9,2.9-31.2,8.6-38.4c5.7-7.1,13.9-11.2,24.3-11c-6.7-1.4-25.3,0.8-29.8,17
	c-4.5,16.1-9,44.3-11.4,56.2c-2.5,11.8-6.7,25.5-4.9,31.5c1.8,5.9,6.6,10.7,9.2,22.2c2.7,11.7-6.4,22.3-14.3,29.6
	c-6.8,6.2-7.4,14.1-3.9,19.2C458.9,373.2,464.2,370,464.2,370z"/>
<path class="st113" d="M449.9,409.1c0,0-8.7-6.4-4.8-14c3.9-7.6,7.2-18.1,7.7-23.8c0.5-5.7,1.5-29.1,3.4-34.1
	c2-5.1,10.7-20.5,10.3-28.6c-0.3-8-4.3-34.8-3.6-41.9c0.7-7.1,8.4-33.8,10.5-42.2c2.1-8.4,4.1-25,23.3-33.7
	c-8.4,1.8-17.7,6.1-24.6,30.2s-12.8,44-12.8,47.8c0,3.8,1.6,9.2,3,17.9s5.1,21.2-1.3,33.5c-6.4,12.3-11.7,30.5-11.8,35.5
	c-0.2,4.9-1.5,13.5-7.6,23.3c-6.1,9.9-3.6,15.4-0.7,21.3C444,406.3,449.9,409.1,449.9,409.1z"/>
<path class="st113" d="M503.5,190.4c0,0-21.3-1.1-28.9,18.6s-10.9,32.5-12.5,37.6c-2.3,7.4-4.6,13.6-7.1,19.4
	c-1.6,3.8-6.7,10.2-3.1,21.8c3.6,11.7,9.2,19.2,3.6,30.4c-5.6,11.2-13.8,22.7-11.7,33.5s-3.5,26.3-1.6,22.7c0.3-0.7,4.5-17,3.9-22.2
	c-0.7-6.6,2.6-17.4,5.6-22.3c3-4.9,11-19.7,7.4-28.1c-3.6-8.4-9.5-17.9-4.6-28.9c4.9-11,8.5-23.6,10.7-29.6
	c2.1-5.9,7.9-28.2,11-34.6C479.3,202.2,486.7,192,503.5,190.4z"/>
<path class="st113" d="M507.1,191c0,0-23.3-6.1-35.3,18.2c-12,24.3-9.9,31.7-14.1,39.4c-4.3,7.7-5.9,24.3-3.6,33.5
	c2.3,9.2,4.8,15.8,4.6,21.3c-0.2,5.6-6.9,24.8-12,34.1c8.7-14.8,13.8-31,13.8-34.8c0-3.8-3.6-17.6-5.1-22c-1.5-4.4-2.5-22,2.8-30.9
	c5.3-8.9,8.4-30.4,15.1-40.1S488.5,189.9,507.1,191z"/>
<path class="st113" d="M441.6,331.2c3.1-4,12.9-16.5,13-21.3c0.2-4.8-1.5-10.2-5.8-15.2c-4.2-5-2.7-12.9-2.9-17.3
	c-0.2-4.4-1.9-8.2-2.7-11.3c-0.8-3.1,2.7-12.9,4-17.8s5.2-11.3,6.7-13.2c1.5-1.9,8.4-9.4,8.8-12.5c0.4-3.1,6.7-11.3,6.7-11.3
	s-4.8,13.2-5.8,15.7c-1,2.5-7.9,8.4-8.6,10.7c-0.8,2.3-5,7.7-6.1,13.2c-1.2,5.6-4.8,13.2-2.9,16.9c1.9,3.6,1.7,8.2,1.3,11.1
	c-0.4,2.9-0.6,11.1,2.5,14c3.1,2.9,8.4,14.2,7.1,17.8C455.8,314.5,441.6,331.2,441.6,331.2z"/>
<g>
	<path class="st114" d="M461.9,225.4c-1.6,3.3-3.1,6.5-4.6,9.8c-0.7,1.6-1.5,3.3-2.2,5c-0.3,0.8-0.7,1.7-1,2.5
		c-0.2,0.8-0.5,1.8-1,2.6c-0.9,1.6-2.2,3-3.8,3.9c-1.6,0.9-3.6,1.2-5.4,0.7c-0.9-0.2-1.8-0.8-2.3-1.7c-0.5-0.8-0.5-1.9-0.2-2.8
		c0.6-1.8,2.2-3,3.7-3.8c-1.5,0.9-2.9,2.2-3.5,3.9c-0.3,0.8-0.2,1.8,0.2,2.5c0.4,0.7,1.2,1.2,2.1,1.4c1.7,0.4,3.5,0.1,5.1-0.7
		c1.6-0.8,2.9-2.1,3.7-3.7c0.5-0.8,0.7-1.6,1-2.5c0.3-0.9,0.6-1.7,1-2.5c0.7-1.7,1.5-3.3,2.3-4.9
		C458.7,231.9,460.3,228.6,461.9,225.4z"/>
	<path class="st114" d="M469,215.7c-2.7,4.9-5.4,9.9-8,14.9c-2.6,5-5.3,9.9-7.3,15.2c-1.2,2.6-3,4.9-5.2,6.7c-2.2,1.8-5.2,3-8.1,2.3
		c-0.7-0.2-1.4-0.5-2-1c-0.5-0.5-1-1.2-1.1-1.9c-0.4-1.5-0.1-3,0.5-4.3c1.2-2.6,3.4-4.6,5.8-6.1c-2.3,1.6-4.4,3.6-5.5,6.2
		c-0.5,1.3-0.8,2.7-0.4,4c0.1,0.7,0.6,1.2,1,1.6c0.5,0.4,1.1,0.7,1.8,0.8c2.7,0.6,5.4-0.5,7.6-2.2c2.2-1.7,3.9-3.9,5.2-6.4
		c2.1-5.2,4.9-10.1,7.6-15.1C463.5,225.6,466.2,220.6,469,215.7z"/>
	<path class="st114" d="M468.6,216.5c-2.8,5.5-5.6,11.1-8.4,16.7c-2.7,5.6-5.6,11.1-7.7,17c-1.3,2.9-3,5.5-5.4,7.7
		c-2.3,2.1-5.6,3.6-8.9,2.8c-0.8-0.2-1.6-0.6-2.2-1.2c-0.6-0.6-1-1.3-1.2-2.2c-0.4-1.6,0-3.2,0.6-4.7c1.2-2.9,3.5-5.2,6.1-6.9
		c-2.5,1.8-4.7,4.2-5.8,7.1c-0.5,1.4-0.8,3-0.4,4.4c0.1,0.7,0.6,1.3,1.1,1.8c0.5,0.5,1.2,0.8,1.9,0.9c2.9,0.6,5.9-0.7,8.2-2.7
		c2.3-2,4.1-4.6,5.4-7.4c2.2-5.8,5.2-11.3,7.9-16.9C462.8,227.5,465.6,222,468.6,216.5z"/>
	<path class="st114" d="M427.4,267.9c3,1.8,6.1,3.3,9.1,5.2c0.8,0.4,1.4,1.1,2.2,0.9c0.8-0.2,1.5-0.7,2-1.4c1.1-1.3,2-2.8,2.7-4.4
		c2.9-6.3,4.7-13.1,6.2-19.9c0.7-3.4,1.4-6.9,2.6-10.2c1.2-3.3,2.7-6.5,4.6-9.4c3.7-5.9,8.5-11.2,14.2-15.2
		c-5.7,4.1-10.4,9.4-14,15.3c-1.8,3-3.2,6.2-4.4,9.4c-1.2,3.3-1.8,6.7-2.5,10.1c-1.5,6.8-3.3,13.6-6.2,20c-0.8,1.6-1.6,3.1-2.8,4.5
		c-0.6,0.7-1.3,1.3-2.3,1.5c-0.2,0-0.5,0-0.7,0l-0.7-0.3l-1.1-0.7C433.4,271.4,430.2,269.9,427.4,267.9z"/>
	<path class="st114" d="M425.3,271.8c0,0,3.8,6.5,7.1,6.4C430.3,278.1,427.9,277.4,425.3,271.8z"/>
	<path class="st114" d="M427.3,271.2c0,0,11.3,13.8,19.3-4.1C444.8,272.8,437.5,283.7,427.3,271.2z"/>
</g>
<path class="st114" d="M423.7,297.9c0,0,4.9-9.9,16.1-14.1c11.2-4.2,5.6-27.5,7.5-35.5c1.9-7.9,7.3-20.5,15.6-28.3
	c-10.7,11.7-15.9,24.1-16.6,28.3s3.2,28.9-6.8,34.1C429.4,287.7,423.7,297.9,423.7,297.9z"/>
<path class="st114" d="M417.4,306.2c0,0-7-12.8-0.8-28.4c6.2-15.6,10.7-33.6,11-37.2c0.3-3.6,0.6-21.8,15.3-44
	c-6,12.2-14.5,28.8-14,41.8c0.5,13-4.1,20.5-4.4,23.7c-0.3,3.2-5.2,12.2-7,16.7C415.8,283.3,413.6,297.6,417.4,306.2z"/>
<path class="st114" d="M426.2,337c0,0-15.2-16.2-6.8-29.3c8.4-13.1,25.1-33.3,24.9-44.1c-3.8,16.1-6.1,15.7-21.6,40.8
	C411.2,322.9,426.2,337,426.2,337z"/>
<path class="st114" d="M427.2,338.2c0-0.6,1.2-20.7,22.5-18.6c-10.3-0.5-22.5,0.6-24.4,16.6c0-12,5.3-20,14.4-20.9
	c-9,1.8-16.6,6.2-17.3,13.6c-1.2-9.3,3-19,11.9-20.9c-8.2,0.8-13.2,7.3-14.2,13.7c-0.4-6.5-0.1-13,11.8-26
	c-4.3,1.6-15.5,15.9-12.4,27.4c0.6-4.1,0-6.2,6.2-10.5c-4.7,9.4-5.2,14.1-3.6,18.6c1.6-4.1,0.7-6.7,6.2-10.7
	c-3.1,5.8-2.4,14.8-1.9,21.2c0.5,6.4,0.2,14.8,0.2,14.8s14.7-10.1,17.3-14.8l-15.6,12.1L427.2,338.2z"/>
<path class="st114" d="M418,304.3c0-4.5,1.6-9,4.3-12.7c1.4-1.8,3-3.5,4.9-4.7c0.9-0.7,1.9-1.2,2.9-1.7c1-0.5,2.1-0.9,3.1-1.3l0,0
	l0,0c-3.3,0.8-6.4,1.9-9.4,3.5c-1.5,0.8-2.8,1.7-4.1,2.8c-1.3,1.1-2.3,2.4-3.3,3.8l0,0l0,0c1.2-3.6,2.7-7.2,5.5-9.9
	c1.4-1.3,3.1-2.3,4.9-3c1.8-0.6,3.7-0.9,5.6-1.1l0,0v0c-3-0.4-6,0-8.7,1.3c-2.7,1.2-5,3.2-6.5,5.8l0,0l0,0c0.8-5.2,3.9-9.8,7.8-13.2
	c2-1.7,4.1-3.2,6.3-4.6c2.2-1.4,4.6-2.6,6.6-4.1c2-1.5,3.7-3.5,4.9-5.8c1.2-2.3,6.1-19.4,0.9-6c-0.9,1.8-2.5,3.1-4.1,4.2
	c-1.6,1.1-3.3,2-4.9,3c-1.6,1-3.2,2.1-4.7,3.3c-2.9,2.4-5.7,5.2-7.7,8.4l0,0l0,0c2.8-7.1,7.3-13.4,12.5-18.9
	c1.3-1.4-9.5,11.9-12.5,18.9l0,0l0-0.1c1.8-3.4,4.5-6.3,7.4-8.9c1.5-1.2,3.1-2.4,4.7-3.4c1.6-1,3.3-1.9,4.9-3c1.6-1.1,3-2.3,3.9-4
	c0,0,6-13.9,1.8,1.6c-0.7,2.5-0.5,2.7-1.7,5.1c-1.2,2.4-3,4.4-5.1,6c-2.1,1.6-4.5,2.6-6.7,4c-2.2,1.4-4.3,2.8-6.3,4.5
	c-4,3.3-7.1,7.7-8.1,12.9l0,0l0,0c1.1-2.8,3.5-5.1,6.3-6.4c2.8-1.3,6-1.6,8.9-0.7v0l0,0c-1.9,0.4-3.7,0.8-5.5,1.4
	c-1.8,0.7-3.4,1.6-4.8,2.9c-2.8,2.6-4.4,6.1-5.8,9.6l0,0l0,0c0.7-1.5,1.6-3,2.9-4.2c1.2-1.2,2.6-2.2,4.1-3.1
	c1.5-0.8,3.1-1.5,4.7-1.9c1.6-0.4,3.3-0.8,5-0.8l0,0l0,0c-2,1.1-3.9,2.2-5.6,3.6c-1.7,1.3-3.3,2.9-4.6,4.7c-1.4,1.7-2.4,3.7-3.2,5.7
	C418.9,299.9,418.3,302.1,418,304.3z"/>
<path class="st114" d="M417.4,306.2c0,0-0.4-12.1,10.7-20.3c-5.8,3.5-9.7,9.8-10.6,12.5c2.2-6,0.6-5.7,6.1-10
	c-4.9,3.2-6.1,6.6-6.7,8.5c2.7-7.2,2.1-8.5,9.6-12.8c-3,0-7,3-9.5,6.1c0,0,2.1-6.1,12.8-8.5c-3.6-0.7-12,5-12.9,6.1
	c4.6-7.3,6.6-9.1,11.8-10.2c-4,0.4-9,3.8-9,3.8s2.7-4.4,6.9-5.3c-2.3-1.3-7.3,3.9-7.3,3.9s2.3-8.3,10.1-11.4
	c-2.6-0.4-10.3,5.3-12.4,14.1C414.9,291.4,415.2,301.7,417.4,306.2z"/>
<path class="st114" d="M394.6,521.2c0.1,0.8,0.2-21.3,2.5-29.9c0.8,12,9.3,19.8,16.9,24.8c-10.9-10.3-17.3-18.2-15.5-31.4
	c5.2-13.6,9.6-19.4,11.6-22.9c5.6-9.7,1-20.1,4.1-24.4c4.5-6.2,6.4-19,9.7-23.1c3.3-4.1,7.8-7.8,11.6-13.2
	c-6.6,6.8-11.6,10.5-11.1,9.9s7-12.4,12.6-17.3c-7.2,7-16.1,18.2-16.1,18.2s10.5-16.5,13-20.8s6-8,6-8S425,400,421.9,407
	c4.1-11.6,6.8-15.9,10.5-19c-7.4,4.7-11.1,18.4-11.8,21.9c-0.6,3.5-1.2,9.9-1.9,13.6c-0.6,3.7-2.5,4.5-4.5,8.9s-2.5,12.8-1.9,15.9
	s-1.7,10.1-3.9,13.8s-10.3,16.6-11.6,21.1C393.8,494.3,393.6,513.5,394.6,521.2z"/>
<path class="st114" d="M369,505.9c2.6-3.2,5.7-6.1,9.1-8.5c3.4-2.5,7.1-4.5,11.1-5.5l0,0v0c-7.3,3.5-14.7,6.6-21.9,10.3l0,0l0,0
	c2.8-1.9,5.6-3.8,8.3-5.8c1.4-1,2.7-2,4.1-3c1.4-1,3.1-1.5,4.7-1.8l0,0l0,0c-1.4,0.6-2.9,1.2-4.3,1.8c-1.4,0.6-2.8,1.3-4.2,2
	c-2.8,1.4-5.5,2.9-7.8,4.9l0,0l0,0c2.2-2.3,4.4-4.7,7-6.7c1.3-1,2.7-1.9,4.1-2.6c1.5-0.7,3-1.3,4.6-1.6l0,0l0,0
	c-2.8,0.5-5.4,1.4-8.1,2.4c-2.6,1-5.2,2.1-7.8,3.2l0,0l0,0c1.3-1.1,2.6-2.1,4.1-3.1c1.4-0.9,2.9-1.8,4.4-2.5
	c1.5-0.7,3.1-1.4,4.8-1.8c1.7-0.4,3.4-0.6,5.1-0.3l0,0l0,0c-2.2-0.1-4.3-0.4-6.5-0.5c-2.2-0.1-4.3-0.2-6.5-0.1l0,0l0,0
	c2.4-0.8,4.9-1.3,7.5-1.5c2.5-0.2,5.2,0,7.6,0.8l0,0c-3.1-1.2-6.3-2.2-9.6-2.7c-0.8-0.1-1.7-0.3-2.5-0.5c0,0-0.1,0-0.1-0.1
	c0,0,0.1,0,0.2,0c0.1,0,0.2,0,0.3,0l0.6,0.1l1.2,0.1c1.7,0.2,3.3,0.2,5,0.1c3.3-0.2,6.6-0.8,9-3.2c2.6-2.1,5.1-4.3,7.6-6.5
	c2.5-2.3,5-4.5,7.3-6.8c1.2-1.2,2.3-2.4,3.4-3.6c1.1-1.2,1.8-2.5,2.4-4.1c2.1-6.3,3.3-12.9,4.6-19.5c-0.2,3.3-0.7,6.7-1.2,10
	c-0.5,3.3-1.2,6.6-2.2,9.9c-0.3,0.8-0.6,1.6-1,2.4c-0.4,0.8-1,1.5-1.5,2.2c-1.1,1.3-2.3,2.5-3.5,3.7c-2.4,2.4-4.8,4.7-7.4,6.9
	c-2.6,2.2-5.1,4.3-7.8,6.4c-0.7,0.5-1.3,1-2.2,1.5c-0.8,0.4-1.6,0.7-2.5,0.9c-1.7,0.4-3.4,0.4-5.1,0.3c-1.7-0.1-3.4-0.3-5-0.5
	l-1.2-0.2l-0.6-0.1c-0.1,0-0.2,0-0.3,0c-0.1,0-0.1,0-0.2,0c0,0,0.1,0,0.1,0.1c0.8,0,1.7,0.1,2.5,0.3c3.3,0.6,6.6,1.6,9.6,3v0l0,0
	c-5-0.9-10.1-0.4-15,0.6l0,0l0,0c2.1-0.6,4.3-0.7,6.5-0.6c2.2,0.1,4.4,0.5,6.4,1.2l0,0l0,0c-1.7,0.1-3.3,0.4-4.9,0.9
	c-1.6,0.5-3.1,1.1-4.7,1.8c-3,1.4-5.9,3.1-8.8,4.9l0,0l0,0c2.5-1.4,5-2.6,7.7-3.6c2.6-1,5.4-1.9,8.2-2l0,0l0,0
	c-2.9,1.3-5.6,3.1-8.2,4.9c-2.6,1.8-5.3,3.7-7.5,6l0,0l0,0c2.4-2,5-3.7,7.7-5.2c2.7-1.5,5.6-2.6,8.6-3.4l0,0l0,0
	c-1.6,0.5-3.2,1.1-4.5,2.2c-1.3,1-2.7,2-4.1,3c-2.7,2-5.6,3.7-8.6,5.4l0,0l0,0c3.4-2.2,7-4,10.7-5.7c1.8-0.9,3.7-1.7,5.5-2.4
	c1.9-0.8,3.8-1.5,5.7-2.1v0l0,0c-1.9,0.8-3.8,1.6-5.6,2.6c-1.8,1-3.6,2.1-5.2,3.3C375.1,500.2,371.9,502.9,369,505.9z"/>
<path class="st127" d="M571.7,315.8c0,0,5.8-10.9,6.7-24.1c0.9-13.2-6.7-31.5-6.7-31.5s6.5,22.2,5.5,27.3c-1.6-11.3-5.6-25-5.6-24.5
	c0,0.5,5.5,26.6,5.1,30.1c-3.2-15.3-7.7-32.4-8.4-34.3c0,0,6.2,27.1,6.3,29c-6-19.5-8.4-26-8.4-26s1.5,5.8,3.4,12.7
	c0.8,3,6.7,26.2,4,35.5c1-7.2-0.2-17.2-2.1-23.1c1,5.4,1.7,10.3,1.7,13.2C573.2,307.7,571.7,315.8,571.7,315.8z"/>
<path class="st127" d="M562.2,315.6c0,0,3.2-11.5,2.7-14c-0.5-2.5-9.2-21.4-10.8-24.8c-1.6-3.4-7.7-34.5-10.4-44.6
	c3.4,11.7,8.2,33.4,9.3,37.3c-3.9-18.5-4.5-22.6-4.4-22.3c0.1,0.3,4.5,20.7,5.8,24s6,12.7,8.6,16c-3.4-3.3-7.1-10.5-9.1-15.2
	c2.7,7.7,6.2,15.5,9.9,19.8c-2.6-1.8-6.5-9-9.9-17.7c7.2,16.2,10,23.6,11.8,26.2c1.7,2.6,1.2,7.2-0.4,11c0.8-4.9,1.1-4,0.7-6.7
	C565.6,308,562.2,315.6,562.2,315.6z"/>
<path class="st127" d="M542.6,223.6c0.3,0.5-12.3-18.5-15.9-21.1c-3.6-2.6-11.9-6.4-11.9-6.4s9.5,2.9,12.1,5.4
	c-7.2-4.7-9.7-8.1-13-8.1c5.1,0.3,13,5.2,15.6,8.1c2.6,2.9,7.7,8.7,7.7,8.7l-7.9-7.2C529.5,203,540.1,219.5,542.6,223.6z"/>
<path class="st127" d="M530.3,195l-10.4-6.4c0,0,6.8,6.4,9.9,10.9c-4.7-4-15.2-9-15.2-9s7.2,1.8,9.5,3.9c-3.7-4.1-5.8-7.4-10.1-7.5
	c3.8-0.7,8.8,2.1,11.5,3.9c-3.1-3.3-7.8-5.1-9.7-5.3c6.5-1.4,13.9,3.4,14.7,4.1c-6.1-5.9-14.8-5.5-16.2-5.2
	c6.6-1.2,11.7-1.5,19.5,2.9c-6.9-2.5-8.6-2.1-8.6-2.1s6.4,4.1,8.8,7.3c-6.1-4.1-9.1-5.8-14.8-7C525.8,188.2,530.3,195,530.3,195z"/>
<path class="st0" d="M647.5,670.2c-0.2,6.4,9.1,83.3,9.5,91.1c0.4,7.9,16.2,67.5,17.8,73.4s8.7,39.5,8.7,44.2s3.2,47.3,9.5,55.2
	c-1.2-9.5,2.4-11.8,11.4-9.9c9.1,2,37.1,5.1,42.2,18.5c1.6-20.9-3.9-66.7-5.9-69.1c-2-2.4-4.3-8.7-4.7-10.3
	c-0.4-1.6,1.2-21.7,1.2-24.5s-8.3-42.6-8.3-42.6s-7.5-64.7-7.5-71s2.8-22.9,0.8-24.1c-2-1.2-5.9-7.1-8.7-12.2
	c-2.8-5.1-11.8-28-30-27.2C665.3,662.7,647.9,656.4,647.5,670.2z"/>
<path class="st128" d="M710.9,1053.2c3.6,1.4,5,1.2,8.8-1.9s5.5-10.5,5-16.4s1.2-18.8,1.2-18.8s7.4,2.1,9.1-0.7
	c1.7-2.9,4.6-10.6,3.9-12.7c4.8-6.9,5.6-13.9,5.6-16.6c4.3-5.5,6.9-9.3,6.2-12.9c3.3-3.3,3.1-7.6,1.9-11c-1.2-3.3-8.6-27.4-8.6-27.4
	s-25.6-7.2-30.5-8.6c-17.7-4.9-18.8,0-18.8,0s-3.3,14.5-4,17.9c-0.7,3.3-6.2,23.8-6.2,27.4s0,15.5,0,17.9s-0.7,11.9,0.2,12.9
	c1,1,4.5-1.4,6.2-3.8c1.7-2.4,4.8-8.8,4.3-11.7c-0.5-2.9,0.7-7.4,0.7-6.2s9.8,14.3,10.2,16.4c0.5,2.1,3.1,25.7,2.9,28.6
	S710.9,1053.2,710.9,1053.2z"/>
<g class="st110">
	<path class="st28" d="M697.2,874c-0.5,0-1-0.4-1-1c-0.8-25.8-19-149.9-19.2-151.1c-0.1-0.5,0.3-1,0.8-1.1c0.6-0.1,1,0.3,1.1,0.8
		c0.2,1.3,18.4,125.4,19.2,151.4C698.2,873.5,697.7,873.9,697.2,874C697.2,874,697.2,874,697.2,874z"/>
	<path class="st28" d="M702.9,874c-0.5,0-1-0.4-1-1c-0.8-25.8-19-149.9-19.2-151.1c-0.1-0.5,0.3-1,0.8-1.1c0.5-0.1,1,0.3,1.1,0.8
		c0.2,1.3,18.4,125.4,19.2,151.4C703.9,873.5,703.4,873.9,702.9,874C702.9,874,702.9,874,702.9,874z"/>
	<path class="st28" d="M694,882.8c-0.5,0-1-0.4-1-1c-0.8-25.8-20.5-156.3-20.7-157.6c-0.1-0.5,0.3-1,0.8-1.1c0.5-0.1,1,0.3,1.1,0.8
		c0.2,1.3,20,131.9,20.8,157.8C695,882.3,694.6,882.8,694,882.8C694.1,882.8,694.1,882.8,694,882.8z"/>
	<path class="st28" d="M689.1,885.1c-1.1,0-1.9-0.8-2-1.9c-0.8-25.8-20.5-156.7-20.7-158c-0.2-1.1,0.6-2.1,1.7-2.2
		c1.1-0.2,2.1,0.6,2.2,1.7c0.8,5.4,20,132.5,20.8,158.5C691.1,884.1,690.3,885,689.1,885.1C689.2,885.1,689.1,885.1,689.1,885.1z"/>
	<path class="st28" d="M683.2,884.1c-0.5,0-1-0.4-1-1c-0.8-25.8-19-149.9-19.2-151.1c-0.1-0.5,0.3-1,0.8-1.1c0.5-0.1,1,0.3,1.1,0.8
		c0.2,1.3,18.4,125.4,19.2,151.4C684.2,883.6,683.7,884.1,683.2,884.1C683.2,884.1,683.2,884.1,683.2,884.1z"/>
</g>
<path class="st117" d="M714.1,1049.6c2.2,1.5,5.9-10.4,5.2-14.8c-0.7-4.4-0.5-25.4-0.5-29.1s0-9.1-0.5-11.4
	c-0.5-2.2,2.2-9.9,2.7-12.3c0.5-2.5,1.7-13.1,1.7-13.1s2-2,0.7-8.4s-5.7-22.7-5.7-22.7s-6.9-11.1-9.4-11.8c-2.5-0.7-7.7-2-10.1-0.7
	c-2.5,1.2-2.3,10.5-2.2,18c0.1,7.6-2.2,20.5-1,23c1.2,2.5,3.2,10.9,4.9,13.3c1.7,2.5,5.4,11.8,6.2,15.8c0.7,3.9,6.2,20.6,6.2,28.4
	s0,18.5,0,21.7C712.4,1048.6,714.1,1049.6,714.1,1049.6z"/>
<path class="st117" d="M725.2,1010.3c-0.9-1.8,5.2-1.6,5.2-4.8c0-3.2,2.2-4.2,2.7-10.1c0.5-5.9,1.2-10.6,3-8.1
	c1.7,2.5,5.2,4.9,5.2,4.9l2-10.1l1,3.2l5.8-10.7c0,0,0.2,2.6-1.1,7.8c-1.2,5.2-5.2,9.6-5.4,11.6c-0.2,2-4.6,8.6-4.6,8.6
	s-0.5,8.5-2.2,11.8s-8.5,2.5-9.2,2.5s-2.5,25.6-2.8,29.1s-8.3,11.2-13.8,7.2c8.8-1.9,14.3-9.4,13.1-15.8
	C722.7,1031,725.9,1011.8,725.2,1010.3z"/>
<g>
	<path class="st117" d="M432.5,825.1c-4.1-6-10-15.2-12.7-18.2s-4.3-10.6-3.3-16.6c1-6,4.6-19,19.4-15.2c10.7-2.4,18.3-1.6,23.3,2.7
		c5,4.3,15.7,15.2,17.3,17.9c1.6,2.7,5.9,10.3,6,12.4c3.4,0.9,7.6,4.9,7.9,7c4.9,0.3,8.3,3.3,8.3,3.3s1.7-2,2.6-1.9
		c-1.3-5.6,1.9-9,3.7-10.1c1.9-1.1,4.9,2,4.9,3.4c0,1.4-1,5.6-0.9,6.3c0.1,0.7,1.4,3.9,1.4,5c0,1.1-0.4,4.4-0.4,4.4
		s-2.7,4.6-2.4,4.1c0.3-0.4,10.7-6.1,13.1-6.6c2.4-0.4,9,0.4,10.4,2.3c1.4,1.9,2,5.6,1.4,6.3s-3.7,2.6-3.7,2.6s-1.4,6.3-2.6,8.1
		c-1.1,1.9-8.1,5.6-10.1,7c-2,1.4-7.6,4.7-7.6,4.7l-6,0.3c0,0,6.7,1.1,9.4,1c2.7-0.1,8.1,0.7,8.1,2.4s-2.9,6.3-3.1,7.6
		c-0.3,1.3-2.3,4-4.1,4.1c-1.9,0.1-18,4.3-18,4.3s-9.9-0.9-11.4-1.4s-12.9-9.1-12.9-9.1s-8.9-5.3-10.4-7.6s-2.9,0-4.7-1.1
		c-1.9-1.1-12.3-13.6-13.6-15.2C440.5,837.9,432.5,825.1,432.5,825.1z"/>
	<path class="st120" d="M443.7,779c0,0,6.4,3,7.9,2.2c1.5-0.9-5.3-6.9-3.5-6.9c0.1,0,5.5-0.7,9.2,2.9c3.8,3.6,15.6,15.6,16.5,17
		c0.9,1.3,7.6,10.6,8,14.7c2.7,0.5,7.4,4.7,7.9,7c4.3,0.1,7.6,2,8.8,3.9c0.7-1.5,2.6-3.4,2.6-2.7s0.9,5.7,1.8,5.6
		c1-0.1,1.1-4.6,1.3-6.3c0.2-1.7,2.8-5.7,2.8-5.7s-0.5,5.5-0.2,5.8s1.2,0.2,1.2-1.1s1.5-3.3,1.5-3.3s-0.6,2.8-0.5,3.6
		c0.1,0.9,0.4,3,0.4,4.3s-3.9,6.9-3.9,6.9s-6.3,2.3-8.7,1.9c4,2.1,5.8,4.5,5.8,4.5s5.6-0.7,8.6-0.6c2,0,3.6-2.7,3.6-2.7
		s3.2,2.3,12,1.5c-7.9,1.1-15.1,6.3-16,7.7c-1,1.3-5,7.2-5,8.3c0,1.1,1.7,7.3,5.7,5l-3.3,1.9c0,0-5.9,0.5-6.7,1.1
		c-0.9,0.6-5.6,7.4-5.1,9c0.5,1.6,4,5.2,6.1,5.8c2.1,0.6,4.5,1,3.8,1.3c-0.7,0.4-20.2-1.7-22.1-2.2c-1.9-0.5-11.4-8.5-13.2-11.1
		c-1.8-2.6-6.1-12.1-8.9-14.7c-2.8-2.6-9.2-9.2-10.7-10.4s-7.2-7.5-8.3-9.4C441.9,822.1,443.7,779,443.7,779z"/>
	<path class="st0" d="M425.9,821c3.7-3.2,26-45.8,26.9-47.2s-3.3-6.1-5.3-7c-2-0.9-10.6-6.7-10.6-6.7s0.3-3.3-1.7-5
		c-2-1.7-24.2-18.7-25.9-21.3c-1.7-2.6-7.3-10.5-10-12.2s-13.2-5.3-13.2-5.3s-2.9-4.9-5-5.2c-2.3-7-12.8-17.3-15.1-19.5
		s-5.5-5.9-6.4-8.7s-2.7-10.5-3.3-11c-0.6-0.5-26.6,1.7-29.5,1.5c-2.9-0.2-16.4-0.9-19-0.5c-2.6,0.5-12.6,4.6-13.2,8.2
		c-0.6,3.7-2.4,21.8-2.1,24.6c0.3,2.9,5.3,12.2,12.6,19c7.3,6.8,54.8,55.4,60.4,59.3c5.6,4,35.4,26.8,37,28.1
		c1.5,1.4,11.6,11.4,15.7,12.6C422.1,826.3,425.9,821,425.9,821z"/>
	<path class="st38" d="M406.6,810.6c-1.4-5.3-1.7-21.4,1.5-29.5c3.2-8.1,11.7-19.8,18-21.9c6.2-2.1,8.1-2.1,7.9-2.9
		s-6.1-1.4-7.1-2.1c-1.1-0.8-5.5-3.7-6.8-5.6c-1.4-2-8.7-5.9-8.7-5.9s-10.6-2.9-12.9-1.4c-2.3,1.5-6.2,0-6.2,0l-2.3-7.1
		c0,0,3.2-6.1,5.3-7.8c2.1-1.7,0.3-3.5,0.3-3.5s-8.5-1.1-10.3-0.6c-1.8,0.5-18.4,7.1-21,7.6c-2.6,0.5-10.6,3.7-10,0.6
		c0.6-3,3.7-6.1,6.5-8.4c2.9-2.3,9-5.3,11.7-5c2.7,0.3,9.9,0.2,11-0.8c1.1-0.9-1.8-3-1.8-3s-12.9,2.7-14.8,1.7
		c-1.8-1.1-5.3,0-4.9-3.7c0.5-3.7,1.1-4.7,2.3-7.5s3-3.2,3.8-4.6c0.8-1.4-0.2-4.3-3.2-3.8c-3,0.5-28.3,3-32.9,6.1
		c6.7-7.9,14.1-11,14.1-11l9.1-4.1c0,0-5-1.4-8.7-0.8c-3.7,0.6-17.6,2.3-17.6,2.3s-10.3,2.4-9.3,0.6c1.1-1.8,2.6-2.4,5.9-4
		c3.3-1.5,19.5-4.1,19.5-4.1s-7.6-1.5-9.4-1.7s-8.8-1.8-11.3-0.3c-2.4,1.5-5.6,5-6.4,4.7c-0.8-0.3-7.6,4.1-11,3.3
		c-3.3-0.8-1.5-2.1-1.5-2.1s10.5-3.2,11.3-3c0.8,0.2,2.3-1.7,4.1-3.5c1.8-1.8,5.6-3.3,0-2c-5.6,1.4-6.4,2-9.9,3.7
		c-3.5,1.7-2.1,0.9-4.9,2.3s-4.7,2.7-5.5,3.3c-0.8,0.6-1.5,1.4-2,2.3s-4.4,4.6-2.1,4.6c2.3,0,9.4-2.3,9.4-2.3s7.6-2,7-0.5
		c-0.6,1.5-2.4,2.7-4.6,4c-2.1,1.2-4.3,1.5-5.9,3.3c-1.7,1.8-3.7,5.5-4.6,4.7c-0.9-0.8-2.4-0.9-1.7-3.2c0.8-2.3,0.8-2.3,0.8-2.3
		s-1.5-2-2.3-2.1c-0.8-0.2-1.1,2.9-1.7,6.5c-0.6,3.7-0.8,8.7,1.4,10.3c2.1,1.7,6.7,9.4,6.7,9.4v-9.6c0,0-0.8-4.1,0.5-6.8
		s5-5.5,5-5.5s-2,7.9-2.3,10c-0.3,2.1,0.2,5.8,0.5,7.1s0.6,6.4,1.7,7.9c1.1,1.5,4,5.8,5.3,6.2c1.4,0.5,8.5,11.9,9.9,12.3
		c1.4,0.5,12,10,12.6,10.8c-1.5-8.1,2.6-10.6,5.8-10.8c3.2-0.2,13.5-3.3,15.7-4c2.1-0.6,11.6-2.3,11.6-2.3s7-0.3,5.8,2.4
		s-8.8,6.8-8.8,6.8l-9.7,2.3c0,0-10.2,0.6-11.7,0.8c-1.5,0.2-5,3.3-5,4c0,0.6-0.6,4.9-0.6,4.9s8.4,8.4,8.8,8.7
		c0.5,0.3,7,4.7,8.5,2.9s7.3-3.3,8.4-5.3c1.1-2,6.7-6.2,7.3-6.7c0.6-0.5,2.4-0.2,3,3.3c0.6,3.5,0,15.4,0.5,17.2
		c0.5,1.8-0.5,5.9,1.5,7.6c2,1.7,7.9,7.3,7.9,7.3l4.1,9.7l30.9,23.6C418,825.1,408.7,818.8,406.6,810.6z"/>
	<path class="st119" d="M453.9,806.4c0.3-0.8-3.3-21.6-6.2-24.2c11.2,8.5,23.4,19.8,25.4,22.1c1.9,2.2,7.4,1.9,9.5,4
		c-5.9,1.4-9.5,6.9-10,8c-0.5,1.1,7.7,7.7,8.3,7.7s4.2,0.8,5.1-0.2c1-1,0.4-9.2,4.6-8.4c-3.5,5.1-1.2,9.2,4.5,12.1
		c-1.3-6.6,3.2-8.8,3.2-8.8s-3.7,5.9-1.3,8.7c2.4,2.7,8.7,1.6,9-1c0.3-2.6,0.8-4.5,1.3-5.4c0.5-1,1.1-2.7,1.1-4.2s0.8-7.6,1.1-7.1
		c0.3,0.5,0.4,10.2,0.7,11.1s0.1,6.4-2.5,8.5c-0.5,0.4-5.5,3.5-7.7,3.5c-0.5,0-4-1.7-7.4-1.4c-0.8,0.1-4,2.6-3.8,3
		c0.2,0.5,12.1,3.1,12.1,3.1l17.1-3.2c0,0-16.3,5.6-20,14c-1.6-5.6,2-8.7,0.7-8.6c-2.1,0.1-5.1,0.3-6.2,0.2c-1.8-0.2-4,0.5-6.6,2
		c-1.7,0.9-4.6,2.5-3.9,3.5c0.6,1,27,9,27,9s-11.8-0.4-12.3-0.4s-11.8-4.9-13.3-5.7c-1.4-0.8-4-1-4.5-0.8c-0.5,0.2-3.9,1.1-3.9,1.1
		s7.7,1.5,8.3,2.8c0.7,1.3,1.3,2.9,1.3,2.9l9,1.8c0,0,3.8-1.1,3.3-1.1c-0.5,0,5.7-0.9,9.4,0.5c-4.3,0.2-7.8,2.7-9.9,4.3
		s-6.9,5.1-6.9,5.1s-0.1-2.4,1.9-4.5c2.1-2.1,0-2.3-1.8-2.9c-1.8-0.6-7.9,0.4-10.9,3.8l3-7.1c0,0-1.4-3-4.3-2.7
		c-2.9,0.3-7.7,1-7.7,1s-0.1-3.3-2.4-2.7c2.9-3.8,4.5-7.9,4.6-8.5c0.1-0.2-0.6-5-5.1-7.5c-0.4-0.2-4.5-2.1-7.4-2.6
		c-2.9-0.4-8.5,4.5-9,4.5c-0.5,0,3-6.7,3-6.7s-5.8-4.3-6.2-4.3c-0.5,0-5.1-6.1-5.1-6.1s0.6-2.6,0.2-1.9
		C442,817.1,453.9,806.4,453.9,806.4z"/>
	<g>
		<path class="st129" d="M472.5,779.2l34.4,10.6c8.8,2.7,13.7,12,11,20.8l-29.4,95.7c-2.7,8.8-12,13.7-20.8,11l-34.4-10.6
			c-8.8-2.7-13.7-12-11-20.8l29.4-95.7C454.4,781.4,463.7,776.5,472.5,779.2z"/>
		<g>
			
				<rect x="440.3" y="793.4" transform="matrix(-0.9558 -0.294 0.294 -0.9558 670.3265 1797.3055)" class="st130" width="59.9" height="109.8"/>
			<path class="st130" d="M444.1,902l17.2,5.3c0.5,0.1,0.7,0.6,0.6,1.1l0,0c-0.1,0.5-0.6,0.7-1.1,0.6l-17.2-5.3
				c-0.5-0.1-0.7-0.6-0.6-1.1l0,0C443.2,902.1,443.6,901.8,444.1,902z"/>
			<circle class="st130" cx="468.3" cy="910.3" r="1.1"/>
		</g>
		<g>
			<g>
				<g>
					<path class="st28" d="M471.5,843.6c11.2,3.5,17.4,15.5,13.8,26.7c-3.5,11.2-15.5,17.4-26.7,13.8s-17.4-15.5-13.8-26.7
						C448.4,846.2,460.3,840,471.5,843.6z M459.1,882.6c10.4,3.3,21.5-2.5,24.8-12.8c3.3-10.4-2.5-21.5-12.8-24.8
						s-21.5,2.5-24.8,12.8S448.7,879.3,459.1,882.6z"/>
					<g>
						<circle class="st28" cx="462.9" cy="870.6" r="9.6"/>
						<path class="st28" d="M456.2,848.7c2.3,4,6.1,7.2,10.9,8.7c4.8,1.5,9.7,1.1,14-0.8c-2-4.4-5.7-7.9-10.7-9.5
							C465.4,845.5,460.3,846.3,456.2,848.7z"/>
					</g>
				</g>
			</g>
			<circle class="st131" cx="464.5" cy="809.5" r="11.6"/>
			<circle class="st132" cx="496.8" cy="819.6" r="11.6"/>
			<g>
				<path class="st0" d="M464.7,869.3c-0.5,1.4-1.3,2.1-2.6,2.6c-1.2,0.5-1.9,0.9-2.2,1.9c-0.3,1,0.1,1.9,1.7,2.4
					c0.9,0.3,2,0.4,2.9,0.3c-0.2,0.7-0.6,1.5-0.9,2.3c-0.9,0.1-2,0-3.2-0.4c-3-1-4.1-3-3.4-5.3c0.6-1.8,1.8-2.5,3.7-3
					c1.3-0.4,1.9-0.7,2.2-1.6l0.1-0.3l1.9,0.6C464.8,868.9,464.8,869.1,464.7,869.3z M466.5,865.4c-0.3,0.9-1.1,1.3-2,1.1
					c-0.9-0.3-1.3-1.2-1-2c0.3-0.8,1.1-1.3,2-1C466.3,863.7,466.8,864.6,466.5,865.4z"/>
			</g>
			<g>
				<path class="st133" d="M500.3,821.2C500.3,821.2,500.3,821.2,500.3,821.2c-0.3-1-0.6-2.1-1.2-3.1c-0.5-1-1.2-2-1.9-2.8
					c0,0,0,0,0,0c0,0,0,0-0.1,0c0,0,0,0,0,0c-0.4,0.2-1.3,0.7-1.8,0.4c-0.4-0.2-1.5-0.9-2-1.2c-0.3-0.2-0.5-0.4-0.6-0.7
					c-0.2-0.7,0.1-1.3,0.7-1.8c0.6-0.5,1.4-0.7,2.1-0.7c1.5,0.1,4.2,2.1,5.9,5.5c1.7,3.3,1.8,6.6,1.1,8c-0.4,0.6-1,1.1-1.7,1.3
					c-0.7,0.2-1.4,0.1-1.8-0.5c-0.2-0.2-0.2-0.4-0.2-0.9c0-0.6,0.1-1.8,0.2-2.3C499,821.9,499.9,821.5,500.3,821.2
					C500.3,821.3,500.3,821.3,500.3,821.2C500.3,821.3,500.3,821.3,500.3,821.2z"/>
				<g>
					<path class="st28" d="M495.7,816.5c0.1,0.2,0.1,0.4,0,0.6c-0.5,0.8-0.6,1.9-0.1,2.8c0.5,0.9,1.4,1.5,2.4,1.5
						c0.3,0,0.6,0.3,0.6,0.7s-0.3,0.6-0.7,0.6c-1.4-0.1-2.7-0.9-3.4-2.2c-0.7-1.3-0.6-2.8,0.2-4c0.2-0.3,0.6-0.4,0.9-0.2
						C495.6,816.4,495.7,816.4,495.7,816.5z"/>
					<path class="st28" d="M497.7,823.4c0.1,0.1,0.1,0.3,0.1,0.4c-0.1,0.3-0.4,0.6-0.7,0.5c-1.8-0.3-3.4-1.4-4.2-3.1
						c-0.8-1.6-0.9-3.5-0.1-5.2c0.1-0.3,0.5-0.4,0.8-0.3c0.3,0.2,0.4,0.5,0.3,0.8c-0.6,1.3-0.6,2.8,0.1,4.1c0.7,1.3,1.9,2.2,3.3,2.4
						C497.4,823.1,497.6,823.2,497.7,823.4z"/>
					<path class="st28" d="M491.9,815.6c0.1,0.2,0.1,0.4,0,0.5c-0.7,1.8-0.7,3.8,0.2,5.5c0.9,1.7,2.5,2.9,4.4,3.4
						c0.3,0.1,0.6,0.4,0.5,0.8c-0.1,0.3-0.4,0.6-0.8,0.5c-2.2-0.5-4.1-2-5.2-4c-1.1-2-1.2-4.4-0.3-6.6c0.1-0.3,0.5-0.5,0.8-0.3
						C491.7,815.3,491.8,815.4,491.9,815.6z"/>
				</g>
			</g>
			<path class="st133" d="M461.3,808.5C461.3,808.5,461.3,808.5,461.3,808.5c0.9,0.5,1.9,1,3.1,1.4c1.1,0.4,2.2,0.5,3.3,0.6
				c0,0,0,0,0,0c0.1,0,0.1,0,0.1-0.1c0,0,0,0,0,0c0.1-0.4,0.4-1.4,0.9-1.5c0.5-0.2,1.6-0.4,2.2-0.6c0.4-0.1,0.7-0.1,0.9,0.1
				c0.6,0.4,0.8,1,0.8,1.7c-0.1,0.7-0.4,1.5-1,1.9c-1.2,1-4.5,1.4-8,0.3c-3.6-1.2-6-3.4-6.4-4.9c-0.2-0.7-0.1-1.5,0.3-2.2
				c0.4-0.6,0.9-1,1.6-1c0.3,0,0.5,0.1,0.8,0.4c0.4,0.5,1.2,1.3,1.5,1.8c0.3,0.4,0,1.4-0.1,1.8C461.3,808.4,461.3,808.4,461.3,808.5
				C461.3,808.5,461.3,808.5,461.3,808.5z"/>
		</g>
		<linearGradient id="SVGID_14_" gradientUnits="userSpaceOnUse" x1="430.1709" y1="883.0936" x2="488.5045" y2="832.6243">
			<stop  offset="0" style="stop-color:#FFFFFF;stop-opacity:0.4"/>
			<stop  offset="1" style="stop-color:#000000;stop-opacity:0"/>
		</linearGradient>
		<path class="st134" d="M472.9,779.2l34.4,10.6c8.8,2.7,13.7,12,11,20.8l-29.4,95.7c-2.7,8.8-12,13.7-20.8,11l-34.4-10.6
			c-8.8-2.7-13.7-12-11-20.8l29.4-95.7C454.8,781.4,464.1,776.5,472.9,779.2z"/>
	</g>
	<g>
		<path class="st117" d="M418,801.7c2,3.8,11.1,14.8,14.4,16.3c3.4,1.5,12.4,3.9,17,6.4c4.5,2.5,12.9,5.7,16.5,6.7
			s10.2,3.7,12.1,3.2c1.8-0.5,4.9-4.4,4.2-7.4c-0.7-3-3.5-10.6-11.8-13.8s-15.6-6.2-17.1-10.2s-2.2-17-5.2-20.3
			c-3-3.4-10.4-8.1-16.1-7.7c-5.7,0.3-12.4,3.9-13.6,8.6C417.2,788.1,415.2,796.2,418,801.7z"/>
		<path class="st120" d="M462.3,829.1c-3.8-1.2-5-2.9-5-5s0.9-6.5,3.3-6.5c2.4,0,7.2,0.9,8.1,1.2c0.9,0.3,7.4,2.9,7.4,2.9l-5.7-0.6
			c0,0-3.9,3.9-2.1,8.1c5.9,2.5,7.4,2.7,7.4,2.7L462.3,829.1z"/>
		<path class="st120" d="M472.8,833.8c0,0,6.7,1.9,8.6-1.9c1.9-3.8,0.9-12.3-7.3-16.9c-8.3-4.7-18.5-6.9-20.9-11.8
			c-1-2-2.4-15.3-3.6-18.2c-1.2-2.9-11.8-13.9-23.4-9.8c7.6-0.9,18.5,11.6,19.2,14.7c0.7,3.1,2.2,14.1,3.1,15.9
			c0.9,1.7,11.2,6.9,13.6,7.6c2.4,0.7,13.8,6.2,15,7.2c1.2,1,3.6,6.4,2.1,8.8C477.6,831.7,479.2,833.8,472.8,833.8z"/>
		<path class="st120" d="M476.1,821.7l-5.7-0.6c0,0-3.2,2.9-2.1,8.1c5.1,2.6,7.4,2.7,7.4,2.7s-5.8-0.5-9-2.6c-0.2-6.9,2-8.2,3.5-9.3
			C471.5,818.9,476.1,821.7,476.1,821.7z"/>
	</g>
</g>
</svg>
