<?xml version="1.0" encoding="utf-8"?>
<!-- Generator: Adobe Illustrator 24.0.0, SVG Export Plug-In . SVG Version: 6.00 Build 0)  -->
<svg version="1.1" id="Layer_1" xmlns="http://www.w3.org/2000/svg" xmlns:xlink="http://www.w3.org/1999/xlink" x="0px" y="0px"
	 viewBox="0 0 939.1 588.7" style="enable-background:new 0 0 939.1 588.7;" xml:space="preserve">
<style type="text/css">
	.st0{clip-path:url(#SVGID_2_);}
	.st1{opacity:0.9;}
	.st2{opacity:0.5;}
	.st3{fill:url(#SVGID_3_);}
	.st4{fill:none;stroke:#FFFFFF;stroke-width:2.2593;stroke-linecap:round;stroke-linejoin:round;stroke-miterlimit:10;}
	.st5{fill:url(#SVGID_4_);}
	.st6{fill:#989898;}
	.st7{fill:#010101;}
	.st8{fill:#FFFFFF;}
	.st9{opacity:0.7;}
	.st10{fill:url(#SVGID_5_);}
	.st11{fill:none;stroke:#FFFFFF;stroke-width:0.3928;stroke-linecap:round;stroke-linejoin:round;stroke-miterlimit:10;}
	.st12{fill:url(#SVGID_6_);}
	.st13{fill:url(#SVGID_7_);}
	.st14{fill:url(#SVGID_8_);}
	.st15{fill:none;stroke:#FFFFFF;stroke-width:3.5348;stroke-linecap:round;stroke-linejoin:round;stroke-miterlimit:10;}
	.st16{fill:url(#SVGID_9_);}
	.st17{fill:url(#SVGID_10_);}
	.st18{fill:url(#SVGID_11_);}
	.st19{fill:url(#SVGID_12_);}
	.st20{fill:url(#SVGID_13_);}
	.st21{fill:#818181;}
	.st22{fill:#1F4A23;stroke:#22B14B;stroke-width:1.7979;stroke-miterlimit:10;}
	.st23{fill:#22B14B;}
	.st24{fill:#1F4A23;stroke:#22B14B;stroke-width:0.9436;stroke-miterlimit:10;}
	.st25{fill:#1F4A23;stroke:#22B14B;stroke-width:0.5982;stroke-miterlimit:10;}
	.st26{fill:#1F4A23;stroke:#22B14B;stroke-width:0.2564;stroke-miterlimit:10;}
	.st27{fill:#FCDCC5;}
	.st28{fill:#BA968C;}
</style>
<g>
	<defs>
		<rect id="SVGID_1_" x="-25" y="-12.7" width="974.2" height="609.1"/>
	</defs>
	<use xlink:href="#SVGID_1_"  style="overflow:visible;fill:#010101;"/>
	<clipPath id="SVGID_2_">
		<use xlink:href="#SVGID_1_"  style="overflow:visible;"/>
	</clipPath>
	<g class="st0">
		<g class="st1">
			<g class="st2">
				
					<radialGradient id="SVGID_3_" cx="1370.2239" cy="-291.5085" r="298.0543" gradientTransform="matrix(0.4225 0 0 0.4225 58.8898 221.9678)" gradientUnits="userSpaceOnUse">
					<stop  offset="0" style="stop-color:#34C4F3"/>
					<stop  offset="1" style="stop-color:#FFFFFF"/>
				</radialGradient>
				<path class="st3" d="M638.1,99.5c21.3-21.7,47.4-36.1,76.6-44.5c-19.3-14.3-40.1-25.1-62.8-32.9c-6.3,16.6-16.3,50.9-16.3,50.9
					c-1,0-11.1-34.4-18.6-50.9c-22.5,8.4-43.2,19.8-62,34.6C586.3,63.5,614.8,77.1,638.1,99.5z"/>
			</g>
			<polyline class="st4" points="554.8,57.1 632.8,211.4 714.6,55.2 			"/>
			<g>
				<linearGradient id="SVGID_4_" gradientUnits="userSpaceOnUse" x1="606.0273" y1="230.8746" x2="663.4075" y2="230.8746">
					<stop  offset="0" style="stop-color:#565656"/>
					<stop  offset="0.5366" style="stop-color:#FFFFFF"/>
					<stop  offset="1" style="stop-color:#565656"/>
				</linearGradient>
				<path class="st5" d="M638.1,261.4c-5.4,0-20.8,0.8-21.4,0.5s-3.1-1.8-4.8-4.6c-2.3-1.3-2.8-3.1-2.9-6.2c-0.1-3.1,0-7.9,0-7.9
					H606v-5.1h1.3V230H606v-5.3h3.2v-3H606v-2.3l10.1-14.5l10.5-0.4c0,0,1-4.7,5.9-4.7c4.9,0,7.7,2.3,7.7,4.9
					c7.6,0,12.2,0.5,12.2,0.5l9.6,13.9v2.3h-2.8v2.5c0,0,3.5,0.7,3.5,1.3c0,0.6,0,3.7,0,3.7s-1.9,1.4-1.6,4.6
					c0.3,3.2,1.6,5.4,1.6,5.4v4.9l-1.3-0.1v1.8l2-0.1c0,0,0.1,2.9,0,3.4c-0.1,0.5-6.5,13-6.5,13L638.1,261.4z"/>
				<g>
					<path class="st6" d="M659.4,221.7H617v2.3c0,0,19.9,0,22.8,0s7,4.2,7,6.6c6,0,9.8,0,9.8,0s-0.3-5.7,2.9-6.1
						C659.4,222.7,659.4,221.7,659.4,221.7z"/>
					<path class="st6" d="M617,229.4c0,0,19.8,0,22,0c2.2,0,2.4,2.3,2.4,3.4s-0.4,4.6-4.4,4.6c-4,0-20,0-20,0V229.4z"/>
					<path class="st6" d="M617.5,243c0,0,20.1,0,22.4,0s6.8-4.4,7-7h9.6c0,0,0.4,7,4.7,7v2.5h-43.7V243z"/>
				</g>
				<path class="st7" d="M619.9,237.3h-3v-8c0,0,19.9,0,22,0s3.8,3.7,1.8,6.5c-0.3-3.5-1-5.6-3.6-5.6s-17.3,0-17.3,0V237.3z"/>
				<polygon class="st7" points="616.9,223.6 616.9,221.3 659.3,221.3 659.3,222.4 618.8,222.4 618.8,223.6 				"/>
				<path class="st7" d="M616.9,242.2v4.4h42.4l-40.2-1c0,0-0.1-1.5,0-1.5c0.1,0,19.7,0,21.5,0c4.1,0,6.8-6.1,6.8-7.3h8.7
					c0,0,0.6,5.2,4.1,6.5c-2-2.2-3.4-5.6-3.3-7.5c-8.4,0-10.3,0-10.3,0s-1.1,6.2-8,6.2C634,242.2,616.9,242.2,616.9,242.2z"/>
				<path class="st7" d="M609.6,252.8c0,1.5,2.5,3.7,4.1-1.1c0.7,2.2-0.9,3.7-2.5,3.7C609.9,255.4,609.6,254,609.6,252.8z"/>
				<path class="st7" d="M607.4,230c0,0,2.2-0.1,2.2,0s0,8.4,0,8.4h-2.2l1.6-1l-0.2-6.4L607.4,230z"/>
				<path class="st8" d="M620.5,248.1c0.1-0.4-0.4,7.7,7.2,7.7c7.5,0,31.4,0,31.4,0s-7.2,1.2-12.3,1.2c-5.1,0-15.9,0-19.2,0
					S619.3,256,620.5,248.1z"/>
				<path class="st8" d="M612.9,251.8c0.6,0.1,0.6-3.8-1.8-2.8c-1.1,0.6,1.2,0.6,1.5,1.3C612.9,251.1,612.9,251.8,612.9,251.8z"/>
			</g>
		</g>
		<g class="st9">
			<g class="st2">
				
					<radialGradient id="SVGID_5_" cx="1628.8696" cy="-487.1689" r="51.815" gradientTransform="matrix(0.4225 0 0 0.4225 58.8898 221.9678)" gradientUnits="userSpaceOnUse">
					<stop  offset="0" style="stop-color:#34C4F3"/>
					<stop  offset="1" style="stop-color:#FFFFFF"/>
				</radialGradient>
				<path class="st10" d="M747.1,16.3c3.7-3.8,8.2-6.3,13.3-7.7c-3.3-2.5-7-4.4-10.9-5.7c-1.1,2.9-2.8,8.9-2.8,8.9
					c-0.2,0-1.9-6-3.2-8.9c-3.9,1.5-7.5,3.4-10.8,6C738.1,10,743,12.4,747.1,16.3z"/>
			</g>
			<polyline class="st11" points="732.6,8.9 746.2,35.7 760.4,8.6 			"/>
			<g>
				<linearGradient id="SVGID_6_" gradientUnits="userSpaceOnUse" x1="741.5121" y1="39.114" x2="751.4874" y2="39.114">
					<stop  offset="0" style="stop-color:#565656"/>
					<stop  offset="0.5366" style="stop-color:#FFFFFF"/>
					<stop  offset="1" style="stop-color:#565656"/>
				</linearGradient>
				<path class="st12" d="M747.1,44.4c-0.9,0-3.6,0.1-3.7,0.1c-0.1-0.1-0.5-0.3-0.8-0.8c-0.4-0.2-0.5-0.5-0.5-1.1c0-0.5,0-1.4,0-1.4
					h-0.5v-0.9h0.2V39h-0.2V38h0.6v-0.5h-0.6v-0.4l1.8-2.5l1.8-0.1c0,0,0.2-0.8,1-0.8s1.3,0.4,1.3,0.9c1.3,0,2.1,0.1,2.1,0.1
					l1.7,2.4v0.4h-0.5v0.4c0,0,0.6,0.1,0.6,0.2c0,0.1,0,0.6,0,0.6s-0.3,0.2-0.3,0.8c0,0.6,0.3,0.9,0.3,0.9v0.9l-0.2,0v0.3l0.3,0
					c0,0,0,0.5,0,0.6c0,0.1-1.1,2.3-1.1,2.3L747.1,44.4z"/>
				<g>
					<path class="st6" d="M750.8,37.5h-7.4v0.4c0,0,3.5,0,4,0s1.2,0.7,1.2,1.1c1,0,1.7,0,1.7,0s0-1,0.5-1.1
						C750.8,37.7,750.8,37.5,750.8,37.5z"/>
					<path class="st6" d="M743.4,38.9c0,0,3.4,0,3.8,0s0.4,0.4,0.4,0.6s-0.1,0.8-0.8,0.8s-3.5,0-3.5,0V38.9z"/>
					<path class="st6" d="M743.5,41.2c0,0,3.5,0,3.9,0s1.2-0.8,1.2-1.2h1.7c0,0,0.1,1.2,0.8,1.2v0.4h-7.6V41.2z"/>
				</g>
				<path class="st7" d="M743.9,40.2h-0.5v-1.4c0,0,3.5,0,3.8,0s0.7,0.6,0.3,1.1c-0.1-0.6-0.2-1-0.6-1s-3,0-3,0V40.2z"/>
				<polygon class="st7" points="743.4,37.9 743.4,37.4 750.8,37.4 750.8,37.6 743.7,37.6 743.7,37.9 				"/>
				<path class="st7" d="M743.4,41.1v0.8h7.4l-7-0.2c0,0,0-0.3,0-0.3s3.4,0,3.7,0c0.7,0,1.2-1.1,1.2-1.3h1.5c0,0,0.1,0.9,0.7,1.1
					c-0.3-0.4-0.6-1-0.6-1.3c-1.5,0-1.8,0-1.8,0s-0.2,1.1-1.4,1.1C746.4,41.1,743.4,41.1,743.4,41.1z"/>
				<path class="st7" d="M742.1,42.9c0,0.3,0.4,0.6,0.7-0.2c0.1,0.4-0.2,0.6-0.4,0.6C742.2,43.4,742.1,43.1,742.1,42.9z"/>
				<path class="st7" d="M741.8,39c0,0,0.4,0,0.4,0s0,1.5,0,1.5h-0.4l0.3-0.2l0-1.1L741.8,39z"/>
				<path class="st8" d="M744,42.1c0-0.1-0.1,1.3,1.2,1.3s5.5,0,5.5,0s-1.3,0.2-2.1,0.2s-2.8,0-3.3,0
					C744.7,43.7,743.8,43.5,744,42.1z"/>
				<path class="st8" d="M742.7,42.8c0.1,0,0.1-0.7-0.3-0.5c-0.2,0.1,0.2,0.1,0.3,0.2S742.7,42.8,742.7,42.8z"/>
			</g>
		</g>
		<g>
			<g>
				<g>
					
						<radialGradient id="SVGID_7_" cx="795.8839" cy="-31.9624" r="383.0757" gradientTransform="matrix(0.4225 0 0 0.4225 58.8898 221.9678)" gradientUnits="userSpaceOnUse">
						<stop  offset="0" style="stop-color:#34C4F3"/>
						<stop  offset="1" style="stop-color:#FFFFFF"/>
					</radialGradient>
					<path class="st13" d="M393.5,40.7c-55.6,42.9-66.5,112-66.5,112c1.9-42.1,17.5-78.7,35.7-107.6C332.9,50.5,310,57.9,301.3,63
						c-20.9,41.9-13.8,76.5,23.9,116c1.8,1.9,110.6-134,212.3-122.6C494,37.2,439.6,35.7,393.5,40.7z"/>
					
						<radialGradient id="SVGID_8_" cx="1078.0723" cy="-93.0695" r="355.6638" gradientTransform="matrix(0.4225 0 0 0.4225 58.8898 221.9678)" gradientUnits="userSpaceOnUse">
						<stop  offset="0" style="stop-color:#FFFFFF"/>
						<stop  offset="0.2089" style="stop-color:#35C6F4"/>
						<stop  offset="0.7633" style="stop-color:#0A151C"/>
					</radialGradient>
					<path class="st14" d="M537.6,193.9c0,0-86.5-100.6-115.9-100.2c0,0,50.3-42.3,115.9-37.3C550.1,146.1,537.6,193.9,537.6,193.9z
						"/>
				</g>
				<polyline class="st15" points="325.6,179.3 447.9,420.9 537.6,193.9 				"/>
				<g>
					<linearGradient id="SVGID_9_" gradientUnits="userSpaceOnUse" x1="405.1783" y1="459.9964" x2="494.9498" y2="459.9964">
						<stop  offset="0" style="stop-color:#565656"/>
						<stop  offset="0.5366" style="stop-color:#FFFFFF"/>
						<stop  offset="1" style="stop-color:#565656"/>
					</linearGradient>
					<path class="st16" d="M455.3,507.7c-8.4,0-32.5,1.3-33.5,0.8c-1-0.5-4.9-2.9-7.5-7.2c-3.7-2-4.4-4.9-4.6-9.7
						c-0.2-4.9,0-12.3,0-12.3h-4.6v-8h2.1v-12.7h-2.1v-8.2h5v-4.7h-5v-4l15.9-22.3l16.4-0.3c0,0,1.6-7.7,9.3-7.7s12,3.6,12,7.7
						c11.9,0,19,0.8,19,0.8l15.1,21.7v3.7h-4.4v3.9c0,0,5.5,1.1,5.5,2s0,5.7,0,5.7s-3,2.2-2.6,7.2c0.4,5.1,2.6,8.4,2.6,8.4v7.7
						l-2.1-0.1v2.8l3.1-0.1c0,0,0.2,4.6,0,5.4c-0.2,0.8-10.1,20.4-10.1,20.4L455.3,507.7z"/>
					<g>
						<linearGradient id="SVGID_10_" gradientUnits="userSpaceOnUse" x1="424.0967" y1="452.656" x2="489.5744" y2="452.656">
							<stop  offset="0.1637" style="stop-color:#0D0D0D"/>
							<stop  offset="0.3575" style="stop-color:#9C9C9C"/>
							<stop  offset="0.6119" style="stop-color:#333333"/>
							<stop  offset="0.7866" style="stop-color:#5C5C5C"/>
							<stop  offset="0.9667" style="stop-color:#000000"/>
						</linearGradient>
						<path class="st17" d="M488.6,445.7h-66.3v3.7c0,0,31.1,0,35.7,0c4.6,0,10.9,6.5,10.9,10.3c9.3,0,15.3,0,15.3,0
							s-0.4-8.9,4.5-9.5C488.6,447.3,488.6,445.7,488.6,445.7z"/>
						<linearGradient id="SVGID_11_" gradientUnits="userSpaceOnUse" x1="424.0967" y1="464.0027" x2="489.5744" y2="464.0027">
							<stop  offset="0.1637" style="stop-color:#0D0D0D"/>
							<stop  offset="0.3575" style="stop-color:#9C9C9C"/>
							<stop  offset="0.6119" style="stop-color:#333333"/>
							<stop  offset="0.7866" style="stop-color:#5C5C5C"/>
							<stop  offset="0.9667" style="stop-color:#000000"/>
						</linearGradient>
						<path class="st18" d="M422.3,457.8c0,0,31,0,34.5,0s3.8,3.7,3.8,5.4s-0.7,7.1-6.9,7.1c-6.2,0-31.3,0-31.3,0V457.8z"/>
						<linearGradient id="SVGID_12_" gradientUnits="userSpaceOnUse" x1="424.0967" y1="475.498" x2="489.5744" y2="475.498">
							<stop  offset="0.1637" style="stop-color:#0D0D0D"/>
							<stop  offset="0.3575" style="stop-color:#9C9C9C"/>
							<stop  offset="0.6119" style="stop-color:#333333"/>
							<stop  offset="0.7866" style="stop-color:#5C5C5C"/>
							<stop  offset="0.9667" style="stop-color:#000000"/>
						</linearGradient>
						<path class="st19" d="M423.1,479c0,0,31.4,0,35.1,0c3.7,0,10.6-6.8,10.9-10.9h15.1c0,0,0.6,10.9,7.3,10.9v4h-68.4V479z"/>
					</g>
					<path class="st7" d="M426.9,470h-4.7v-12.5c0,0,31.1,0,34.5,0s5.9,5.7,2.9,10.1c-0.5-5.5-1.6-8.7-5.6-8.7c-4.1,0-27.1,0-27.1,0
						V470z"/>
					<polygon class="st7" points="422.2,448.6 422.2,445 488.5,445 488.5,446.8 425.1,446.8 425.1,448.6 					"/>
					<path class="st7" d="M422.1,477.7v6.9h66.3l-62.8-1.5c0,0-0.2-2.3,0-2.3c0.2,0,30.8,0,33.7,0c6.3,0,10.6-9.5,10.7-11.4h13.7
						c0,0,1,8.1,6.3,10.2c-3.1-3.4-5.4-8.8-5.2-11.7c-13.1,0-16.2,0-16.2,0s-1.8,9.7-12.6,9.7C448.9,477.7,422.1,477.7,422.1,477.7z
						"/>
					<path class="st7" d="M407.4,458.6c0,0,3.4-0.2,3.4,0c0,0.2,0,13.1,0,13.1h-3.5l2.6-1.6l-0.3-10L407.4,458.6z"/>
					<path class="st8" d="M427.8,487c0,1.5-1.1,12,11.2,12c11.8,0,49.2,0,49.2,0s-11.3,0.9-19.2,0.9c-7.9,0-24.9,0-30,0
						C433.7,499.9,427.8,499.7,427.8,487z"/>
					<g>
						<linearGradient id="SVGID_13_" gradientUnits="userSpaceOnUse" x1="418.7657" y1="501.161" x2="418.7657" y2="486.5789">
							<stop  offset="2.307692e-02" style="stop-color:#FFFFFF"/>
							<stop  offset="0.1158" style="stop-color:#0D0D0D"/>
							<stop  offset="0.4372" style="stop-color:#565656"/>
							<stop  offset="0.7809" style="stop-color:#FFFFFF"/>
							<stop  offset="1" style="stop-color:#565656"/>
						</linearGradient>
						<path class="st20" d="M424,486.2c-1.7,0-8.8,0-10.4,0c-2.2,0-4,3.4-4,7.5c0,4.1,1.8,7.5,4,7.5c1.8,0,8.6,0,10.4,0
							c2.2,0,4-3.4,4-7.5C428,489.6,426.2,486.2,424,486.2z"/>
						<ellipse class="st21" cx="413.6" cy="493.8" rx="4" ry="7.5"/>
						<path class="st7" d="M410.3,494.8c0,2.3,3,4.9,5.5-2.7c1.1,3.5-0.6,7.1-3.1,6.7C410.9,498.6,410.3,496.8,410.3,494.8z"/>
						
							<ellipse transform="matrix(3.784922e-02 -0.9993 0.9993 3.784922e-02 -95.2946 887.2387)" class="st6" cx="413.1" cy="493.1" rx="4.5" ry="2.9"/>
						<path class="st8" d="M415.3,493.1c1,0,0.2-6-3.2-4c-1.6,1.2,2,0.7,2.5,1.8C415,492,415.3,493.1,415.3,493.1z"/>
					</g>
				</g>
				<g>
					<path class="st7" d="M439.5,419.1h-2.1c0,0,0.3-3,3.1-5.5c2.8-2.5,6-2.4,8.5-2.2c2.5,0.2,0.4,7.7,0.4,7.7H439.5z"/>
					<g>
						<path class="st8" d="M458.7,419.1h-19.2c0,0,1.8-7.7,8.7-7.7S458.7,416,458.7,419.1z"/>
						<path class="st6" d="M458.7,419.1h-19c0,0,1.8-7.5,8.6-7.5S458.7,416,458.7,419.1z"/>
						<path class="st7" d="M454,419.1h-9.5c0,0,0.9-3.8,4.3-3.8C452.2,415.3,454,417.6,454,419.1z"/>
					</g>
				</g>
				<g>
					<line class="st8" x1="492.5" y1="441.5" x2="405.1" y2="441.5"/>
					<path class="st8" d="M492.5,441.5c-1.8,0-3.6,0.1-5.5,0.1l-5.5,0.1l-10.9,0.1c-7.3,0-14.6,0.1-21.9,0.1l-10.9,0l-5.5,0l-5.5,0
						l-10.9-0.1c-3.6-0.1-7.3-0.1-10.9-0.2c3.6-0.1,7.3-0.1,10.9-0.2l10.9-0.1l5.5,0l5.5,0l10.9,0c7.3,0,14.6,0,21.9,0.1l10.9,0.1
						l5.5,0.1C488.9,441.4,490.7,441.4,492.5,441.5z"/>
				</g>
				<path class="st15" d="M447.6,415.9c0,0,1.4-0.2,1.9-0.7c1-1.2,0.8-3.8-0.9-3.9"/>
			</g>
			<g>
				<circle class="st22" cx="449.2" cy="264.2" r="30.1"/>
				<g>
					<rect x="445.3" y="245.1" class="st23" width="7.8" height="38.2"/>
					
						<rect x="445.3" y="245.1" transform="matrix(-1.836970e-16 1 -1 -1.836970e-16 713.4311 -185.0348)" class="st23" width="7.8" height="38.2"/>
				</g>
			</g>
			<g>
				<circle class="st24" cx="422.1" cy="324.4" r="15.8"/>
				<g>
					<rect x="420.1" y="314.4" class="st23" width="4.1" height="20"/>
					
						<rect x="420.1" y="314.4" transform="matrix(-1.836970e-16 1 -1 -1.836970e-16 746.5104 -97.7376)" class="st23" width="4.1" height="20"/>
				</g>
			</g>
			<g>
				<circle class="st25" cx="450.2" cy="380" r="10"/>
				<g>
					<rect x="448.9" y="373.7" class="st23" width="2.6" height="12.7"/>
					
						<rect x="448.9" y="373.7" transform="matrix(-1.836970e-16 1 -1 -1.836970e-16 830.2451 -70.1854)" class="st23" width="2.6" height="12.7"/>
				</g>
			</g>
			<g>
				<circle class="st25" cx="460.6" cy="314.4" r="10"/>
				<g>
					<rect x="459.3" y="308" class="st23" width="2.6" height="12.7"/>
					
						<rect x="459.3" y="308" transform="matrix(-1.836970e-16 1 -1 -1.836970e-16 774.9481 -146.1998)" class="st23" width="2.6" height="12.7"/>
				</g>
			</g>
			<g>
				<circle class="st26" cx="409.2" cy="286.9" r="4.3"/>
				<g>
					<rect x="408.7" y="284.2" class="st23" width="1.1" height="5.4"/>
					
						<rect x="408.7" y="284.2" transform="matrix(-1.836970e-16 1 -1 -1.836970e-16 696.1016 -122.3509)" class="st23" width="1.1" height="5.4"/>
				</g>
			</g>
			<g>
				<circle class="st26" cx="457.4" cy="351.8" r="4.3"/>
				<g>
					<rect x="456.9" y="349.1" class="st23" width="1.1" height="5.4"/>
					
						<rect x="456.9" y="349.1" transform="matrix(-1.836970e-16 1 -1 -1.836970e-16 809.2665 -105.5979)" class="st23" width="1.1" height="5.4"/>
				</g>
			</g>
			<g>
				<circle class="st26" cx="446.3" cy="405.1" r="4.3"/>
				<g>
					<rect x="445.7" y="402.3" class="st23" width="1.1" height="5.4"/>
					
						<rect x="445.7" y="402.3" transform="matrix(-1.836970e-16 1 -1 -1.836970e-16 851.3331 -41.2069)" class="st23" width="1.1" height="5.4"/>
				</g>
			</g>
			<g>
				<circle class="st26" cx="420.1" cy="350.8" r="4.3"/>
				<g>
					<rect x="419.5" y="348.1" class="st23" width="1.1" height="5.4"/>
					
						<rect x="419.5" y="348.1" transform="matrix(-1.836970e-16 1 -1 -1.836970e-16 770.911 -69.2355)" class="st23" width="1.1" height="5.4"/>
				</g>
			</g>
		</g>
		<g>
			<path class="st27" d="M387.6,617.2l4.2-51.2c0,0,20.8-18.3,24.8-24.5c3.9-6.2,4.8-10.1,9.8-19.4c5.1-9.3,7.9-12.9,7.3-22.8
				c-0.6-9.8-1.1-22.5-1.4-27c-0.3-4.5-6.5-0.6-9.6,3.7c-3.1,4.2-3.4,16.3-3.1,18.3c0.3,2-2.5,6.5-2.5,9.3
				c-7.9-1.4-15.2-2.5-15.2-2.5s-4.2-18-8.2-20.3c0.6-12.9,2-22.2-0.8-26.5c6.2-7.9,5.3-11.8,5.3-11.8s7.3-6.8,4.5-13.2
				c-2.8-6.5-10.4,2.8-13.5,5.1c-3.1,2.3-10.1,14.1-11.5,16.3s-9.3,19.7-9.3,19.7s0.2-12.3-3.5-23.6c3.4-7.9,4.1-10.2,4.1-10.2
				s3-4.5,2.7-12.1c-0.3-7.6-5-5.6-7.5-4c-2.5,1.7-9.6,12.1-9.6,12.1s1.1-7-2.5-7.9c-3.7-0.8-18,19.7-20.3,22
				c-2.3,2.3-2.3,26.5-2.5,25.6c-0.3-0.8-1.7-4.8-3.4-7c1.7-8.4,3.4-19.1,1.9-19.7s-4.5-4.5-9.3,4.5c-4.8,9-6.2,22.5-6.2,25.3
				s7.9,23.6,10.1,33.2c2.3,9.6,15.8,48.1,16.9,52.1c1.1,3.9-6.5,32.6-8.2,39.4C329.6,606.8,384.5,638.3,387.6,617.2z"/>
			<path class="st28" d="M367.8,610.6c5.6-26,10.4-50.7,10.4-64.3s-2-56.7-2.8-58.3s-8.8,0.4-10-2.8c-4,5.6-16,6.8-17.6,0
				c-0.8,7.2-17.6,10.8-19.2,5.6c-1.3,0.3-5.4,0.2-5.9-3.2c-2.2-4.1-3.9-11.8-4.4-13.6c-0.8-2.8-7.3-4-6.1,0.8
				c1.2,4.8,24.4,76.3,25.2,80.3c0.8,4,4,14.4-1.6,24.4c-5.6,10-11.6,51.9-11.6,51.9L367.8,610.6z"/>
			<path class="st28" d="M326,465.2c0.4,1-1,8.1-1.2,9.4c1.7,3.5,4,12.5,4,11.6c0-0.9,0.5-14.1,0.5-14.1S327.3,466.1,326,465.2z"/>
			<path class="st28" d="M354.3,426.7c-0.2,4.8-8.3,15.6-9.6,17s-0.3,3.7-0.7,6.6c-0.3,3-1,28.5-0.1,29.6c0.9,1,3.4,3.8,3.4,3.8
				s-1.2-32.3-0.7-35.6c0.5-3.3,8.1-13.6,8.1-15.5C354.7,430.7,354.9,427.8,354.3,426.7z"/>
			<path class="st28" d="M371.7,424.4c0-0.5,2.3,5.6-3.5,13.9c-1.2,7.8-3.3,8.3-3.3,8.3s5.2,20.2,5.2,20.7s-0.6,8-1.6,10.3
				c-1,2.3-1.5,6.1-1.5,6.1s-4-30.4-5.2-33.2c-1.2-2.8,0.9-4.7,2.6-8.5C366.2,438.2,372.3,430.5,371.7,424.4z"/>
			<path class="st7" d="M337.3,567.3c0,0,46.7,10.9,57.3,6.3c0.3,14.2-4.1,42.9-4.1,42.9s7.9-2.3,4.1,65.2s-11.4,102.2-11.4,102.2
				h-99.9c0,0,34.1-175.2,39.6-176c5.5-0.8,6-3.4,6-3.4L337.3,567.3z"/>
		</g>
		<g>
			<path class="st27" d="M567.7,649.3c-6.7-28.4-7.3-37.7-11.3-44.5s-19.7-8.7-27-17.4c-7.3-8.7-17.7-14.1-22.2-16.3
				c-4.5-2.3-6.5-9.6-8.7-16.9c-2.3-7.3-5.6-14.1-5.1-18.6s5.3-5.1,8.2-3.1c2.8,2,12.4,12.9,12.7,15.8c6.5,0.8,16.3,6.2,16.3,6.2
				s2-12.1,6.8-14.1c-2.5-18,0.6-24.2,0.6-24.2s-7-12.7-8.7-20c-9.8-0.8-18.3-2.8-20.8-6.5c-2.5-3.7-0.8-8.2,4.2-8.2
				c5.1,0,19.7-0.6,22.5,1.1c2.8,1.7,9.6,9.3,9.6,9.3l-0.6-10.5c0,0-9.1-3.6-10.1-6.1c-1.7-4.2,2.3-4.8,12.4-4.5
				c10.1,0.3,13.5,0,16.9,8.2s7.6,14.1,7.6,14.1s3.9-3.9,8.2,2.5c1,1.6,2.9,4.3,5.2,7.7c1.6-0.3,4.8,0,5.7,1.3
				c6.7,9.8,11.9,24.6,13,28.2c1.7,5.3,3.4,42.5,4.8,49c1.4,6.5,8.2,29,11,39.4C621.5,631.5,573,672.1,567.7,649.3z"/>
			<path class="st28" d="M503.4,569c3.4-0.4,9.8-6.4,10.2-8.2s15-0.8,20.2,0c5.2,0.8,10.2,2.2,11.4-1.8c1.2-4,8.6-24.4,9.4-29.9
				c4.2-3.4,5.2-6.2,5.6-9.6c4.4,1.6,10.4,5,14.4,3.4c4-1.6,5-1.4,5-1.4s3,7,6.4,6c3.4-1,2,0.4,2,0.4s-0.2,2.6,4.8,3.4
				c0.4,16.4,0,51.7,0,51.7s17,75.3,17.2,75.9c0.2,0.6-43.1,10.2-43.3,8.4c-0.2-1.8,1.5-36.1-10.5-62.6c0,0-21.4-9-29.4-19.2
				S503.4,569,503.4,569z"/>
			<path class="st28" d="M556.7,505.8c0,0-8.8-20.6-9.4-22c-0.6-1.4-3-4-3-4s-9.8-2-10.4-4.8c3,5,10,6.6,10,7.2s1.4,11.4,1.4,11.4
				s7.2,8.8,7.8,10.2C553.7,505.2,556.7,505.8,556.7,505.8z"/>
			<path class="st28" d="M570.8,493.1c0,0,1.5-1.6,2.2-0.7c0.7,0.9,3.8,10.4,4.6,11.8c0,0-2,1.4-3-1.4
				C573.6,500,570.8,493.1,570.8,493.1z"/>
			<path class="st7" d="M556.7,613.2c-0.8-1,32.4,2.5,57.3-16c5.6,3,12.7,32.7,12.7,32.7s9.4,10.7,16.5,39.3s28.7,115.9,28.7,115.9
				h-98.7c0,0-13.2-128.8-13.4-135.7c-0.3-6.8,2-12.2,2-12.2L556.7,613.2z"/>
		</g>
	</g>
</g>
</svg>
