<?xml version="1.0" encoding="utf-8"?>
<!-- Generator: Adobe Illustrator 24.0.0, SVG Export Plug-In . SVG Version: 6.00 Build 0)  -->
<svg version="1.1" id="Layer_1" xmlns="http://www.w3.org/2000/svg" xmlns:xlink="http://www.w3.org/1999/xlink" x="0px" y="0px"
	 viewBox="0 0 127.4 26.8" style="enable-background:new 0 0 127.4 26.8;" xml:space="preserve">
<style type="text/css">
	.st0{fill:#A95B35;}
</style>
<rect x="6.2" y="12.4" class="st0" width="100.8" height="2"/>
<polygon class="st0" points="127.4,13.4 100.1,5 99.4,13.4 100.1,21.8 "/>
<polygon class="st0" points="3.1,26.8 20.7,13.9 16.2,13.9 0,26.8 "/>
<polygon class="st0" points="20.7,13 3.1,0 0,0 16.2,13 "/>
<polygon class="st0" points="9.5,26.8 27.1,13.9 22.6,13.9 6.4,26.8 "/>
<polygon class="st0" points="27.1,13 9.5,0 6.4,0 22.6,13 "/>
<polygon class="st0" points="15.9,26.8 33.5,13.9 29,13.9 12.8,26.8 "/>
<polygon class="st0" points="33.5,13 15.9,0 12.8,0 29,13 "/>
<polygon class="st0" points="22.4,26.8 39.9,13.9 35.4,13.9 19.2,26.8 "/>
<polygon class="st0" points="39.9,13 22.4,0 19.2,0 35.4,13 "/>
<polygon class="st0" points="28.8,26.8 46.3,13.9 41.8,13.9 25.6,26.8 "/>
<polygon class="st0" points="46.3,13 28.8,0 25.6,0 41.8,13 "/>
<rect x="93.8" y="9.1" class="st0" width="1.5" height="8.7"/>
<rect x="90" y="9.1" class="st0" width="1.5" height="8.7"/>
</svg>
